<mxfile host="app.diagrams.net" agent="Mozilla/5.0 (Windows NT 10.0; Win64; x64) AppleWebKit/537.36 (KHTML, like Gecko) Chrome/127.0.0.0 Safari/537.36" version="24.7.7">
  <diagram name="Page-1" id="bfe91b75-5d2c-26a0-9c1d-138518896778">
    <mxGraphModel dx="2642" dy="1474" grid="1" gridSize="10" guides="1" tooltips="1" connect="1" arrows="1" fold="1" page="0" pageScale="1" pageWidth="1100" pageHeight="850" background="none" math="0" shadow="0">
      <root>
        <mxCell id="0" />
        <mxCell id="1" parent="0" />
        <mxCell id="7c3789c024ecab99-81" value="&lt;b&gt;&lt;font color=&quot;#000000&quot;&gt;Region-2 AKS Cluster&lt;/font&gt;&lt;/b&gt;" style="rounded=1;whiteSpace=wrap;html=1;shadow=0;comic=0;strokeColor=#036897;strokeWidth=2;fillColor=none;fontFamily=Verdana;fontSize=28;fontColor=#6881B3;align=center;arcSize=11;verticalAlign=top;" parent="1" vertex="1">
          <mxGeometry x="-40" y="1062" width="1245" height="298" as="geometry" />
        </mxCell>
        <mxCell id="7c3789c024ecab99-79" value="&lt;font color=&quot;#000000&quot;&gt;&lt;b&gt;Region-1 AKS Cluster&lt;/b&gt;&lt;/font&gt;" style="rounded=1;whiteSpace=wrap;html=1;shadow=0;comic=0;strokeColor=#036897;strokeWidth=2;fillColor=none;fontFamily=Verdana;fontSize=28;fontColor=#6881B3;align=center;arcSize=11;verticalAlign=top;" parent="1" vertex="1">
          <mxGeometry x="-40" y="380" width="1245" height="300" as="geometry" />
        </mxCell>
        <mxCell id="NnL7JSWlf4hrcEAEEY_L-2" value="" style="rounded=0;whiteSpace=wrap;html=1;" vertex="1" parent="1">
          <mxGeometry x="1660" y="570" width="210" height="590" as="geometry" />
        </mxCell>
        <mxCell id="NnL7JSWlf4hrcEAEEY_L-3" value="&lt;font style=&quot;font-size: 18px;&quot;&gt;&lt;b&gt;Shared Resources&lt;/b&gt;&lt;/font&gt;" style="text;html=1;align=center;verticalAlign=middle;whiteSpace=wrap;rounded=0;" vertex="1" parent="1">
          <mxGeometry x="1671.49" y="520" width="180" height="48" as="geometry" />
        </mxCell>
        <mxCell id="NnL7JSWlf4hrcEAEEY_L-13" value="" style="rounded=0;whiteSpace=wrap;html=1;dashed=1;strokeColor=#CC0000;strokeWidth=3;" vertex="1" parent="1">
          <mxGeometry x="1680" y="600" width="170" height="140" as="geometry" />
        </mxCell>
        <mxCell id="NnL7JSWlf4hrcEAEEY_L-9" value="" style="shape=image;verticalLabelPosition=bottom;labelBackgroundColor=default;verticalAlign=top;aspect=fixed;imageAspect=0;image=data:image/jpeg,/9j/4AAQSkZJRgABAQAAAQABAAD/2wCEAAkGBwgHBgkIBwgKCgkLDRYPDQwMDRsUFRAWIB0iIiAdHx8kKDQsJCYxJx8fLT0tMTU3Ojo6Iys/RD84QzQ5OjcBCgoKDQwNGg8PGjclHyU3Nzc3Nzc3Nzc3Nzc3Nzc3Nzc3Nzc3Nzc3Nzc3Nzc3Nzc3Nzc3Nzc3Nzc3Nzc3Nzc3N//AABEIAKMArQMBIgACEQEDEQH/xAAbAAEAAgMBAQAAAAAAAAAAAAAAAgUEBgcDAf/EAEAQAAEDAwAFCAcGBgEFAAAAAAEAAgMEBRESITE0QQYzUWFxcrHBEyIyc4GRoRQVNVLR8AdCQ1RikyQjU4KS4f/EABoBAQACAwEAAAAAAAAAAAAAAAAFBgEDBAL/xAAnEQEAAgEEAQIGAwAAAAAAAAAAAQMCBBEhMRIFUSIyQWGRoRMUQv/aAAwDAQACEQMRAD8A7iiIgIiICidq8K6rhooHz1MgjjaNbj4LQb5ylqLi50UBdBS8Gj2n9v6Loo02d08de7RdfjVHPba7nymt9A5zA8zzDUWRa8HrOwLXavllXSlwpo4oG8DjTI+er6LWQeg5CZUtXoacO43lHZ6uzLqdlnJf7tIcmvl/8cN8F5i83MHIr6rPXIVgZTK6Iqrj/Mfho/kzn6reHlHdojvrndT2hytqLlpMHAVtK17fzRHB+R2rUspleM9LTn3i9432Y9S6pbLtR3ME0s4c8bYzqc34LPGxceZI+J4kjc5jxse04IW4cn+VnpHClurgHHUyfYD1O6CozUaDLD4sOYd1OsjLjPiW5IvjdYyvqj3cIiICIiAiIgIiIC8qiWOGJ8szg2NjS5xOwBeh2rSeXl1y5tshcMDD5/Jvn8luoqm2yMYarrYqwnJSX+8zXeqLsObTsP8A02dXSetVaicHYisWGGOGMY49ILLOcp3lJFFF7eUkUUQSRRRBJB0A7eBUUQbryOvxfo26tfl2P+jIeP8AievoW5N2LjUbzG8PY4te0gtI2g9K6pyfuQutriqdQk9mUDg8bf1+Khdfp4wn+THqUro75zjwy7hZIiKOd4iIgIiIPh2qsuN9t1uc5tRUN9IP6bPWd8h5rTb5ytqa57obe51PT7NPY9/b+Udi1nSzrJyTtUnR6dOUb2Tt9kddr4idq+W71XLoaWKWhc7Owyvx9APNahV1MlZUy1M3tyuLisfKZUlVp66vkhwWX2WfNKaKGUyt7UmihlMoJooZTKCaKGUygmihlMoJFbX/AA/rfR109G93qys02g/mH6jwWpZVnyZn9Bf6F/TLof8At6vmtGpw86sobaM/C3GXWBsX1fG6gvqrSwCIiAiIg4lkDYmVHKZVsVjdLKZUcplGd0splRymUN0splRymTwQ3SypMY959QfEr2hpdIB0p+CzoYNNjiPVDVHaj1DHD4a+Zd9Giyz5z4hgywtjp5HZy7HyVe2d2rSGetWtXj7NLg59UqqpYhNUMjJxpEjV2FRn9q7y8vLlI/16vHx8Xo2VjuOCvTPXlRq6B9NEZS9rmjidRWMHOadS7avU56sj8OOz0+O8JZeVKKV0M0c0btGSNwc13QRrCxWzg+1tXoHh2sKQr1FVvGMuGyiyv5obZQ8t7hC7FXDFUM4keoVtVo5SW+6kMik9HOf6Umons6VyvKaRB1HHWtNugpz6jaW2vW24Tzy7cF9WhcluVcgkjobo8uY71Y53HWD0O/Vb2zZw+ChrqM6cvHJLU3Y24+WKSIi0trh2Uyo5TKtyrpZTKjlMoJZTKjlMoJZTOtRyh2Iw2G36w7sCnR81L++CjbvZd3Qp0fNS/vgqlPa0R0rardZe75Kut2/w9p8CrGq3WXu+Srrdv8PafAoytLruTu8PFYFoaH1DmuAI9GdvaFn3Xcnd4eKwbNvTvdnxCwJXamigDHxM0STghYkFNJOHGJmkGYyM9Ksr1zcXeK87J7M/w80GA4yxHRcHA8Q4a19EoOorLvfPx9w+KjRUTKindIXua4OIyNnDh8V1Vay6vqd4+7ms0lVncPEYxqGo7V0HkLfXVkRt1U7M0TcxuP8AOzo7Qud1EJpp3RZyRxXtbq+W3V8FUz24nh2B/MOI+IyumzWVaiucbI2n6OevS2UZ+WE7w7aNi+rX7VystFwLWCf0Ep2Rzer8jsV+0gjIOQoxIuFZTKjlMq3qrullMqOUyhullMqOUyhullFHK+E6ijG7aLd7J7oU6Pmpf3wXjRSsja4v4gALxa9waWhxAO1o4qoz2tUdPGq3WXu+SraF7WVcbnnDQfIr0ut2oqJj2TzD0hHsNy4j4cFUQ3OilwGzNDjwcdHxRlstxmjloXGN7XAuGsHPFYlmyKp2f+2fEKvaWuGWEEdRXrTzup5C9jsEjGzKwLS9c3F3ivOyezP8PNYtTWOqY2MfG3IOche9omih9I2R4aXluCerKBfOej7vmsm0bofeHwCxL05rpIyw5bo6jnPFZln3Y+8PkgwLrvz+weCsaONklBEJGB2RsIVbc9+k7B4K1t+5xd1BR1TQ2eVrRgBxGPmu3W78PpvdN8AuI1e8zd93mu3W78PpvdN8Ag4ZlMqOUyrgqSWUyo5TKCWUyo5TKCWUOMaz8FHKbevqQZtffqKiHo9L00w/pxnWO0rWrhfq+tJY15hjOrRiOCfjt+S2OK2unAMzWtb1jOpZ9FaaeFxkpqeMPaNcmBkKsaiquudsct1lotzsjfLHZpNJyeralplkZ6GLBIdJqJ+G35qMlinGdF8b/mCt8q92l1YOicqlwuZ0NX+76ynORG8dbCT4KTa+ugOi6Zx/xlGVspQgEYcMhBSR3qUc5C09bSQsuK80z9UjXxnrbnwWRJRUz/6LB1gYXg+0wO1tL2/HIWRkx1dNJ7EzCejS1rOp6yambox4cw69EhUL7OdrJWHvNwvMUVZBriLgP8HoL+plM8xlIwXY1ZVtb6mD7PGwyNa8DBBOCtNFVXxc4C4f5tXrHdSdUkOOthWBb1e8zd4+a7bbvw+m903wC4TSStrpBBSslkmdsjjjJJ69S7vQNLKKBrgQ5sbQQeBwg4dX0dVb6p9NXROjmbtB4jpHSF4Art94tNFd4PQ10DZAPZdnDmnpBGsLQbv/AA/rYXF9smbVRbRHIQ1/z2H6Kw6f1KuyNs+J/SA1Hp9mE74cx+2nZTK96y311E5wraOohI2l8ZA+ezxWLpA+zsUhExMbwj5iY4lPKZUNJNJZY3TyhOpQ0kyhu26hY17DpDJDQQvWi5mTVg//ABQt/Mv7oU6PmZP3wVOy7W+OldVbrL3fJV1u3+HtPgVY1W6y93yVdbt/h7T4FYZWd1H/AA3do8VX2uJks7mSM0m+jOo9oVjddyd3h4rBs29O92fEIJXSlhp2MdCMEnBGcrxt9IypEnrlpbjYOnKzb1zcXeK87J7M/wAPNBh1tN9ke1umX5GckYSGimnhD4tE68YJwcrJvnPR93zWVZt2PvD5IKaWN8Ty2Vui4bdag+lD26ToAR0mNZl036TsHgrW37lF3UHlaeVFxtEIhpYqUQj+UwBoPbo4XWqSQy0sMjhhz2BxA4EjK4dV7zN33Lt1u/D6b3TfAIMhERB8cARrGepYsluoZHaUlHTvd0uiaT4LLRZiZjpiYie2F91W7+wpf9Lf0T7qt39hS/6G/os1Fnyy92PDH2YX3Vbv7Cl/0N/RfPuu3cKCl/0t/RZy+FPLL3PDH2czY0Nmq2tGAHEY6NZUaPmZP3wUmn/kVXed4lRouYk/fBeXpXVW6y93yVdbt/h7T4FWNVusvd8lXW7f4e0+BQWl13J3eHisGzb073Z8Qs667k7vDxWDZt6d7s+IQZN65uLvFedk9mf4ea9L1zcXeK8bPJGxs5e9rdntHHSg+Xzno+75rKs27H3h8lhXWZk0zPRvDwBjISjr208DozG5xLicg4HBBC6b9J2DwVrb9yj7v6qkqZ/tU5k0dEO4KTK6oYxsccmiGjUBtQRrd6m75Xbbd+H03um+AXG4bTdK7LoaKplL/wCb0ZA+exdloWujo4GPGi5sbQR0HCD3REQEREBERAXw9a+og1688mIKwuloyIJzrOr1XHr6FqU0FTbZXwVUBYTsJO3rB4rpy8KylgrITFUxNkYeDgg5NU5+yyA8GlVVNN6GdsmM6Ov6Fb7eeSNQGv8Au0iVjhgMecObnr4qtpf4fXCTDqmrpogduiC8jw8UGuVdwdUROiETWgniclYsc0kLi6N2C4Y2ZXRKX+H1AzH2irqZT0NwweZ+qt6XknY6Y5bQRyEcZSX/AEOpByQvmqCGkySuPDOforCl5PXiqx6C21Ovi9mgPm7C7DBBBTsxBFHG38rGgD6L1CDmFLyCu8uDPJTQDiHP0j8gMfVW9L/DuAEGsuEsg/LFGGfU5W8og12l5GWOnIP2V0rvzSSE5+GcfRXFLbqKk3WkgiPSyMArKRB8C+oiAiIgIiICIiAiIgIiICIiAiIgIiICIiAiIgIiIP/Z;" vertex="1" parent="1">
          <mxGeometry x="1722.54" y="650" width="84.91" height="80" as="geometry" />
        </mxCell>
        <mxCell id="NnL7JSWlf4hrcEAEEY_L-7" value="&lt;font style=&quot;font-size: 18px;&quot;&gt;&lt;b&gt;Container Registry&lt;/b&gt;&lt;/font&gt;" style="text;html=1;align=center;verticalAlign=middle;whiteSpace=wrap;rounded=0;" vertex="1" parent="1">
          <mxGeometry x="1676.49" y="602" width="180" height="48" as="geometry" />
        </mxCell>
        <mxCell id="NnL7JSWlf4hrcEAEEY_L-14" value="" style="rounded=0;whiteSpace=wrap;html=1;dashed=1;strokeWidth=3;strokeColor=#009900;" vertex="1" parent="1">
          <mxGeometry x="1680" y="780" width="170" height="160" as="geometry" />
        </mxCell>
        <mxCell id="NnL7JSWlf4hrcEAEEY_L-5" value="&lt;font style=&quot;font-size: 18px;&quot;&gt;&lt;b&gt;Azure Front Door&lt;/b&gt;&lt;/font&gt;" style="text;html=1;align=center;verticalAlign=middle;whiteSpace=wrap;rounded=0;" vertex="1" parent="1">
          <mxGeometry x="1666.49" y="780" width="190" height="48" as="geometry" />
        </mxCell>
        <mxCell id="NnL7JSWlf4hrcEAEEY_L-4" value="" style="shape=image;verticalLabelPosition=bottom;labelBackgroundColor=default;verticalAlign=top;aspect=fixed;imageAspect=0;image=data:image/jpeg,/9j/4AAQSkZJRgABAQAAAQABAAD/2wCEAAkGBwgHBgkIBwgKCgkLDRYPDQwMDRsUFRAWIB0iIiAdHx8kKDQsJCYxJx8fLT0tMTU3Ojo6Iys/RD84QzQ5OjcBCgoKDQwNGg8PGjclHyU3Nzc3Nzc3Nzc3Nzc3Nzc3Nzc3Nzc3Nzc3Nzc3Nzc3Nzc3Nzc3Nzc3Nzc3Nzc3Nzc3N//AABEIAJQBDgMBEQACEQEDEQH/xAAbAAEAAgMBAQAAAAAAAAAAAAAABgcBAwUEAv/EADwQAQACAQMBBAUIBwkAAAAAAAABAgMEBRESBiExQRNRcYGxByI1UmFyobIVIzJCYnPRFCRDY4ORwfDx/8QAGgEBAAIDAQAAAAAAAAAAAAAAAAMFAgQGAf/EAC4RAQACAgEBBwMDBAMAAAAAAAABAgMRBDEFEhMhIjKxM1GBNEGhFEJScSNhkf/aAAwDAQACEQMRAD8AvEAAAAAAAAAAAAAAAAAAAAAAAAAAAAAAAAAAAAAAAAAAAAAAAAAAAAAAAAAAAAAAAAAAAAAAAAAAAAAAAAAAAAAAAAAAAAAAAAAAAAAAAAAAAAAAAAAAAAAAAAAAAAAAAAAAAAAAAAAAAAAAAAAAAAAAHxkyVx1m17VrWPGbTwREz5Q8mYjzly83aTacNuLaytvuVtf4Q2a8TNbpVDbk4q9bMYu020ZZ4jV1rP8AHS1Y/GC3Dz1/teRysM/3OnizUy0i+K1b1nwtWeYa8xMeU+SeJiY3Da8egAAAAAAAAAAAAAAAAAAAAAAAAAAAOdvW64dp0vpcnzr27seOPG0/0TYMFs1+7VFmzVxV3Kvty3PVblkm2pyc1/dxx+zHuXuHBTFGohU5Mtsk+cvGmRgPVt246rbssZNLltWPOnjWfciy4aZY1aEmPLak7iVg7Hu+LdtNGSvzcte7Jj+rP9FFyOPbBbU9P2la4c1ctdw6aBMAAAAAAAAAAAAAAAAAAAAAAAAAxIPDrt30Ggnp1Wrx47fU55t/tHelx4MuT21R3zY6e6Ve7/uk7nuOTLEz6KPm44nu+aveNg8HHFZ6qjPm8S8/ZzutsIdtmGts2WuOnjb1vJmI82FskUjcmWmTDfoy1mLfF5WYnoUy1v0a+uWTLbo7BuNtv3TDlif1d56cn21nza/KwxkxzEdU+DL3LxK0Kzz5udXbIAAAAAAAAAAAAAAAAAAAAAAAMW8O4EI7VdqclM19DtuTp6e7Lmr6/VX/AJla8PhRMeJkj/Ss5XLmJ7lPyh035mbT32nxmZ8Vtry0rp8+s7Y63unh1x5yaNvXtV+dwwxz5z8JYZI9EoORP/FKQ5cdMtOjJTqr6mpHl0V1bTWd1cnV7VevztNbqr9WfH3Snrl+7dx8rfldybzMc1numO72SmiP3be4nzhYu19q9s1FMeLLnnDl4ivOSOKzPHrUObg5azuI8lzi5mK0REz5pHSYmImJ5iY5ieWk3H0AAAAAAAAAAAAAAAAAAAAAADk9qdwnbdk1Gek8ZJjopPqme5scTF4uWKz0QcnJOPFNo6qk9J5zPt+2XTa053cnW9NydYblMOwGHBqKa30+HFk6bV4m9Itx3T61R2ne1Zrqf5WnZ1YtFtxCR7npNLi0OW+LTYKWiImJrirHnHqhoce95yxEzKTtKlY4l9R9vmHBWsOSZjxJEN1VuNVn/m3+Mt+vSFnSfTDV1/8AZZMtylHYztDfR6rHt+qvzpcs9OPqnn0dvL3KzncSL1nJTrDf4XJmlopbosivmo10+gAAAAAAAAAAAAAAAAAAAAJBEPlJi/6CxWj9mM9Zt7O+I/FY9lzHjT/pX9pRPg7/AO1a9Xev1Hs6x7s6w2nHya25pr/vU+EqbtXrX8rbsvpZKd2+js3sj4wr+N9aqbtP9Jf8fMI2t3IAIPrLcazUR/m3/NKwr7YWNekNXWyZbPSTHfSeLR3xPqnyNb8nkyuzZ886rbNLnt45MVbT7ZhyeWncyWr9pdRit3qRb7w9qNIAAAAAAAAAAAAAAAAAAAAA5faPbY3XZdTo/wB+1ecc+q0d8JuPl8LJFkPIxeLjmqlMkWxXvjyV6L0tNbVnxifU6qNTG4/dy87ie7PWHz1vdPNnX9po2nvyYTzj3H7+P4Spu1utPyueyulkt3b6PzeyPjCu431qp+0/0l/x8wjS3cgySIBrb/37U/zr/mlY09sN6s+mGjrZae7bNPjvqtRi0+GJtky2ilePXLG0xSJtP7PaxN57sdZXroMEaXR4dPWO7FjrSPdDkr271pt93V0r3axD0MWYAAAAAAAAAAAAAAAAAAAADExzHcCFdtexs7pedw2zoprJ49JjnujN9vPlZZ8Lnzh9F/b8Kvm8CMvrp1+VZazTajQ55wazFkw5K901yRx/6vqZMeSN0najvitjnV4008/az0j0sL5Ku/FuMfx0+EqTtf3U/K87I9t0v3f6OzeyPjCt431qtntP9Jf8fMI2t3IMkiuNf9Iarv8A8a/5pWlI9MNqI9MNeDFl1OSMWnx3y5Ld1a0jmZktatYmZnTKlLXnVeqzuw3ZDJt1/wBI7nEf2qY/V4eefRR5zM+dp/BQc/nRmjw8ft+6+4PBnFPiX6pvWOFYtGQAAAAAAAAAAAAAAAAAAAAAAYmOQadTo9Pq69Oqw48teOOL1iWVb3p7Z0xtStusOZPZTYZnmdq0k/6ab+rz/wCcof6TB/hH/j16DZtv23r/ALDpMWDr/a9HHHKPJlvk987SY8VMfsjT43ula7Zn4jyj4wz431qtPtT9Jf8AHzCKrdyL6x475bRTFWbWnwiGNrREbllWlrz3axuXdxdltkvSt821aacto5tM075t5q23Lz79N5dhi4mKMdYtSN6dLR7botDWK6PS4cMR9SkQgvkvf3Tts1x1p7Y09URxLBmyAAAAAAAAAAAAAAAAAAAAAAAAAAADn75EztuaIiZ8PD70JuP9WGh2nEzxb6jfT5cXQ7Rn1Pz8sTix+XPjPub2XlVp5R5ypOL2Xlzeq/pj+Uh0uiwaWvGGkRz4z5yrr5LXn1S6PBxsWCuscaehgnZAAAAAAAAAAAAAAAAAAAAAAAAAAAAABiaxIHTAMgAAAAAAAAAAAAAAAAAAAAAAAAAAAAAAAAAAAAAAAAAAAAAAAAAAAAAAAAAAAAAAAAAAAAAAAAAAAAAAAAAAAAAAAAAAAAAAAAAAAAAAAAAAAAAAAAAAAAAAAAAAAAAAAAAAAAAAAAAAAAAAAAAAAAAAA//Z;imageBorder=none;strokeWidth=1;dashed=1;dashPattern=8 8;" vertex="1" parent="1">
          <mxGeometry x="1681.49" y="831.72" width="160" height="87.69" as="geometry" />
        </mxCell>
        <mxCell id="NnL7JSWlf4hrcEAEEY_L-15" value="" style="rounded=0;whiteSpace=wrap;html=1;dashed=1;strokeColor=#0000FF;strokeWidth=3;" vertex="1" parent="1">
          <mxGeometry x="1679.99" y="971.91" width="170" height="160" as="geometry" />
        </mxCell>
        <mxCell id="NnL7JSWlf4hrcEAEEY_L-16" value="" style="shape=image;verticalLabelPosition=bottom;labelBackgroundColor=default;verticalAlign=top;aspect=fixed;imageAspect=0;image=data:image/jpeg,/9j/4AAQSkZJRgABAQAAAQABAAD/2wCEAAkGBwgHBgkIBwgKCgkLDRYPDQwMDRsUFRAWIB0iIiAdHx8kKDQsJCYxJx8fLT0tMTU3Ojo6Iys/RD84QzQ5OjcBCgoKDQwNGg8PGjclHyU3Nzc3Nzc3Nzc3Nzc3Nzc3Nzc3Nzc3Nzc3Nzc3Nzc3Nzc3Nzc3Nzc3Nzc3Nzc3Nzc3N//AABEIALkAxAMBIgACEQEDEQH/xAAbAAEAAgMBAQAAAAAAAAAAAAAABQYCAwcEAf/EAE0QAAECBAICDAcMCQQDAAAAAAABAgMEBREGEiFRBxYxQVRhcXOSsbLREyUydILB0hQXIjVykZOhoqPC4RUmM0JSYoGD8CM2U2MkNEP/xAAaAQADAQEBAQAAAAAAAAAAAAAABAUGAwIB/8QANBEAAQMCAgcGBQQDAAAAAAAAAAECAwQRBRIUITEzNFJxQVGBkbHwIzJhodETIiTxRMHh/9oADAMBAAIRAxEAPwDuIAAAAAAAAAAAAAAAAGObRpseWoVGBIQvCR3Jp8lqbrl4inVKtTU8qtR3goO8xq7vKoxDTvl1psEKvEIqbUut3cWier8lKXbn8K/+GHp+sg5nFMy/RAgshprX4SkAi2Plyiyjjbt1mfmxapkXUtk+hJRK1UYm7NPT5Nk6jV+kp7hkf6RTxXFzukbE2Igks8q61cvmSDKtUGbk5FXldfrPVL4mnofl5IreNll+ohbi58dDG7a1D0yrqGfK9fMuUpiiViqjZhjoKrv+U35yahR2RWI+G9r2ruK1boc0vucR6JOdmJKJnl4itVd1N5eVBSShautmoqU+NSNW0yXT7+/I6QCFpFfgz9oUXLCmLeTvO5O4mLk57HMWzkNDDNHM3OxboZAA8HUAAAAAAAAAAAAAAAAAR9XqkOmy+d1nRHaIbNanom5qHKS0SPFVEYxL8vEc8qM7Fn5p8eMts3kp/CmoapoP1XXXYhMxGu0ZmVvzL9vqfJubjTkZY0d6uev1cSGni3jG4uWERESyGTcquW6mVxcxuLn08mVxcxuLgBlcXMbi4AZXBjcXADJFst00Ki3S28W3D1d90KkpNu/1dxj1/e4uUqFz6jrKit0Km+hxmhbK2yjVJVPppMzdnah1G5kQ2Hap+kJTLFX/AMiHoemvjJkiPYrHK1TZwytlYj27FAAPJ0AAAAAAAAAAABqjxkgQIkZ9srGq5f6IB8VbJdSo4xqGeOyShrdrPhRETfdvJ/msrd11n2YjvjzESNEW74jsy8pqzF6KNI2I0xNVMs8qyL2my4ua8wzHQXsbLi5rzDMAWNlxc15hmALGy4uu9umvMSeHJeFNVeBBjszw3I67dehe48vdlarl7D3HGsj0YnatjwXF13zon6ApXA2fOveQGLabJyMpAfKwGw3LEsqpfSlheOrY9yNRNpQnwqWGNZHKlkK1cXNeYZhomWJCkzzqfPQ47VXLez01tU6Qx6PajmqitVLoutDk+bjL9hKb900lrHLd8Fci8m8T66PUj0LuCz2csK9utCdABNNEAAAAAAAAAACExZHWDQ49lRFiK1ifP3E2VbHrlbT5duuKq/Mi952p0vK1BSudlp3qncUq4uYXFy4Y0zv82sXLzgyXgxKNmiQmPd4V2lzUUnvcctweF0EEn1qMcrcuwsQ4QssaPz7fp/05RcXPdiFEbWptrUREbEsiIliOuONdmRFJUjMjlb3GdxcwuLn08GdyZwivj6X5H9lSDuTWEF8fy/I/sqcp907oMUnEM6p6nRyr46W1Pl+e9SloKtjxbU6X571KSabfNNRiPCvKVcXMLi5bMeZ3LPgaOqTsxL30Pho5P6L+ZVbk3g96trsuifvNci/MvccahLxOG6F2WpYv19dR0YAEM2QAAAAAAAAAAKlsgaJWU43u6i2lQ2Qv/UlOcd1Hel3zRLEeFeUq4uYXFy3cyVjouB1vQ/7rvUWIrmBVvQv7zvUWMhT71xsaLh2dEOW4jXx7O86pG3JDEq2rs7zqkZctR/InRDJzp8V3VfU9aSU4qXSUj/RqHSc21rnOlY7Ual1VYapZDq8D9ixf5UPNWE8Uzvm7+yoilcqrbKV3YOxGq7McpuTWDlviCX5H9lSCuTeDFviGW40f2VHJ907oS6VPjs6p6nTCqY+W1Ol+e9SlrKnsgramy3PepSTTb1ppsQ4Z5R7i5hcXLdzI2M7kzg+64glbfzr9lSDuWLA0JYlcz70OE5epPWcZ1+E7oMUjb1DETvQ6KACGbI8FZnIkjTY0zBaxXstZHJo0qiesq+3Cf4PL9F3eT+KfiKZ9HtIc+0FOihZJGquTtJVbNIyREavYWLbhP8Hl+i7vG3Cf4PL9F3eV3QNA5osPKJ6VNzFi24T/AAeX6Lu8bcJ/g8v0Xd5XdA0BosPKGlTcxdsPV6aqc6+DHhwWtbDVyKxFRb3TWvGeLZFW0pJ847qPNglb1WLp/wDivWhv2SFtKSXy3dQi5jWVaI1BqR7n0Llct/7KNmGY15hmKBnrHSsBreg/3neospWcAregX/7neosxDn3rjX0fDs6HJ8TO8fzqf9qkZmJDE6/rBPcUVSLzFmP5E6GVnT4ruq+p2qB+wZ8lOo81Z+KJ/wA3idlT0y/7CH8lOo81a+J5/wA3idlSG35kNe/dr0/0cizE5gtf1jlU4n9lSv5idwQt8SSvI/sqWpt07oZOlT47Oqep1IqWyGtqbLc96lLaU/ZGW1Mlef8AwqSqbetNJX8M8omYZjXmGYtGTsbMxedjuVc2Wmpt249yMavJu9afMURiOe9jGJdzlyoib66jrtHkf0dTYEqlrsb8JU33LpX6xOtfZmXvKmFQ5ps/YhIAAlGkIbFXxBNej2kOeXOh4s0UCa9HtIc4uWcO3S9SLiO9TobLi5ruLj4gbLi5ruLgBZcDreqxeZXrQ37Ja2k5LnHdR5sCr42i8wvWhv2TVtJSXOu6iVLxiFD/AAHe+0oVxcwuLjxDsXHC+KpKk0v3LMQo7n+EV12NRUsv9SY2/Uzg830G+0c2VbjNxizqWNyq5R6OvnjajW7EJCszsOeqkxNQmvayK/MiPSyoeK5hcXGERESwm5VcqqvadHhY7pbIbGrAm7olvIb7RoqGOKbMyExAhwZlHRoTmJma3RdLfxHP7jNxiyUkSLceXEZ1S2ozuSeHKjCplXgzkdr3Q4ea6MS66UVPWRNwqotxhyI5FRRJjlY5HJtQ6Tt+pnB5voN9ogsWYklKzJwYMrDjNdDiZ18IiblrbyqVPNxi+hU6zgymjY7Mg3JXzSMVjtimdxcwuSeH6PHrU6kGEitgtssWLbyU713ju5yNS6ijI3PcjWprUnsBUdZmaWpR0/0YK2hIv7z9f9DoljRJycGTlYctLtyQoaWaiHoIs0qyPzGppadII8oAByGSFxav6vTXo9pDm1zpGLtGHprQv7u58pDmlyzh26XqRMR3qdDO4uYXFygTzO4uYXFwAs+A1vV4vML1oejZQ0SUjzrupDy4CXxxF5hetD0bKS2kpDnXdSEqfjEKTeAd77TntxcwzJrGZNY4RrGdxcwzJrGZNYBYzuLmGZNYzJrALGdxcwzJrGZNYBYzuLmGbRp6j5nuAGy59VT1U2kVKpuRJOUiRE/jtZnSXQXeh4CgwVbGq0RIzv8AhZ5Kcq7/ANRxknZHtUZhpJZvlTV3lXw9h2brcVFhosKVRbPjOTRyJrU6pTKXK0uTbKybFZDTdXfcutV1nphQYcGG2HCYjGNSzWtSyIhsJk07pV+hdpaNkCd694ABwHAAAA8lQk4M/JxJaYusOJa9lsuhb+oh9p1J1RvpPyPbiWbjSNEmZmWdkisy2W191UT1lC211rhn3be4epYp3sVY3WQQqpoGPRJG3UuG06k6o30n5DadSdUb6T8in7a61wz7tvcNtda4Z923uGdHq+f7qLaTScn2QuG06k6o30n5DadSdUb6T8in7a61wz7tvcNtda4Z923uDR6vn+6hpNJyfZC+UugyNLjujSiPR7mZFzOvo/xD5iGgy1egwYc3Fiw0hOVyeCVEvflRSDwbW6hUqm+DOTGeG2CrkajETTdE3k4ySxnUJqm06DFkovg3ujI1Vsi6LKu/yCb4pknRir+4bbJC6nVyN/b3Ed73dK4TN9Jvsj3u6Vwmb6TfZIDbZWuGfYb3DbZWuGfYb3Dei1XP78hH9ej5PfmT/vd0rhM30m+yPe7pXCZvpN9kgNtla4Z9hvcNtla4Z9hvcGi1XP78g/Xo+T35k/73dK4TN9Jvsj3u6Vwmc6TfZIDbZWuGfYb3FowTVZyqJOLOxvCeCViN+CiWvfVyHOWKpiYr1dqT33HWJ1JK9GIzb77zz+91S+EzfSb7I97ql8Jm+k32S5AT0iXmHdDg5SpQtj6isddz5uJxOiJb6kQlJTC1ElFvCp8JXa4l3r9q5Mg8ule7ap7bTQt1o1DFrGtSzURqakQ+2PoOZ2AAAAAAAAAAIHGejDU56PaQ5bc6ljX/AGzOej2kOVZi3hm5Xr+CFie+Tp+TO4uYZhmKJOuZ3FzDMMwBctmx2vjqLzDu0hNbIy2pEv5ynZcQexyt61F83XtITeyQtqPA85TsuJMvHNK0XAu8TntxcwzDMViTczuLmGYZgC5ncvGxr5NR5Yf4iiZi9bGS3ZUeWH+IUruHd4eo5QcQ3x9FLyADPGiAAAAAAAAAAAAAAAAAgMbaMMTnodtDk9zq+OF/Vec9DtocluXMM3K9fwQcU3ydPyZ3FzC4uUiaZ3FzC4uAFv2N1vW4vmy9ppN7JXxNL+cp2XEFsaLeuRuKWd2mk7smaKNL+cp2XEiXj2+BXh4B3ic4uLmFxcrkgzuLmFxcAM7l82L1u2o8Sw/xFAuX7Yt0tqXLD/EJ1/Du8PVBzD+Ib4+il8ABnTSAAAAAAAAAAAAAAAAAQ2KZSLPYfnJeA3NFc1HNTXZUW31HHHXa5WqioqbqKh3s5PjH/cEUq4dMrbst9SRicKLZ9yt5hmN4LGYj5TRmGY3gMwZSz7GbvHsfzd2//M0ndk5bUWXVdz3SnZcROx98axOYX1E1sifFMDn07KkeR161qlmNlqFydTmGYZjeCxmI2U0ZhmN4DMGU0Zi/7Fjvg1LRvwvxlHL5safsp7lZ+ITr3fx3e+0cw9v8hq+9hegAZ40YAAAAAAAAAAAAAAAAH//Z;" vertex="1" parent="1">
          <mxGeometry x="1703.73" y="1016.24" width="122.54" height="115.67" as="geometry" />
        </mxCell>
        <mxCell id="NnL7JSWlf4hrcEAEEY_L-17" value="&lt;font style=&quot;font-size: 18px;&quot;&gt;&lt;b&gt;Log Analytics&lt;/b&gt;&lt;/font&gt;" style="text;html=1;align=center;verticalAlign=middle;whiteSpace=wrap;rounded=0;" vertex="1" parent="1">
          <mxGeometry x="1666.49" y="971.41" width="190" height="48" as="geometry" />
        </mxCell>
        <mxCell id="NnL7JSWlf4hrcEAEEY_L-18" value="" style="endArrow=classic;html=1;rounded=0;entryX=1;entryY=0.5;entryDx=0;entryDy=0;strokeWidth=3;" edge="1" parent="1">
          <mxGeometry width="50" height="50" relative="1" as="geometry">
            <mxPoint x="2009.99" y="850" as="sourcePoint" />
            <mxPoint x="1849.99" y="850" as="targetPoint" />
          </mxGeometry>
        </mxCell>
        <mxCell id="NnL7JSWlf4hrcEAEEY_L-19" value="" style="shape=image;verticalLabelPosition=bottom;labelBackgroundColor=default;verticalAlign=top;aspect=fixed;imageAspect=0;image=https://symbols.getvecta.com/stencil_28/6_application-gateway.ab007e631b.png;" vertex="1" parent="1">
          <mxGeometry x="1055" y="1180" width="96.88" height="96.88" as="geometry" />
        </mxCell>
        <mxCell id="NnL7JSWlf4hrcEAEEY_L-20" value="" style="shape=image;verticalLabelPosition=bottom;labelBackgroundColor=default;verticalAlign=top;aspect=fixed;imageAspect=0;image=https://symbols.getvecta.com/stencil_28/6_application-gateway.ab007e631b.png;" vertex="1" parent="1">
          <mxGeometry x="1055" y="503.12" width="96.88" height="96.88" as="geometry" />
        </mxCell>
        <mxCell id="NnL7JSWlf4hrcEAEEY_L-21" value="" style="endArrow=classic;startArrow=classic;html=1;rounded=0;strokeWidth=3;strokeColor=#009900;dashed=1;" edge="1" parent="1" source="NnL7JSWlf4hrcEAEEY_L-19">
          <mxGeometry width="50" height="50" relative="1" as="geometry">
            <mxPoint x="1305.69" y="790" as="sourcePoint" />
            <mxPoint x="1105.0025" y="600" as="targetPoint" />
            <Array as="points">
              <mxPoint x="1105" y="900" />
            </Array>
          </mxGeometry>
        </mxCell>
        <mxCell id="NnL7JSWlf4hrcEAEEY_L-22" value="" style="endArrow=classic;html=1;rounded=0;exitX=-0.012;exitY=0.44;exitDx=0;exitDy=0;exitPerimeter=0;strokeWidth=3;strokeColor=#009900;dashed=1;" edge="1" parent="1">
          <mxGeometry width="50" height="50" relative="1" as="geometry">
            <mxPoint x="1681.49" y="850.4000000000001" as="sourcePoint" />
            <mxPoint x="1103.53" y="850" as="targetPoint" />
          </mxGeometry>
        </mxCell>
        <mxCell id="NnL7JSWlf4hrcEAEEY_L-23" value="&lt;font style=&quot;font-size: 18px;&quot;&gt;Application&amp;nbsp;&lt;/font&gt;&lt;div&gt;&lt;font style=&quot;font-size: 18px;&quot;&gt;Gateway&lt;/font&gt;&lt;/div&gt;" style="text;html=1;align=center;verticalAlign=middle;whiteSpace=wrap;rounded=0;" vertex="1" parent="1">
          <mxGeometry x="940" y="472" width="140" height="48" as="geometry" />
        </mxCell>
        <mxCell id="NnL7JSWlf4hrcEAEEY_L-24" value="&lt;font style=&quot;font-size: 18px;&quot;&gt;Application&amp;nbsp;&lt;/font&gt;&lt;div&gt;&lt;font style=&quot;font-size: 18px;&quot;&gt;Gateway&lt;/font&gt;&lt;/div&gt;" style="text;html=1;align=center;verticalAlign=middle;whiteSpace=wrap;rounded=0;" vertex="1" parent="1">
          <mxGeometry x="950" y="1140" width="140" height="48" as="geometry" />
        </mxCell>
        <mxCell id="NnL7JSWlf4hrcEAEEY_L-25" value="" style="shape=image;verticalLabelPosition=bottom;labelBackgroundColor=default;verticalAlign=top;aspect=fixed;imageAspect=0;image=data:image/png,iVBORw0KGgoAAAANSUhEUgAAAJQAAACUCAMAAABC4vDmAAAAnFBMVEX///9/ugCSxCZZtNlyv9+Qwx7p8tn8/fqcyT+VxjDp89zl8NWDvCF7uACFvgCJvy1xswDh7s7w9+P2+u5Erdbx9+eNwhDX6cDg7smCvBVhudzY6but0mzf7/d6uBTQ5LWv04GKvzaeykr0+vzQ6POBxeKiy2ePwkLp9PnE4vCTy+Wr0HfJ4au72Ymoz2KlzlrB3JWXxl2VxU+92pz+S5fVAAAIZUlEQVR4nM2c22KqOhBAQQ0KikXd4qWXbaut1ban7e7//9vhIphkZnJBkM5DHwBxdSUkmSToODXFbD6f9+u6WS0x/PjvaTAYfG6WbZMU0b/1xzFjnQ5j8bjz/it0ze7iBKgIFv83a5vIcQIWd4SIWdA6U4d1pGCdlqm8GDClRei1yYR4at2Vx1Cm9DlszRXhqVVXpKcWXQUqppSqBVceXXZFCV7dVSC3Bcz35SPxlV0BT2wcBGP52HVdQU+dieNMAOk1XSGehunxYYuuEE/D/MywNVcBqNHjYXEOuvKvQoXU5+H5LHQ1nl6BSeEpo2rBldpTRoW0Fg0zQU8T+ZrJlV2ZtY9Yy9oc09TAUxrA1XjUGJV5PyK5YmEYNdSKQk8x6imNidC+uq4bNuMK5AjKcRw/Aly5KVXYgCv43NGe0ji7Ym4WDbiy85R9onAVuiequl2BHEHjKY2Tq5VbRLiq1ZW9p+xT2axH6J6p6nSF5FJLp38O/lr+8DJ/8twmXCG5lJ9OR5XBfVPAH3/yucLLqdyaXKE5J+OCb0I98QxzpajJlTaX6vg8lC+ckplSqhpcaXJONdQKQiUleLErvScFFP/k1egK5AhWUBhS1jJc5MrEEw1FMF3oysgTCQWevFpceXIfbAWlYEp754qupmaeKCjsybvYlaknAkrNVNHVVB77WkJpmBKqyNoVGNNZQmmZKoz6QI5gCaWs5RVd2XjCoIyYLF1ZecKgzJisXIFcyhZK9+RVcGXpCUIZFl5OZTZCtqtPWUjzUxZMhq7QdSlVxPHd/Pzx+V1sxWTkCuZSPs5SIn0EYuIQbEJ0GFXGSjqtdSV7Yp3Fk3IF5gtZMp59qLDC/XIknta4kj2xeOEMaKj4aYjfZ/hIU4U3/aUErcwmQC7FFk6fhorfyDv130iqBMpZPkhUdOaFeVJAxV/cZ7f3u939ljvwFSmgHGNX0NOto4CKf8pP7o69dRa94+5MRbjKoJzFg3QUdyXnUizOtmNQUOey2z33ilh3u71DcfwOp8qhzFzB2dNbRwHFPk+P3fa4Lpl63ST+PL/mZ/p7PMPKoaArmE0QnkioYpX/vsfFupvHfX5uooRyJpFc2yVXlCcKKv5QMJVUG4yqhNK5knOp0hMF5ec9yyvP1OueIy/B+Q1CdYZKVMqtKD9/Q3oioApRfH3iRCX1Kj//oYZCXJVUM6o+0VD5ytQBL7w08mdwqoFCXJ32FPXvxH09jPOUnGVjGH5+7pkovCR6+RWjCEbId5fA1Ut+9lZiisXtYtMARl6jdkThZQWYt6LTCRJCHz6Re5y/2WFpUBffOoZxpJm63aPpXSRX4ShDHYtlZ7ytbvtMFl4S663+DnlIrqIU4COu5kloD4Cosq0yiIUAFW6SivzJKnlKqpSSqbvT36EIwVX43Xdm/MjSX5jfiYdCmLoH/R3KWI44qP3MmQ+4wvNtZkJ2SlFWUBMOyn2ci1DMt1iv3ymZbIrPEwbtCZRQfEmlIkbdSLyqCs+moovNelp8QkW3clU0Cbgo8yZB9JRVdKlJgPsM6DgqmMwbT5BEbBy58UypRFdTJPJeM+9mcKZTNzPDQvQkMeWNp9zNSK50HTIhyrRDlru+Uzcjd8iSK83QhWAyHboAT0WHLA9dRFeaQR5ReIaDPOCpHLqAQV7aMkyVUGxwGg5TosyGw4insKxxcJmR+UMV1DlxwJmKxAHLks9QkxFg4pM/uAhTuqJSrEBBdWLy1CmWB+ZmpGUIuFxVuNIlo6/Pf+T6VCSj/5RQQn938iR1vXAB9ORKn7YfhIq1LjtiYuLlBDWE9QkumVKu6AmOctJleziu/2SxPh7K3kU9wYHVJ2SIgrkKVFNBETcVtH29PxzuX7n+Tj0VhHjCJ4Pg9gOWjK9IKOZGb+TrKP03iimDQjxR02ZIy9AJqOnFdLI83FeaXjT3lLmCLYPvEROx+b3CL+QtmdmXeiLWwhPlaoAyFSsdYQimrJVzw0ms5Dlr3bYO06l9bqUjDF+4/nv6okHC3Omm9xUvU4DCK/91fhnEfLGoZNIvhBi5Er95xEOBdvpiT5kr/YKRtEx1EZTh4pp+aU267yVQxpvPdIuQcrW5AMpiwVbtCqwxVoeyWtpW1ivwyFeGstwEoHAFFxmrQllvlyBdIRu1KkJV2CJLbStB7l4NqsK2EsoVdvtKUBU3K2FbldDV/SpQlbd1wc1K+I6DB+5/Hj6gl9TkKQ2QeaFbJCPhfegfcshZh6fMlThmQJlW0nbrv/qhy4WbKgP5tQD4BWBEvNC5unBLpegK/QJkW/q72lUNG3XPmRdWy6Mf7DPo4mPJdPk23bMrjCn8Rj9CrB7X5SmN0wgZq+UrIsW6pbdK1LVNPstS0SfvhfoIpaq2TfK5K+wrIvLli3f8Caz11QsP3xS1In+vYY7PAtX7kkoAEkj3NA2PxwydWKz3FRVs2o2bNIXR/0Qur//FpwBMACih4CxeI6+IIVOU/yyKr5EXxFBXdEWXn76GXqVLXEk7ZtyIXFuSO+XGXjqErujGU6pSjXnKqCRXozl+nScOiivlCBZU0oLhBr/sRbyqSU8ZlegKG04l/bFQoxr2lFGJrkbI6u5ESB4a95RRicvQkEqcZ7147GsWnvSl7+JpMZ25IJeyC8lV+MI1V8tvsc5dx1Ma8qJ99O99MZxOh4ufvfQcXMtTGgHYteaObm5GoWrjX/PhYeMrOWrKEcwjcLVUteRSdqF1dXVPaWhcteApDaWrVjylgWYTBVNrPyDmUSVYY85pH4SrFj2lgWVeTeUI5oG4atlTGsDVlfsWPGbfPFYyZvgFPwiZZMPvbpR1xcmfaPT3V/x0Zhq3m+/94+P++/f8yGgW/fl8PqtL0v94LquReqda5gAAAABJRU5ErkJggg==;" vertex="1" parent="1">
          <mxGeometry x="790" y="506" width="90" height="90" as="geometry" />
        </mxCell>
        <mxCell id="NnL7JSWlf4hrcEAEEY_L-26" value="" style="shape=image;verticalLabelPosition=bottom;labelBackgroundColor=default;verticalAlign=top;aspect=fixed;imageAspect=0;image=data:image/png,iVBORw0KGgoAAAANSUhEUgAAAJQAAACUCAMAAABC4vDmAAAAnFBMVEX///9/ugCSxCZZtNlyv9+Qwx7p8tn8/fqcyT+VxjDp89zl8NWDvCF7uACFvgCJvy1xswDh7s7w9+P2+u5Erdbx9+eNwhDX6cDg7smCvBVhudzY6but0mzf7/d6uBTQ5LWv04GKvzaeykr0+vzQ6POBxeKiy2ePwkLp9PnE4vCTy+Wr0HfJ4au72Ymoz2KlzlrB3JWXxl2VxU+92pz+S5fVAAAIZUlEQVR4nM2c22KqOhBAQQ0KikXd4qWXbaut1ban7e7//9vhIphkZnJBkM5DHwBxdSUkmSToODXFbD6f9+u6WS0x/PjvaTAYfG6WbZMU0b/1xzFjnQ5j8bjz/it0ze7iBKgIFv83a5vIcQIWd4SIWdA6U4d1pGCdlqm8GDClRei1yYR4at2Vx1Cm9DlszRXhqVVXpKcWXQUqppSqBVceXXZFCV7dVSC3Bcz35SPxlV0BT2wcBGP52HVdQU+dieNMAOk1XSGehunxYYuuEE/D/MywNVcBqNHjYXEOuvKvQoXU5+H5LHQ1nl6BSeEpo2rBldpTRoW0Fg0zQU8T+ZrJlV2ZtY9Yy9oc09TAUxrA1XjUGJV5PyK5YmEYNdSKQk8x6imNidC+uq4bNuMK5AjKcRw/Aly5KVXYgCv43NGe0ji7Ym4WDbiy85R9onAVuiequl2BHEHjKY2Tq5VbRLiq1ZW9p+xT2axH6J6p6nSF5FJLp38O/lr+8DJ/8twmXCG5lJ9OR5XBfVPAH3/yucLLqdyaXKE5J+OCb0I98QxzpajJlTaX6vg8lC+ckplSqhpcaXJONdQKQiUleLErvScFFP/k1egK5AhWUBhS1jJc5MrEEw1FMF3oysgTCQWevFpceXIfbAWlYEp754qupmaeKCjsybvYlaknAkrNVNHVVB77WkJpmBKqyNoVGNNZQmmZKoz6QI5gCaWs5RVd2XjCoIyYLF1ZecKgzJisXIFcyhZK9+RVcGXpCUIZFl5OZTZCtqtPWUjzUxZMhq7QdSlVxPHd/Pzx+V1sxWTkCuZSPs5SIn0EYuIQbEJ0GFXGSjqtdSV7Yp3Fk3IF5gtZMp59qLDC/XIknta4kj2xeOEMaKj4aYjfZ/hIU4U3/aUErcwmQC7FFk6fhorfyDv130iqBMpZPkhUdOaFeVJAxV/cZ7f3u939ljvwFSmgHGNX0NOto4CKf8pP7o69dRa94+5MRbjKoJzFg3QUdyXnUizOtmNQUOey2z33ilh3u71DcfwOp8qhzFzB2dNbRwHFPk+P3fa4Lpl63ST+PL/mZ/p7PMPKoaArmE0QnkioYpX/vsfFupvHfX5uooRyJpFc2yVXlCcKKv5QMJVUG4yqhNK5knOp0hMF5ec9yyvP1OueIy/B+Q1CdYZKVMqtKD9/Q3oioApRfH3iRCX1Kj//oYZCXJVUM6o+0VD5ytQBL7w08mdwqoFCXJ32FPXvxH09jPOUnGVjGH5+7pkovCR6+RWjCEbId5fA1Ut+9lZiisXtYtMARl6jdkThZQWYt6LTCRJCHz6Re5y/2WFpUBffOoZxpJm63aPpXSRX4ShDHYtlZ7ytbvtMFl4S663+DnlIrqIU4COu5kloD4Cosq0yiIUAFW6SivzJKnlKqpSSqbvT36EIwVX43Xdm/MjSX5jfiYdCmLoH/R3KWI44qP3MmQ+4wvNtZkJ2SlFWUBMOyn2ci1DMt1iv3ymZbIrPEwbtCZRQfEmlIkbdSLyqCs+moovNelp8QkW3clU0Cbgo8yZB9JRVdKlJgPsM6DgqmMwbT5BEbBy58UypRFdTJPJeM+9mcKZTNzPDQvQkMeWNp9zNSK50HTIhyrRDlru+Uzcjd8iSK83QhWAyHboAT0WHLA9dRFeaQR5ReIaDPOCpHLqAQV7aMkyVUGxwGg5TosyGw4insKxxcJmR+UMV1DlxwJmKxAHLks9QkxFg4pM/uAhTuqJSrEBBdWLy1CmWB+ZmpGUIuFxVuNIlo6/Pf+T6VCSj/5RQQn938iR1vXAB9ORKn7YfhIq1LjtiYuLlBDWE9QkumVKu6AmOctJleziu/2SxPh7K3kU9wYHVJ2SIgrkKVFNBETcVtH29PxzuX7n+Tj0VhHjCJ4Pg9gOWjK9IKOZGb+TrKP03iimDQjxR02ZIy9AJqOnFdLI83FeaXjT3lLmCLYPvEROx+b3CL+QtmdmXeiLWwhPlaoAyFSsdYQimrJVzw0ms5Dlr3bYO06l9bqUjDF+4/nv6okHC3Omm9xUvU4DCK/91fhnEfLGoZNIvhBi5Er95xEOBdvpiT5kr/YKRtEx1EZTh4pp+aU267yVQxpvPdIuQcrW5AMpiwVbtCqwxVoeyWtpW1ivwyFeGstwEoHAFFxmrQllvlyBdIRu1KkJV2CJLbStB7l4NqsK2EsoVdvtKUBU3K2FbldDV/SpQlbd1wc1K+I6DB+5/Hj6gl9TkKQ2QeaFbJCPhfegfcshZh6fMlThmQJlW0nbrv/qhy4WbKgP5tQD4BWBEvNC5unBLpegK/QJkW/q72lUNG3XPmRdWy6Mf7DPo4mPJdPk23bMrjCn8Rj9CrB7X5SmN0wgZq+UrIsW6pbdK1LVNPstS0SfvhfoIpaq2TfK5K+wrIvLli3f8Caz11QsP3xS1In+vYY7PAtX7kkoAEkj3NA2PxwydWKz3FRVs2o2bNIXR/0Qur//FpwBMACih4CxeI6+IIVOU/yyKr5EXxFBXdEWXn76GXqVLXEk7ZtyIXFuSO+XGXjqErujGU6pSjXnKqCRXozl+nScOiivlCBZU0oLhBr/sRbyqSU8ZlegKG04l/bFQoxr2lFGJrkbI6u5ESB4a95RRicvQkEqcZ7147GsWnvSl7+JpMZ25IJeyC8lV+MI1V8tvsc5dx1Ma8qJ99O99MZxOh4ufvfQcXMtTGgHYteaObm5GoWrjX/PhYeMrOWrKEcwjcLVUteRSdqF1dXVPaWhcteApDaWrVjylgWYTBVNrPyDmUSVYY85pH4SrFj2lgWVeTeUI5oG4atlTGsDVlfsWPGbfPFYyZvgFPwiZZMPvbpR1xcmfaPT3V/x0Zhq3m+/94+P++/f8yGgW/fl8PqtL0v94LquReqda5gAAAABJRU5ErkJggg==;" vertex="1" parent="1">
          <mxGeometry x="790" y="1181.1200000000001" width="90" height="90" as="geometry" />
        </mxCell>
        <mxCell id="NnL7JSWlf4hrcEAEEY_L-32" value="" style="shape=image;verticalLabelPosition=bottom;labelBackgroundColor=default;verticalAlign=top;aspect=fixed;imageAspect=0;image=data:image/jpeg,/9j/4AAQSkZJRgABAQAAAQABAAD/2wCEAAkGBxESEhUSEREWFRUVEBAXGRUYGCAaHhgaFhUaFxcYFxcYHSohGRolGxUVITEhJSk3Li4uFx8zODMuNygtLisBCgoKDg0OGxAQGzclICUtLS0tLS0wNS0tLS0tNzctLS0tKy8tLS8tLS0tKy0tLS0tLy0tLS0tLS0tLS0tLS0tLf/AABEIANIA8AMBEQACEQEDEQH/xAAcAAADAQEBAQEBAAAAAAAAAAAAAwYFBwQCCAH/xABCEAABAwIBBQwIBgEEAwEAAAABAAIDBBEFBhIhMbEHIjIzNFFxcnOBkbITNUFCYXShs1Jig5KiwYIIFCPCRGOjQ//EABoBAAIDAQEAAAAAAAAAAAAAAAADAQIEBQb/xAA0EQACAgECBAMHAwUBAQEBAAAAAQIDMREyBBIhQQUzgVFhcZHB0fA0obETIkJy8eFSQxT/2gAMAwEAAhEDEQA/AO4oAEACABAHxPM1jXPe4Na1pc5zjYNAFySToAAF7qUm3ogJau3ScJi11bXnmja6T6sBH1To8Na+xPKydrt2ikbcQ008h53ZrAe+5P8AFOjwUu7J5Sdrt2isdxNNDH1i6Q/TMH0To8FWststyona/dHxWXXVlg5o2tZ4EDO+qdGiqOI/UnoJyexiqfU5z6mZzgx5BdK421arnQtVMYt6NdPgXh1Z0PD8tquLQ5wlbzPGnucNPebos8Opnjo/d9i7qiynw7dApX2EzXQnnO+b+5unxAXPt8Ltjs6/s/z1EulrBT0dZFK3Oika9vO1wOxc+dcoPSS0+ItprI9UIBAGZiOUNHT6J6qGM8z5Gg/tJurxrnLCDQnK7dUwqO4E7pSPZHG4+DnANPinR4S19tC3Kydrt2yIcRRSO+Mj2s+jA9OjwP8A9S+RPKT1fuw4i/i2QRD4NLyO9zrfxTo8JUs9SeVGE7LjE5pGCStlsZGaGERjS4aP+MBPhVWmtIr+f5LLTU6DQZaVcWhzhK3meNPc4WN+m6fb4dTPC0fu+w11RZT4dl/TP0TNdCefht8Wi/iFz7fC7Y7Hr+z/AD1EulrBT0dbFK3Oika9vO1wOzUufOucHpJafEW01keqEAgAQAIAEACABAAgAQAIAEAY+WPq+s+SqvtOTKfMj8USsn5swPCHVLnNa8NzWgkkX1m2gBd2MeYdGPMbcmSDWMc50znFrHHQ0N1An2kpn9LRZL/0uh5clMNila90jM4tc0DSRrHMDpUVQUtdSK4p5KSOghZwImD4hov4rSoxXYakkR+SnHjs3f0s1G4TXkrXLcPEuViD+RTPY7Ojc5jh7zSWnxGlDipLSS1XvDJQ4bugVkWh5bM3meLO7nt2kFYbfC6J7f7X7vt/wW6os6NkrlA2uiMrYyzNkLC0kHSGtdoI1izxrAXD4vhXw8+VvXVa/nyEThys/PuVtK6TFKqNls51ZMBfR7x1ldGha1xXuLRWuiGxZGS+/KxvQC7bZaVUxv8ASZ4KDCmOqnQPJLWl4uNBOb42VYwTlysqo/3aFNHgNM3VED1iXfQmy0qqK7DeSKJjEow2tzWgACWCwAsBoZqASJrSz5Cpbivetw8S5SB8xTOY7OY5zHD3mktPiNKlxUlpJaojJQ4bl/WRWDy2ZvM8Wd3PbtIKw2+F0T2/2v3fb/gt1RZc5LZYxVrzEI3xyCMvINi2wIBs4a9LhrAXI4vgJ8OuZvVa6fiEzrcepSrALBAAgAQAIAEACABAAgDHyx9X1nyVV9pyZT5kfiiVk4JkBxkvZs2legqyaassqcS4qTspPKU54Y14JrIfgS9dmwqlHcXUUTloQwhslOPHZu/pZKNwivJWuW4eJcrECnqQEuVgOpbkfJZfm3faiXnvGPOj/r9WZ7so5Rivrub56baU7htsQryiuct5qIvDvWMnWmSY+YJjvKl60oaQ+LcuPawbGLLPzPkIlvK163DxLlICXKxAp6sBW7lHLX/KS/ciXM8X/Tr/AGX8MVdt9Tra82ZgQAIAEACABAAgAQAIAx8sfV9Z8lVfacmU+ZH4olZOCZAcZL2bNpXoKsmmrLKnEuKk7KTylOeGNeCayH4EvXZsKpR3F1FE5aEMIbJTjx2bv6WSjcIryVrluHiXKxAp6kBLlYDqW5HyWX5t32ol57xjzo/6/Vme7KOUYr67m+em2lO4bbEK8ornLeaiLw71jJ1pkmPmCY7ypetKGkPi3Lj2sGxiyz8z5CJbytetw8S5SAlysQKerAVu5Ry1/wApL9yJczxf9Ov9l/DFXbfU62vNmYEACABAAgAQAIAEACAMfLH1fWfJVX2nJlPmR+KJWTgmQHGS9mzaV6CrJpqyypxLipOyk8pTnhjXgmsh+BL12bCqUdxdRROWhDCGyU48dm7+lko3CK8la5bh4lysQKepAS5WA6luR8ll+bd9qJee8Y86P+v1ZnuyjlGK+u5vnptpTuG2xCvKK5y3moi8O9YydaZJj5gmO8qXrShpD4ty49rBsYss/M+QiW8rXrcPEuUgJcrECnqwFbuUctf8pL9yJczxf9Ov9l/DFXbfU62vNmYEACABAAgAQAIAEACAMfLH1fWfJVX2nJlPmR+KJWTgmQHGS9mzaV6CrJpqyypxLipOyk8pTnhjXgmsh+BL12bCqUdxdRROWhDCGyU48dm7+lko3CK8la5bh4lysQKepAS5WA6luR8ll+bd9qJee8Y86P8Ar9WZ7so5Rivrub56baU7htsQryiuct5qIvDvWMnWmSY+YJjvKl60oaQ+LcuPawbGLLPzPkIlvK163DxLlICXKxAp6sBW7lHLX/KS/ciXM8X/AE6/2X8MVdt9Tra82ZgQAIAEACABAAgAQAIAx8sfV9Z8lVfacmU+ZH4olZPznkzi7KZzy9rnBzWje20WN/aQu7CXKx8JcpST5R00kbwHkExvADmkaS06L2t9U7+pFoZzxaM/IfgS9ZmwqKO5FRRuWlDCGyU48dm7+lko3CK8la5bh4lysQKeVZAbOFZH1lRYtizGH35N6O4Wzj3C3xWS7j6KsvV+xdf/AApKyKOn5IZP/wCxhdF6T0hdIXk2zQCWtbYC50b0Lz/GcV//AETUtNNFp+fMzznzM4NlDUtixiokdfNbWzE216yF0OHekIsvB6aM34coqV+qYDrAt+pFltVkTQpxJ7Cnh2IPLSCCZiCNII+BCpDzBcd5VvWlDSHxblx7WDYxZZ+Z8hEt5WvW4eJcpAS5WIG0OGzVDs2CJ0h9uaNA6zjob3lVsuhUtZvQhtLJ0bIPI+eklM8z2XdC5no26bZzmOuXarjMtYX161wvEOPrvh/Tgu+uvz7eoiyxSWiLhckSCABAAgAQAIAEACABAHnxCjZNFJC++ZLG+N1jY5r2lpsfYbEqYycWmgOZYjuKwHk9XKz4SNbIOje5h2rbHjX/AJItzExiO5DiUdzEYZh7A15Y4/4vAaP3J0eMreehPMiXxHJTEIONopm294MLwP8AOO7R4p8bYSwydUZ8OJSt4Mzxb2Zx2FOUpLuWUme/Jbj/ANN/9K9G8tXks6WilmdmxRueeZovbpOoD4la52QrWs3oObSyVOF7nkr7GokEY/C3fO7zwWnxXOu8VhHpWtfe8ff+BMrl2LLCMmqSmsY4hnD33b53cTwe6y5V3GXW9JPp7OwqU5Sya6zFAQBzDKfcjFTPLURVZY6WR7y18YcLuN7AtLSB03W2vi+WKi0WUiMxHcmxSO5Y2KYf+uSx8JQ0fVaI8XW89CeZEzXYBXUxvLSzx297Mdmj9Ru9+qfGyEtrLJnmgxiccGdx6Tnea6bzyXctzMI6h0k7HvN3GSK5tbUQNQ+ACE25JsjXVl09dE0mxheSFXPY+j9G0+9JvfBvCPhb4rJdx9NXfV+780FysiixwnICmjsZiZncx3rf2jX3krl3eKWz6Q/tX7/MTK1vBVQQtY0NY0NaNTWgADoA1Lmyk5PVvVitRigAQAIAEACABAAgAQAIAEAeeeuiYQ18rGkmwDnAEnmAJ0qyhJ4QaHoVQBAAgDwYlgtLUC1RTxS9djXW6CRoV4zlHa9A1MSDc7wxkvpWU2a6x0B7803/ACZ1hq1BOjxl0cMsptFNT07I2hsbGsaNTWgAeASJSlJ6yerIb1GKpAIAEAeOtxWnh0zTxx9d4btKZGqctsWyVFsdS1Ucrc6N7Xt52kEeIVZwlB6SWgNNZHKpAIAy8TycoqjTPSwyH8To2l3c61x4q8bJxwydSZq9yfDHODo2ywkODt5ISNBva0mcAOhPhxlkX7SVJlPheAU1PpiiGd+M7537jq6BoVbuKtt3Pp7OwSnKWTTWcqCABAH8c4AXJsOdAC6epZILxva8AkXaQdI1i49qlprIDVAAgAQAIAgMR3XcNjuGemmINt5Hm/WUtWqPB2PPQtysna7dsdqgoh8HSS7WNb/2To8D7ZE8pOV+6xisnBkih7OMX/8AqXp0eEqXvDlRPVmU1fObSVk77+6JHAfsZYfRNjVBYRbQ8uCMtUsuNOeb3Gm9je/xWivXnRaG46NQY1UwcVM5o/De7f2uuFos4eq3fH7/ADHOCeSmw7dFcNFRCHfmjNj+xxsfELBb4Sn5cvn9/wDwU6fYVWGZU0c9gyZocfcfvDfmAdwu665tvBXVbo9PauopwkjZWUoCAInKjdMo6GZ9O+OaSVmbnBjW2Gc0PG+c4exw1ArTXws5rm7EqJI127ZIbiCiaOZ0khPixrR5lojwS7styk7Xbq2KycGWOLs4xtkzk6PC1Lt8ydEYFVlFX1Gh9VUSflD3W/ayw+idGCW1fsWXuMqpgc079pDiL74WNu/T7Cry17g9e50Wmneyzo3uY6w3zSQfELe4xktJLU0aa5KHD8u6uLRJmzN/MM13c5v9grFb4ZTPb0/PYLlVF4KnDcvqSSwkzoXfmF29zm+z4kBc+3wu6HWPX4fYU6pLBTU1SyRodG9r2nU5pBHiFz5QlF6SWjFtaDVUgxMpcrKOgzP91IWGTPzAGOcXZmbncEEC2c3XbWm10zs2kpakXX7tFI24hpppD7C7Njae+7j/ABWiPBS7snlJ2v3Z6x3E00EXWLpD3EFg+ibHgoLLJ5Scr90XFZb51Y5gPsja1luhzW531Tlw9S7E6In62rmm300ssunQZHufp+BeTpTlFLC0JK3JKZ0cDHRucw3fpaS08M+0LZXFSr0ktfiPh1j1LTD8uquLRJmzN/MM13c5v9grPb4ZTPb0/PYVlVF4KjDcvaSSwkzoXfmF29zm+z4kBc63wy6HWPX4fYU6pLBTU1SyRodG9r2nU5pBHiFglCUXpJaMW1oNVSD8r4RhoqKh0ZcWj/kdcC+o6vqvQVx5ug+EdXoU8OSNM3hZ7+l1vKAnqqI1Vow8kaZj5JA9jXAMBGcAbb74qlKTfUpWk2VwYG6GgAcwFti1LoOImm5cfmJdrllj5vqIW8rXLcPEuViBL1KA9+G5RVdPYRTuDR7h3zegNdcDusk28JTbvj64ZVwi8nSMhMqZa30jZY2NdGIznNvZ2eXe6b2tm8/tXC8Q4KHD8ri8659wiyCjg5FuoR52MztOpz6RvjBEP7TuF8qP53Ij2PZFklSt1h7+s63lst6qiaf6cTClpY2Yg2NrAGBzN7rGmMH2/FU0Ss0F6Ln0K8i2gaFqQ8icsOPHYt8zllv3CLMlUNQ6BsW1DhTlYBTlYgKarkidnRSOY7na4tPfbWPgolCM1pJa/EGk8lzkRljVzVMdNMWyNf6TfltnDNY5w0tsDwbau9cjj+AphU7IdGtOnbOgiytJaoxv9QPDourWbYFi4HEvT6iokjhWScckTJHyv37Gus0AWv7Lm911I1prU0RrTWp4cq8KipxH6MHfekuSb3tm22lRZFR00InFLBUUlDE1rS2JgOa3SGi+rnWiMVpgakjHyz4pnajyuVb9qKWYGZN8nb0v8xV6NhNe09708uJcpICnqpInZ0UjmO52uLT321hEoRmtJLX4g0nkpsK3RKuMhsobM241jMd+5ot4tXPu8Kpl1j/b+6/PUVKqPYgMj+WO6kvmCpTkKslyVqQ8iMi+Nl6g8yTTliaslW9aRpD0vLj8xLtcssfN9RC3la5bh4lysQKepAS5WAvtyDh1PUp9si43jO2Hr9BN2EQe6V67l7Wi+zEk8J5cfzuUh2Kd66ZrIqs9ZjrR/aCS/MEveVLlpHETlhx47Fvmcst+4RZkqhqHQNi2ocKcrAKcrECXqwG9ue+sYP1vsvWLxH9LL0/lFLNrPR/qB4dF1azbAuLwOJen1M0TxYDyaHsWbF2YYRsjhE9l9qh/W/6Jd3Ypb2KKHgN6jdi0RwM7E/lnxTO1Hlcl37ULswMyb5O3pf5ir0bCa9p73p5cS5SQKcrALGsdI2qXgGZ+R/LHdSXzBcmnIqrJclakPIjIvjZeoPMk05YmrJVvWlDSHpeXH5iXa5ZY+b6iFvK1y3DxLlYgU9SAlysBfbkHDqepT7ZFxvGdsPX6CbsIg90r13L2tF9mJJ4Ty4/ncpDsU710zWRVZ6zHWj+0El+YJe8qXLSOInLDjx2LfM5Zb9wizJVDUOgbFtQ4U5WAU5WIEvVgN7c99YwfrfZesXiP6WXp/KKWbWej/UDw6Lq1m2BcXgcS9PqZoniwHk0PYs2LswwjZHCJ7L7VD+t/0S7uxS3sUUPAb1G7FojgZ2J/LPimdqPK5Lv2oXZgZk3ydvS/zFXo2E17T3vTy4lykgU5WAWNY6RtUvAMz8j+WO6kvmC5NORVWS5K1IeRGRfGy9QeZJpyxNWSretKGkPS8uPzEu1yyx831ELeVrluHiXKxAp6kBLlYC+3IOHU9Sn2yLjeM7Yev0E3YRB7pXruXtaL7MSTwnlx/O5SHYp3rpmsiqz1mOtH9oJL8wS95UuWkcROWHHjsW+Zyy37hFmSqGodA2LahwpysApysQJerAb2576xg/W+y9YvEf0svT+UUs2s9H+oHh0XVrNsC4vA4l6fUzRPFgPJoexZsXZhhGyOET2X2qH9b/ol3dilvYooeA3qN2LRHAzsT+WfFM7UeVyXftQuzAzJvk7el/mKvRsJr2nvenlxLlJApysAsax0japeAZn5H8sd1JfMFyaciqslyVqQ8iMi+Nl6g8yTTliaslW9aRpD0vLj8xLtcssfN9RC3la5bh4lysQKepAS5WAvtyDh1PUp9si43jO2Hr9BN2EQe6V67l7Wi+zEk8J5cfzuUh2Kd66ZrIqs9ZjrR/aCS/MEveVLlpHETlhx47Fvmcst+4RZkqhqHQNi2ocKcrAKcrECXqwG9ue+sYP1vsvWLxH9LL0/lFLNrPR/qB4dF1azbAuLwOJen1M0TxYDyaHsWbF2YYRsjhE9l9qh/W/6Jd3Ypb2KKHgN6jdi0RwM7E/lnxTO1Hlcl37ULswMyb5O3pf5ir0bCa9p73p5cS5SQKcrALGsdI2qXgGT2GYkaed0gbncNtr21nnseZceEuXqIjLlepTQZYwnhsezwcPpp+ierV3Gq1GTkbI0SyXIF2C1za++9l1Wl9SleSuctaHEPS8uPzEu1yyR831ELeVrluHiXKxAsgkgAXJNgBrPwAU46gUGE5C1k9i5ohYfbJr7mDTfpssN3iVFfRPmfu+/21FytijoeSuS0VCH5j3PfIGZzjYDe3tmtGob46yVxOL42XEtarRLAic3I4luqSFuMVDhra6lIvziCI/0tnC+VH87kxwfEGWp/wD0h72u/oj+1sVvtQ5W+0zXYnG+tbPpazOZwhpFmZum1/ao5k56leZOWpWR4jC/gysPwzhfwWlTi+47mTJHLDjh2LfM5Z79wmzJVjUOgbFtQ8U5WAU5WIN3Cciqyoscz0TD70mjwZwvEAfFYrvEaKumur933wUlZFF5k3kPBSPbKXuklbezjvWi4LTZg+BOslcfivEbL4uGmkfzv9tBErHLoQ3+oHh0XVrNsCOBxL0+pWJHYVlY2ONkb4jZjQ3Oa4G9vgbW8V1I2aLQ0Rs0Wh5MqsWiqBH6O+99JcEWtfNt8PYVFklLTQick8FVSVUbmtzZGu3rdTgfZ8Fpi00NTWhi5Z8UztR5XKl+1FLMDMm+Tt6X+Yq9Gwmvae96eXEuUkHow7CaioNoInP06wLNHS870eKpbfXUtZvT89hDklkscH3NDodVTW1HMj/t7h9AO9cu7xdYqj6v7f8AomV3sNTE9y7C5iSIHRON9MT3N/iSW/RcyPF2L3iuZkviO4o3XT1rh+WVgd/JhbsTo8cv8o/InmRLYluUYpFfNjjmH/rkF/CQNT48TVLvp8SdUTdZhFbS8ZBPDb25rmj9w3v1T4y12v5Flr2FYJJnVEZJuS8km97kg3JKZXvRMdx0KgwueoNoYnP06wNA6XHQPFa7L66l/e9Pz2D3JLJV4Xudk2NTLb8kf9vcNg71zbvFu1a9X9hErvYWOF4JTU4/4YmtNuFrcelx0nxXKt4i23e9f4+QqUm8mgklQQBP45kVh9W4yVFM10jrXkBLHGwAF3MIJsABp5k2F9kOiZOrJHEdxikdcwVE0R9gdmyNHdYOP7lojxs1lak8xMYjuN1zNMM0Mw+OdG7uBDh/JOjxsHlaE8xLYjkTiUHGUUtudg9KOn/iLrDpTo31yxL6E6owJBmktIzXDW06COkHSE3sSdOw+glms2GNzzYahoGj2nUO8rfO2Fa1m9DS5JZKvC9zx7rGplDB+Bmk97joHcCudd4rFdK1r739v+CZXLsWOFYBTU3ExNDvxnfO/cdPcNC5d3FW2736dvkJlNvJprOVBAGRlBk1SVoaKqESZmdmm5BbnWzrFpB05rfBNrunXtJT0IvEdxqifphmmiPMSHj6i/1WmPHP/KP0+5bn9xL4juNVrLmGeGUcxvGf7H1T48ZW89CeZEtiWQ2JQX9JRSED2sAkH/zJTo2QliS/PiSYUxe3ePzhY8F1xb/E6kx6k9SwyZBNOwAXJc+wGs746gttPSGo6G0scMyKq5rFzRC3nfr7mDTfpss93iNNfRPV+77/APSJWxRX4VkLSRWMgMzvz8HuYNFum65d3iV0+kf7V7s/P7aCZWyeCnjYGgBoAAGgAWA6AsDbb1Yo+lAAgAQAIAEAZlTk9RyPEklLC54Nw4xtv42umxvtjiTJ5maLGAAAAADUBoA7kttt6sg+lAAgBc87GDOe4NHO4gDxKEtQPBQZQ0c7zHDVQyvAuWska63s90pjqmlq0ydDTSyAQAIAEAeauw6GdubNDHK3mewOHg4K0ZOOGA2CFrGhrGhrQNDWiwHQAolJyerYDFAAgAQB8ueBa5AudFzr6FKTeAPpQAIAEACAPNWUEMwtLEyQcz2h20K8bJx2vQlNrAnDMFpqcWp4I4734LQNZue74KZ3WT6SeoOTZ70sgEACABAAgAQAIAEAeHGsVipYX1ExIjjALiASdLg0WA0nSQrQg5vlQHPa/dppW39BSzSHneWxg94Lj9FrjwUu7LcpNYhuy1z+JggiHxzpD43aP4p0eCgstsnlRN4hl7ik18+tkAPsjtFb4AxgH6p0aKo4ROiMKYSzH0j/AEkpAJL3Zz9GskuN9CdGOi6InQ2ckBv5Oo3atHD5YyrJd0GU9XBwJi5v4X78dGnSB0EKbOCpszH5dC8q4vsU+HbozDYVEJb+aM3HSWnSB0Ern2+EvNcvn+fYU6fYVWGY5TVHEzNcfw3s79jrH6LnW8NbVvjp/HzFOLWTRSCoIAia/dUwqK4Ez5CL6I43Hwc4Bp8Vpjwlj7FuVk7XbtkQ4iikd8ZHtZ9GB6dHgf8A6kTyk9XbsOIv4tkEQ6pe4d7nW/inR4OtZ6k8qJyuy6xObQ+tlF/YwiP7YCdGquOIr8+JJ4MMme+pjMj3POfre4uOo+1xutFTfMkXi3qdIoMo6uDi5nFo912+HRZ2odFk6zhKbN0fl0GOEX2KbDt0YaBUQkfmjNx+x2kDvK59vhL/APzl6P7inT7CqwzH6Wo0RTNcfwneu/a6xXOt4W2rfH7fMU4NZNNZyoIAEACABAAgAQAIAEACABAEnureqqrqxfeYn8N5qJWTh2TOBR1LXue5wzXAWbbTcX1kFduEFI0QgpGpi+T9PFBI9rDnBuhxcT7R7L2+iZKEVEtKCSDJCBhgzixud6RwzrC/s9qtSloTWuho4txMvYy+UpstrLSwyayQ4cnUbtSeHyxVWSjetaHCnKyIEuVgNjDcsK2CwbMXtHuyb8eJ3w7istvAUW5jp8On/n7FHXFnVslcWdV0rJ3NDXOMgIBuN69zbi/Pm3715zi6FRa609dNP3WpmnHleh+asKw7/cTmPOzb55va+o81wuvCOvQbGOr0KeHI6AcJ73d4A+gv9U5VIaqkY+S9HG+aRr2Bwa02B0+9ZVqinLqUgk2VjKdjOAxreqANi1JJYHaJEXT8uPzEu1yyx831ELeVrluHiXqyIFPClAauG5WVtPoZOXNHuSb8dGnSB0ELNbwNFuY+q6FXXFnRsiMqnVwkD4gx0QjuWm4dn52oEXbwOc61w+P4JcNo09U9f2/6Z7IcpULniwQAIAEACABAAgAQAIAk91b1VVdWL7zE/hvNRKycjyB4uXtG+Vd6ruaqsGnlLyaXqf2Eyzay89rM7I/k/wCq/YFFO0rXg92LcTL2MvlKbLay0sMmskOHJ1G7Unh8sVVko3rWhwpysiBLlYBTlIHY9zX1fF1p/vPXmPFP1MvT+EZbdxwnJDln+My6NWUMryXhWpGgiskOPm6p86TTuYmvLKl61IaQ9Py4/MS7XLJHzfUQt5WuW4eJerIgU5SAlysBf7j/AAqrq022VcbxrbD1+gi7COlLgiAQAIAEACABAAgAQAIAk91b1VVdWL7zE/hvNRKycjyB4uXtG+Vd6ruaqsGnlLyaXqf2Eye1l57WZ2R/J/1X/wBKKdpWvB7sW4mXsZfKU2W1lpYZNZIcOTqN2pPD5YqrJRvWtDhTlYgS5WAU5SB2Pc19Xxdaf7z15jxT9TL0/hGW3ccJyQ5Z/jMujVlDK8l4VqNBFZIcfN1T50mncxNeWVL1qQ0h6flx+Yl2uWSPm+ohbytctw8S5WRApykBLlYC/wBx/hVXVptsq43jW2Hr9BF2EdKXBEAgAQAIAEACABAAgAQBJ7q3qqq6sX3mJ/DeaiVk5HkDxcvaN8q71Xc1VYNPKXk0vU/sJlm1l57WZ2R/J/1X7Aop2la8HuxbiZexl8pTZbWWlhk1khw5Oo3ak8PliqslG9a0OFOVkQJcrAKcpA7Hua+r4utP9568x4p+pl6fwjLbuOE5Ics/xmXRqyhleS8K1GgiskOPm6p86TTuYmvLKl61IaQ9Py4/MS7XLJHzfUQt5WuW4eJerIgU5SAlysBf7j/CqurTbZVxvGtsPX6CLsI6UuCIBAAgAQAIAEACABAAgCT3VvVVV1YvvMT+G81ErJyPIHi5e0b5V3qu5qqwaeUvJpep/YTLNrLz2szsj+T/AKr9gUU7SteD3YtxMvYy+UpstrLSwyayQ4cnUbtSeHyxVWSjetaHCnKyIEuVgFOUgdj3NfV8XWn+89eY8U/Uy9P4Rlt3HCckOWf4zLo1ZQyvJeFajQRWSHHzdU+dJp3MTXllS9akNIen5cfmJdrlkj5vqIW8rXLcPEvVkQKcpAS5WAv9x/hVXVptsq43jW2Hr9BF2EdKXBEAgAQAIAEACABAAgAQBJ7q3qqq6sX3mJ/DeaiVk4NgWPOpg4CMPDiCdNjoFtdjsXahPlHxnymniWU8U0L48x7XObYaiNY9t7/RXlYmtCzsTWg3JStibDmOka13pHGxcAdNudXqkktCa2tDUxNwMEpBB/4ZdWn3CnS2su8Mm8kOHJ1G7Unh8sVVko3rWhwpysQfVJRSzOzIY3SO5mi9uk6gPiVE7IVrWb0BtLJW4TubTPs6pkEQ/AzfO6C7gtPiuZd4vCPSta+99F9/4EyuXY6Hg+GR00LYYr5jc61zc3c4uJJ6SVxLrpXTc5ZYiUnJ6s/MOE4j/t5zJm51s8WvbWeexXbhLTqOjLR6lTBlfTu4QezpFx/Ek/RPVsRqsRj5JzsE0pLgA5ptc2vv76LqlTXMylb6laTfUtSHEPT8uPzEu1yyx831ELeVrluHiXKyIFOUgbeFZF1tRY+j9Ew+9JvfBts4+Fvisl3iFFXTXV+774KSsijo2SGSraEPIldI+QMzjYBu8zrZrdJHCOsn2Lh8Zxr4lrpolr+//DPOfMUSwlAQAIAEACABAAgAQAIA8+IUMU8bopmNkjeAHMcLg2NxcdIB7lMZOL1QEXiO5Jhkl8xssB545CfpLnC3QtMeMsWepbmZLYluKSC5p6xruZsrC3xewnyp0eNX+SJ5iXxHcyxWH/xxKPxRPa7+Ls1x8E+PE1Pv8ydUTFbQzQG00MkJOj/kY5l/hvgLp0ZJ4ZJrZIHfSdRu1auHyxtWS+wzJarqLFseY38cm9HcNZ7hZTbxtNWXq/YupaVkUV+Fbn9Oyzp3GZ3NwW+ANz3m3wXLu8Usl0gtP3YmVzeCspqZkbQyNjWNGprQAPALmynKb1k9WKb1GqpAIA59iW5Dh0lzGZoSSTvH5w7xKHHwIWqPGWLPUtzMl8R3FZxc09XG/mbIws/k0uv4J8eNj/kieYl8R3N8VhvelMgHvROa/wAG3D/4p0eJql3J1ROVEE1ObSMlgdzPa6M/yAKfGWu1/IlP2DsFcTURkm5LySTpvcHSSmV70WjuL+joJZnZsMbnn8o0DpOpveVsnbCtazeg9ySyVOF7nkjrGplDB+Bml3e46AegFc67xWK6VrX3v7f8EyuXYssJyepabTFE0O/Gd879x0joGhcq7irbd8uns7CZTcsmos5UEACABAAgAQAIAEACABAAgAQAIAEACAP49oIsQCD7CgDIpsFpY6gvjpoWPMdy5sbWknO13AvdN/qz5dNXp8SdWbCUQCABAAgAQAIAEACAPmSMOFnAEHWCLjwKAOc5XYJSR1dMY6aFhdOzOLY2tvfXew03W/h7J+1l4tnRYYWsAaxoa0ag0WA6AFhlJyerepTXU+1AAgAQAIAEACABAAgAQB//2Q==;" vertex="1" parent="1">
          <mxGeometry x="540" y="504.88" width="104.13" height="91.12" as="geometry" />
        </mxCell>
        <mxCell id="NnL7JSWlf4hrcEAEEY_L-33" value="" style="shape=image;verticalLabelPosition=bottom;labelBackgroundColor=default;verticalAlign=top;aspect=fixed;imageAspect=0;image=data:image/jpeg,/9j/4AAQSkZJRgABAQAAAQABAAD/2wCEAAkGBxESEhUSEREWFRUVEBAXGRUYGCAaHhgaFhUaFxcYFxcYHSohGRolGxUVITEhJSk3Li4uFx8zODMuNygtLisBCgoKDg0OGxAQGzclICUtLS0tLS0wNS0tLS0tNzctLS0tKy8tLS8tLS0tKy0tLS0tLy0tLS0tLS0tLS0tLS0tLf/AABEIANIA8AMBEQACEQEDEQH/xAAcAAADAQEBAQEBAAAAAAAAAAAAAwYFBwQCCAH/xABCEAABAwIBBQwIBgEEAwEAAAABAAIDBBEFBhIhMbEHIjIzNFFxcnOBkbITNUFCYXShs1Jig5KiwYIIFCPCRGOjQ//EABoBAAIDAQEAAAAAAAAAAAAAAAADAQIEBQb/xAA0EQACAgECBAMHAwUBAQEBAAAAAQIDMREyBBIhQQUzgVFhcZHB0fA0obETIkJy8eFSQxT/2gAMAwEAAhEDEQA/AO4oAEACABAHxPM1jXPe4Na1pc5zjYNAFySToAAF7qUm3ogJau3ScJi11bXnmja6T6sBH1To8Na+xPKydrt2ikbcQ008h53ZrAe+5P8AFOjwUu7J5Sdrt2isdxNNDH1i6Q/TMH0To8FWststyona/dHxWXXVlg5o2tZ4EDO+qdGiqOI/UnoJyexiqfU5z6mZzgx5BdK421arnQtVMYt6NdPgXh1Z0PD8tquLQ5wlbzPGnucNPebos8Opnjo/d9i7qiynw7dApX2EzXQnnO+b+5unxAXPt8Ltjs6/s/z1EulrBT0dZFK3Oika9vO1wOxc+dcoPSS0+ItprI9UIBAGZiOUNHT6J6qGM8z5Gg/tJurxrnLCDQnK7dUwqO4E7pSPZHG4+DnANPinR4S19tC3Kydrt2yIcRRSO+Mj2s+jA9OjwP8A9S+RPKT1fuw4i/i2QRD4NLyO9zrfxTo8JUs9SeVGE7LjE5pGCStlsZGaGERjS4aP+MBPhVWmtIr+f5LLTU6DQZaVcWhzhK3meNPc4WN+m6fb4dTPC0fu+w11RZT4dl/TP0TNdCefht8Wi/iFz7fC7Y7Hr+z/AD1EulrBT0dbFK3Oika9vO1wOzUufOucHpJafEW01keqEAgAQAIAEACABAAgAQAIAEAY+WPq+s+SqvtOTKfMj8USsn5swPCHVLnNa8NzWgkkX1m2gBd2MeYdGPMbcmSDWMc50znFrHHQ0N1An2kpn9LRZL/0uh5clMNila90jM4tc0DSRrHMDpUVQUtdSK4p5KSOghZwImD4hov4rSoxXYakkR+SnHjs3f0s1G4TXkrXLcPEuViD+RTPY7Ojc5jh7zSWnxGlDipLSS1XvDJQ4bugVkWh5bM3meLO7nt2kFYbfC6J7f7X7vt/wW6os6NkrlA2uiMrYyzNkLC0kHSGtdoI1izxrAXD4vhXw8+VvXVa/nyEThys/PuVtK6TFKqNls51ZMBfR7x1ldGha1xXuLRWuiGxZGS+/KxvQC7bZaVUxv8ASZ4KDCmOqnQPJLWl4uNBOb42VYwTlysqo/3aFNHgNM3VED1iXfQmy0qqK7DeSKJjEow2tzWgACWCwAsBoZqASJrSz5Cpbivetw8S5SB8xTOY7OY5zHD3mktPiNKlxUlpJaojJQ4bl/WRWDy2ZvM8Wd3PbtIKw2+F0T2/2v3fb/gt1RZc5LZYxVrzEI3xyCMvINi2wIBs4a9LhrAXI4vgJ8OuZvVa6fiEzrcepSrALBAAgAQAIAEACABAAgDHyx9X1nyVV9pyZT5kfiiVk4JkBxkvZs2legqyaassqcS4qTspPKU54Y14JrIfgS9dmwqlHcXUUTloQwhslOPHZu/pZKNwivJWuW4eJcrECnqQEuVgOpbkfJZfm3faiXnvGPOj/r9WZ7so5Rivrub56baU7htsQryiuct5qIvDvWMnWmSY+YJjvKl60oaQ+LcuPawbGLLPzPkIlvK163DxLlICXKxAp6sBW7lHLX/KS/ciXM8X/Tr/AGX8MVdt9Tra82ZgQAIAEACABAAgAQAIAx8sfV9Z8lVfacmU+ZH4olZOCZAcZL2bNpXoKsmmrLKnEuKk7KTylOeGNeCayH4EvXZsKpR3F1FE5aEMIbJTjx2bv6WSjcIryVrluHiXKxAp6kBLlYDqW5HyWX5t32ol57xjzo/6/Vme7KOUYr67m+em2lO4bbEK8ornLeaiLw71jJ1pkmPmCY7ypetKGkPi3Lj2sGxiyz8z5CJbytetw8S5SAlysQKerAVu5Ry1/wApL9yJczxf9Ov9l/DFXbfU62vNmYEACABAAgAQAIAEACAMfLH1fWfJVX2nJlPmR+KJWTgmQHGS9mzaV6CrJpqyypxLipOyk8pTnhjXgmsh+BL12bCqUdxdRROWhDCGyU48dm7+lko3CK8la5bh4lysQKepAS5WA6luR8ll+bd9qJee8Y86P+v1ZnuyjlGK+u5vnptpTuG2xCvKK5y3moi8O9YydaZJj5gmO8qXrShpD4ty49rBsYss/M+QiW8rXrcPEuUgJcrECnqwFbuUctf8pL9yJczxf9Ov9l/DFXbfU62vNmYEACABAAgAQAIAEACAMfLH1fWfJVX2nJlPmR+KJWTgmQHGS9mzaV6CrJpqyypxLipOyk8pTnhjXgmsh+BL12bCqUdxdRROWhDCGyU48dm7+lko3CK8la5bh4lysQKepAS5WA6luR8ll+bd9qJee8Y86P8Ar9WZ7so5Rivrub56baU7htsQryiuct5qIvDvWMnWmSY+YJjvKl60oaQ+LcuPawbGLLPzPkIlvK163DxLlICXKxAp6sBW7lHLX/KS/ciXM8X/AE6/2X8MVdt9Tra82ZgQAIAEACABAAgAQAIAx8sfV9Z8lVfacmU+ZH4olZPznkzi7KZzy9rnBzWje20WN/aQu7CXKx8JcpST5R00kbwHkExvADmkaS06L2t9U7+pFoZzxaM/IfgS9ZmwqKO5FRRuWlDCGyU48dm7+lko3CK8la5bh4lysQKeVZAbOFZH1lRYtizGH35N6O4Wzj3C3xWS7j6KsvV+xdf/AApKyKOn5IZP/wCxhdF6T0hdIXk2zQCWtbYC50b0Lz/GcV//AETUtNNFp+fMzznzM4NlDUtixiokdfNbWzE216yF0OHekIsvB6aM34coqV+qYDrAt+pFltVkTQpxJ7Cnh2IPLSCCZiCNII+BCpDzBcd5VvWlDSHxblx7WDYxZZ+Z8hEt5WvW4eJcpAS5WIG0OGzVDs2CJ0h9uaNA6zjob3lVsuhUtZvQhtLJ0bIPI+eklM8z2XdC5no26bZzmOuXarjMtYX161wvEOPrvh/Tgu+uvz7eoiyxSWiLhckSCABAAgAQAIAEACABAHnxCjZNFJC++ZLG+N1jY5r2lpsfYbEqYycWmgOZYjuKwHk9XKz4SNbIOje5h2rbHjX/AJItzExiO5DiUdzEYZh7A15Y4/4vAaP3J0eMreehPMiXxHJTEIONopm294MLwP8AOO7R4p8bYSwydUZ8OJSt4Mzxb2Zx2FOUpLuWUme/Jbj/ANN/9K9G8tXks6WilmdmxRueeZovbpOoD4la52QrWs3oObSyVOF7nkr7GokEY/C3fO7zwWnxXOu8VhHpWtfe8ff+BMrl2LLCMmqSmsY4hnD33b53cTwe6y5V3GXW9JPp7OwqU5Sya6zFAQBzDKfcjFTPLURVZY6WR7y18YcLuN7AtLSB03W2vi+WKi0WUiMxHcmxSO5Y2KYf+uSx8JQ0fVaI8XW89CeZEzXYBXUxvLSzx297Mdmj9Ru9+qfGyEtrLJnmgxiccGdx6Tnea6bzyXctzMI6h0k7HvN3GSK5tbUQNQ+ACE25JsjXVl09dE0mxheSFXPY+j9G0+9JvfBvCPhb4rJdx9NXfV+780FysiixwnICmjsZiZncx3rf2jX3krl3eKWz6Q/tX7/MTK1vBVQQtY0NY0NaNTWgADoA1Lmyk5PVvVitRigAQAIAEACABAAgAQAIAEAeeeuiYQ18rGkmwDnAEnmAJ0qyhJ4QaHoVQBAAgDwYlgtLUC1RTxS9djXW6CRoV4zlHa9A1MSDc7wxkvpWU2a6x0B7803/ACZ1hq1BOjxl0cMsptFNT07I2hsbGsaNTWgAeASJSlJ6yerIb1GKpAIAEAeOtxWnh0zTxx9d4btKZGqctsWyVFsdS1Ucrc6N7Xt52kEeIVZwlB6SWgNNZHKpAIAy8TycoqjTPSwyH8To2l3c61x4q8bJxwydSZq9yfDHODo2ywkODt5ISNBva0mcAOhPhxlkX7SVJlPheAU1PpiiGd+M7537jq6BoVbuKtt3Pp7OwSnKWTTWcqCABAH8c4AXJsOdAC6epZILxva8AkXaQdI1i49qlprIDVAAgAQAIAgMR3XcNjuGemmINt5Hm/WUtWqPB2PPQtysna7dsdqgoh8HSS7WNb/2To8D7ZE8pOV+6xisnBkih7OMX/8AqXp0eEqXvDlRPVmU1fObSVk77+6JHAfsZYfRNjVBYRbQ8uCMtUsuNOeb3Gm9je/xWivXnRaG46NQY1UwcVM5o/De7f2uuFos4eq3fH7/ADHOCeSmw7dFcNFRCHfmjNj+xxsfELBb4Sn5cvn9/wDwU6fYVWGZU0c9gyZocfcfvDfmAdwu665tvBXVbo9PauopwkjZWUoCAInKjdMo6GZ9O+OaSVmbnBjW2Gc0PG+c4exw1ArTXws5rm7EqJI127ZIbiCiaOZ0khPixrR5lojwS7styk7Xbq2KycGWOLs4xtkzk6PC1Lt8ydEYFVlFX1Gh9VUSflD3W/ayw+idGCW1fsWXuMqpgc079pDiL74WNu/T7Cry17g9e50Wmneyzo3uY6w3zSQfELe4xktJLU0aa5KHD8u6uLRJmzN/MM13c5v9grFb4ZTPb0/PYLlVF4KnDcvqSSwkzoXfmF29zm+z4kBc+3wu6HWPX4fYU6pLBTU1SyRodG9r2nU5pBHiFz5QlF6SWjFtaDVUgxMpcrKOgzP91IWGTPzAGOcXZmbncEEC2c3XbWm10zs2kpakXX7tFI24hpppD7C7Njae+7j/ABWiPBS7snlJ2v3Z6x3E00EXWLpD3EFg+ibHgoLLJ5Scr90XFZb51Y5gPsja1luhzW531Tlw9S7E6In62rmm300ssunQZHufp+BeTpTlFLC0JK3JKZ0cDHRucw3fpaS08M+0LZXFSr0ktfiPh1j1LTD8uquLRJmzN/MM13c5v9grPb4ZTPb0/PYVlVF4KjDcvaSSwkzoXfmF29zm+z4kBc63wy6HWPX4fYU6pLBTU1SyRodG9r2nU5pBHiFglCUXpJaMW1oNVSD8r4RhoqKh0ZcWj/kdcC+o6vqvQVx5ug+EdXoU8OSNM3hZ7+l1vKAnqqI1Vow8kaZj5JA9jXAMBGcAbb74qlKTfUpWk2VwYG6GgAcwFti1LoOImm5cfmJdrllj5vqIW8rXLcPEuViBL1KA9+G5RVdPYRTuDR7h3zegNdcDusk28JTbvj64ZVwi8nSMhMqZa30jZY2NdGIznNvZ2eXe6b2tm8/tXC8Q4KHD8ri8659wiyCjg5FuoR52MztOpz6RvjBEP7TuF8qP53Ij2PZFklSt1h7+s63lst6qiaf6cTClpY2Yg2NrAGBzN7rGmMH2/FU0Ss0F6Ln0K8i2gaFqQ8icsOPHYt8zllv3CLMlUNQ6BsW1DhTlYBTlYgKarkidnRSOY7na4tPfbWPgolCM1pJa/EGk8lzkRljVzVMdNMWyNf6TfltnDNY5w0tsDwbau9cjj+AphU7IdGtOnbOgiytJaoxv9QPDourWbYFi4HEvT6iokjhWScckTJHyv37Gus0AWv7Lm911I1prU0RrTWp4cq8KipxH6MHfekuSb3tm22lRZFR00InFLBUUlDE1rS2JgOa3SGi+rnWiMVpgakjHyz4pnajyuVb9qKWYGZN8nb0v8xV6NhNe09708uJcpICnqpInZ0UjmO52uLT321hEoRmtJLX4g0nkpsK3RKuMhsobM241jMd+5ot4tXPu8Kpl1j/b+6/PUVKqPYgMj+WO6kvmCpTkKslyVqQ8iMi+Nl6g8yTTliaslW9aRpD0vLj8xLtcssfN9RC3la5bh4lysQKepAS5WAvtyDh1PUp9si43jO2Hr9BN2EQe6V67l7Wi+zEk8J5cfzuUh2Kd66ZrIqs9ZjrR/aCS/MEveVLlpHETlhx47Fvmcst+4RZkqhqHQNi2ocKcrAKcrECXqwG9ue+sYP1vsvWLxH9LL0/lFLNrPR/qB4dF1azbAuLwOJen1M0TxYDyaHsWbF2YYRsjhE9l9qh/W/6Jd3Ypb2KKHgN6jdi0RwM7E/lnxTO1Hlcl37ULswMyb5O3pf5ir0bCa9p73p5cS5SQKcrALGsdI2qXgGZ+R/LHdSXzBcmnIqrJclakPIjIvjZeoPMk05YmrJVvWlDSHpeXH5iXa5ZY+b6iFvK1y3DxLlYgU9SAlysBfbkHDqepT7ZFxvGdsPX6CbsIg90r13L2tF9mJJ4Ty4/ncpDsU710zWRVZ6zHWj+0El+YJe8qXLSOInLDjx2LfM5Zb9wizJVDUOgbFtQ4U5WAU5WIEvVgN7c99YwfrfZesXiP6WXp/KKWbWej/UDw6Lq1m2BcXgcS9PqZoniwHk0PYs2LswwjZHCJ7L7VD+t/0S7uxS3sUUPAb1G7FojgZ2J/LPimdqPK5Lv2oXZgZk3ydvS/zFXo2E17T3vTy4lykgU5WAWNY6RtUvAMz8j+WO6kvmC5NORVWS5K1IeRGRfGy9QeZJpyxNWSretKGkPS8uPzEu1yyx831ELeVrluHiXKxAp6kBLlYC+3IOHU9Sn2yLjeM7Yev0E3YRB7pXruXtaL7MSTwnlx/O5SHYp3rpmsiqz1mOtH9oJL8wS95UuWkcROWHHjsW+Zyy37hFmSqGodA2LahwpysApysQJerAb2576xg/W+y9YvEf0svT+UUs2s9H+oHh0XVrNsC4vA4l6fUzRPFgPJoexZsXZhhGyOET2X2qH9b/ol3dilvYooeA3qN2LRHAzsT+WfFM7UeVyXftQuzAzJvk7el/mKvRsJr2nvenlxLlJApysAsax0japeAZn5H8sd1JfMFyaciqslyVqQ8iMi+Nl6g8yTTliaslW9aRpD0vLj8xLtcssfN9RC3la5bh4lysQKepAS5WAvtyDh1PUp9si43jO2Hr9BN2EQe6V67l7Wi+zEk8J5cfzuUh2Kd66ZrIqs9ZjrR/aCS/MEveVLlpHETlhx47Fvmcst+4RZkqhqHQNi2ocKcrAKcrECXqwG9ue+sYP1vsvWLxH9LL0/lFLNrPR/qB4dF1azbAuLwOJen1M0TxYDyaHsWbF2YYRsjhE9l9qh/W/6Jd3Ypb2KKHgN6jdi0RwM7E/lnxTO1Hlcl37ULswMyb5O3pf5ir0bCa9p73p5cS5SQKcrALGsdI2qXgGT2GYkaed0gbncNtr21nnseZceEuXqIjLlepTQZYwnhsezwcPpp+ierV3Gq1GTkbI0SyXIF2C1za++9l1Wl9SleSuctaHEPS8uPzEu1yyR831ELeVrluHiXKxAsgkgAXJNgBrPwAU46gUGE5C1k9i5ohYfbJr7mDTfpssN3iVFfRPmfu+/21FytijoeSuS0VCH5j3PfIGZzjYDe3tmtGob46yVxOL42XEtarRLAic3I4luqSFuMVDhra6lIvziCI/0tnC+VH87kxwfEGWp/wD0h72u/oj+1sVvtQ5W+0zXYnG+tbPpazOZwhpFmZum1/ao5k56leZOWpWR4jC/gysPwzhfwWlTi+47mTJHLDjh2LfM5Z79wmzJVjUOgbFtQ8U5WAU5WIN3Cciqyoscz0TD70mjwZwvEAfFYrvEaKumur933wUlZFF5k3kPBSPbKXuklbezjvWi4LTZg+BOslcfivEbL4uGmkfzv9tBErHLoQ3+oHh0XVrNsCOBxL0+pWJHYVlY2ONkb4jZjQ3Oa4G9vgbW8V1I2aLQ0Rs0Wh5MqsWiqBH6O+99JcEWtfNt8PYVFklLTQick8FVSVUbmtzZGu3rdTgfZ8Fpi00NTWhi5Z8UztR5XKl+1FLMDMm+Tt6X+Yq9Gwmvae96eXEuUkHow7CaioNoInP06wLNHS870eKpbfXUtZvT89hDklkscH3NDodVTW1HMj/t7h9AO9cu7xdYqj6v7f8AomV3sNTE9y7C5iSIHRON9MT3N/iSW/RcyPF2L3iuZkviO4o3XT1rh+WVgd/JhbsTo8cv8o/InmRLYluUYpFfNjjmH/rkF/CQNT48TVLvp8SdUTdZhFbS8ZBPDb25rmj9w3v1T4y12v5Flr2FYJJnVEZJuS8km97kg3JKZXvRMdx0KgwueoNoYnP06wNA6XHQPFa7L66l/e9Pz2D3JLJV4Xudk2NTLb8kf9vcNg71zbvFu1a9X9hErvYWOF4JTU4/4YmtNuFrcelx0nxXKt4i23e9f4+QqUm8mgklQQBP45kVh9W4yVFM10jrXkBLHGwAF3MIJsABp5k2F9kOiZOrJHEdxikdcwVE0R9gdmyNHdYOP7lojxs1lak8xMYjuN1zNMM0Mw+OdG7uBDh/JOjxsHlaE8xLYjkTiUHGUUtudg9KOn/iLrDpTo31yxL6E6owJBmktIzXDW06COkHSE3sSdOw+glms2GNzzYahoGj2nUO8rfO2Fa1m9DS5JZKvC9zx7rGplDB+Bmk97joHcCudd4rFdK1r739v+CZXLsWOFYBTU3ExNDvxnfO/cdPcNC5d3FW2736dvkJlNvJprOVBAGRlBk1SVoaKqESZmdmm5BbnWzrFpB05rfBNrunXtJT0IvEdxqifphmmiPMSHj6i/1WmPHP/KP0+5bn9xL4juNVrLmGeGUcxvGf7H1T48ZW89CeZEtiWQ2JQX9JRSED2sAkH/zJTo2QliS/PiSYUxe3ePzhY8F1xb/E6kx6k9SwyZBNOwAXJc+wGs746gttPSGo6G0scMyKq5rFzRC3nfr7mDTfpss93iNNfRPV+77/APSJWxRX4VkLSRWMgMzvz8HuYNFum65d3iV0+kf7V7s/P7aCZWyeCnjYGgBoAAGgAWA6AsDbb1Yo+lAAgAQAIAEAZlTk9RyPEklLC54Nw4xtv42umxvtjiTJ5maLGAAAAADUBoA7kttt6sg+lAAgBc87GDOe4NHO4gDxKEtQPBQZQ0c7zHDVQyvAuWska63s90pjqmlq0ydDTSyAQAIAEAeauw6GdubNDHK3mewOHg4K0ZOOGA2CFrGhrGhrQNDWiwHQAolJyerYDFAAgAQB8ueBa5AudFzr6FKTeAPpQAIAEACAPNWUEMwtLEyQcz2h20K8bJx2vQlNrAnDMFpqcWp4I4734LQNZue74KZ3WT6SeoOTZ70sgEACABAAgAQAIAEAeHGsVipYX1ExIjjALiASdLg0WA0nSQrQg5vlQHPa/dppW39BSzSHneWxg94Lj9FrjwUu7LcpNYhuy1z+JggiHxzpD43aP4p0eCgstsnlRN4hl7ik18+tkAPsjtFb4AxgH6p0aKo4ROiMKYSzH0j/AEkpAJL3Zz9GskuN9CdGOi6InQ2ckBv5Oo3atHD5YyrJd0GU9XBwJi5v4X78dGnSB0EKbOCpszH5dC8q4vsU+HbozDYVEJb+aM3HSWnSB0Ern2+EvNcvn+fYU6fYVWGY5TVHEzNcfw3s79jrH6LnW8NbVvjp/HzFOLWTRSCoIAia/dUwqK4Ez5CL6I43Hwc4Bp8Vpjwlj7FuVk7XbtkQ4iikd8ZHtZ9GB6dHgf8A6kTyk9XbsOIv4tkEQ6pe4d7nW/inR4OtZ6k8qJyuy6xObQ+tlF/YwiP7YCdGquOIr8+JJ4MMme+pjMj3POfre4uOo+1xutFTfMkXi3qdIoMo6uDi5nFo912+HRZ2odFk6zhKbN0fl0GOEX2KbDt0YaBUQkfmjNx+x2kDvK59vhL/APzl6P7inT7CqwzH6Wo0RTNcfwneu/a6xXOt4W2rfH7fMU4NZNNZyoIAEACABAAgAQAIAEACABAEnureqqrqxfeYn8N5qJWTh2TOBR1LXue5wzXAWbbTcX1kFduEFI0QgpGpi+T9PFBI9rDnBuhxcT7R7L2+iZKEVEtKCSDJCBhgzixud6RwzrC/s9qtSloTWuho4txMvYy+UpstrLSwyayQ4cnUbtSeHyxVWSjetaHCnKyIEuVgNjDcsK2CwbMXtHuyb8eJ3w7istvAUW5jp8On/n7FHXFnVslcWdV0rJ3NDXOMgIBuN69zbi/Pm3715zi6FRa609dNP3WpmnHleh+asKw7/cTmPOzb55va+o81wuvCOvQbGOr0KeHI6AcJ73d4A+gv9U5VIaqkY+S9HG+aRr2Bwa02B0+9ZVqinLqUgk2VjKdjOAxreqANi1JJYHaJEXT8uPzEu1yyx831ELeVrluHiXqyIFPClAauG5WVtPoZOXNHuSb8dGnSB0ELNbwNFuY+q6FXXFnRsiMqnVwkD4gx0QjuWm4dn52oEXbwOc61w+P4JcNo09U9f2/6Z7IcpULniwQAIAEACABAAgAQAIAk91b1VVdWL7zE/hvNRKycjyB4uXtG+Vd6ruaqsGnlLyaXqf2Eyzay89rM7I/k/wCq/YFFO0rXg92LcTL2MvlKbLay0sMmskOHJ1G7Unh8sVVko3rWhwpysiBLlYBTlIHY9zX1fF1p/vPXmPFP1MvT+EZbdxwnJDln+My6NWUMryXhWpGgiskOPm6p86TTuYmvLKl61IaQ9Py4/MS7XLJHzfUQt5WuW4eJerIgU5SAlysBf7j/AAqrq022VcbxrbD1+gi7COlLgiAQAIAEACABAAgAQAIAk91b1VVdWL7zE/hvNRKycjyB4uXtG+Vd6ruaqsGnlLyaXqf2Eye1l57WZ2R/J/1X/wBKKdpWvB7sW4mXsZfKU2W1lpYZNZIcOTqN2pPD5YqrJRvWtDhTlYgS5WAU5SB2Pc19Xxdaf7z15jxT9TL0/hGW3ccJyQ5Z/jMujVlDK8l4VqNBFZIcfN1T50mncxNeWVL1qQ0h6flx+Yl2uWSPm+ohbytctw8S5WRApykBLlYC/wBx/hVXVptsq43jW2Hr9BF2EdKXBEAgAQAIAEACABAAgAQBJ7q3qqq6sX3mJ/DeaiVk5HkDxcvaN8q71Xc1VYNPKXk0vU/sJlm1l57WZ2R/J/1X7Aop2la8HuxbiZexl8pTZbWWlhk1khw5Oo3ak8PliqslG9a0OFOVkQJcrAKcpA7Hua+r4utP9568x4p+pl6fwjLbuOE5Ics/xmXRqyhleS8K1GgiskOPm6p86TTuYmvLKl61IaQ9Py4/MS7XLJHzfUQt5WuW4eJerIgU5SAlysBf7j/CqurTbZVxvGtsPX6CLsI6UuCIBAAgAQAIAEACABAAgCT3VvVVV1YvvMT+G81ErJyPIHi5e0b5V3qu5qqwaeUvJpep/YTLNrLz2szsj+T/AKr9gUU7SteD3YtxMvYy+UpstrLSwyayQ4cnUbtSeHyxVWSjetaHCnKyIEuVgFOUgdj3NfV8XWn+89eY8U/Uy9P4Rlt3HCckOWf4zLo1ZQyvJeFajQRWSHHzdU+dJp3MTXllS9akNIen5cfmJdrlkj5vqIW8rXLcPEvVkQKcpAS5WAv9x/hVXVptsq43jW2Hr9BF2EdKXBEAgAQAIAEACABAAgAQBJ7q3qqq6sX3mJ/DeaiVk4NgWPOpg4CMPDiCdNjoFtdjsXahPlHxnymniWU8U0L48x7XObYaiNY9t7/RXlYmtCzsTWg3JStibDmOka13pHGxcAdNudXqkktCa2tDUxNwMEpBB/4ZdWn3CnS2su8Mm8kOHJ1G7Unh8sVVko3rWhwpysQfVJRSzOzIY3SO5mi9uk6gPiVE7IVrWb0BtLJW4TubTPs6pkEQ/AzfO6C7gtPiuZd4vCPSta+99F9/4EyuXY6Hg+GR00LYYr5jc61zc3c4uJJ6SVxLrpXTc5ZYiUnJ6s/MOE4j/t5zJm51s8WvbWeexXbhLTqOjLR6lTBlfTu4QezpFx/Ek/RPVsRqsRj5JzsE0pLgA5ptc2vv76LqlTXMylb6laTfUtSHEPT8uPzEu1yyx831ELeVrluHiXKyIFOUgbeFZF1tRY+j9Ew+9JvfBts4+Fvisl3iFFXTXV+774KSsijo2SGSraEPIldI+QMzjYBu8zrZrdJHCOsn2Lh8Zxr4lrpolr+//DPOfMUSwlAQAIAEACABAAgAQAIA8+IUMU8bopmNkjeAHMcLg2NxcdIB7lMZOL1QEXiO5Jhkl8xssB545CfpLnC3QtMeMsWepbmZLYluKSC5p6xruZsrC3xewnyp0eNX+SJ5iXxHcyxWH/xxKPxRPa7+Ls1x8E+PE1Pv8ydUTFbQzQG00MkJOj/kY5l/hvgLp0ZJ4ZJrZIHfSdRu1auHyxtWS+wzJarqLFseY38cm9HcNZ7hZTbxtNWXq/YupaVkUV+Fbn9Oyzp3GZ3NwW+ANz3m3wXLu8Usl0gtP3YmVzeCspqZkbQyNjWNGprQAPALmynKb1k9WKb1GqpAIA59iW5Dh0lzGZoSSTvH5w7xKHHwIWqPGWLPUtzMl8R3FZxc09XG/mbIws/k0uv4J8eNj/kieYl8R3N8VhvelMgHvROa/wAG3D/4p0eJql3J1ROVEE1ObSMlgdzPa6M/yAKfGWu1/IlP2DsFcTURkm5LySTpvcHSSmV70WjuL+joJZnZsMbnn8o0DpOpveVsnbCtazeg9ySyVOF7nkjrGplDB+Bml3e46AegFc67xWK6VrX3v7f8EyuXYssJyepabTFE0O/Gd879x0joGhcq7irbd8uns7CZTcsmos5UEACABAAgAQAIAEACABAAgAQAIAEACAP49oIsQCD7CgDIpsFpY6gvjpoWPMdy5sbWknO13AvdN/qz5dNXp8SdWbCUQCABAAgAQAIAEACAPmSMOFnAEHWCLjwKAOc5XYJSR1dMY6aFhdOzOLY2tvfXew03W/h7J+1l4tnRYYWsAaxoa0ag0WA6AFhlJyerepTXU+1AAgAQAIAEACABAAgAQB//2Q==;" vertex="1" parent="1">
          <mxGeometry x="540" y="1178.88" width="104.13" height="91.12" as="geometry" />
        </mxCell>
        <mxCell id="NnL7JSWlf4hrcEAEEY_L-34" value="&lt;span style=&quot;font-size: 18px;&quot;&gt;Load&lt;/span&gt;&lt;div&gt;&lt;span style=&quot;font-size: 18px;&quot;&gt;Balancer&lt;/span&gt;&lt;/div&gt;" style="text;html=1;align=center;verticalAlign=middle;whiteSpace=wrap;rounded=0;" vertex="1" parent="1">
          <mxGeometry x="690" y="458" width="140" height="48" as="geometry" />
        </mxCell>
        <mxCell id="NnL7JSWlf4hrcEAEEY_L-35" value="&lt;span style=&quot;font-size: 18px;&quot;&gt;Load&lt;/span&gt;&lt;div&gt;&lt;span style=&quot;font-size: 18px;&quot;&gt;Balancer&lt;/span&gt;&lt;/div&gt;" style="text;html=1;align=center;verticalAlign=middle;whiteSpace=wrap;rounded=0;" vertex="1" parent="1">
          <mxGeometry x="690" y="1140" width="140" height="48" as="geometry" />
        </mxCell>
        <mxCell id="NnL7JSWlf4hrcEAEEY_L-36" value="&lt;span style=&quot;font-size: 18px;&quot;&gt;Kubernetes&lt;/span&gt;&lt;div&gt;&lt;span style=&quot;font-size: 18px;&quot;&gt;Services&lt;/span&gt;&lt;/div&gt;" style="text;html=1;align=center;verticalAlign=middle;whiteSpace=wrap;rounded=0;" vertex="1" parent="1">
          <mxGeometry x="430" y="470.88" width="140" height="48" as="geometry" />
        </mxCell>
        <mxCell id="NnL7JSWlf4hrcEAEEY_L-37" value="&lt;span style=&quot;font-size: 18px;&quot;&gt;Kubernetes&lt;/span&gt;&lt;div&gt;&lt;span style=&quot;font-size: 18px;&quot;&gt;Services&lt;/span&gt;&lt;/div&gt;" style="text;html=1;align=center;verticalAlign=middle;whiteSpace=wrap;rounded=0;" vertex="1" parent="1">
          <mxGeometry x="430" y="1148.88" width="140" height="48" as="geometry" />
        </mxCell>
        <mxCell id="NnL7JSWlf4hrcEAEEY_L-39" value="" style="endArrow=classic;html=1;rounded=0;strokeWidth=3;dashed=1;strokeColor=#009900;" edge="1" parent="1">
          <mxGeometry width="50" height="50" relative="1" as="geometry">
            <mxPoint x="1040" y="547.2900000000001" as="sourcePoint" />
            <mxPoint x="890" y="548" as="targetPoint" />
          </mxGeometry>
        </mxCell>
        <mxCell id="NnL7JSWlf4hrcEAEEY_L-40" value="" style="endArrow=classic;html=1;rounded=0;strokeWidth=3;dashed=1;strokeColor=#009900;" edge="1" parent="1">
          <mxGeometry width="50" height="50" relative="1" as="geometry">
            <mxPoint x="780" y="550.5600000000001" as="sourcePoint" />
            <mxPoint x="650" y="550.83" as="targetPoint" />
          </mxGeometry>
        </mxCell>
        <mxCell id="NnL7JSWlf4hrcEAEEY_L-41" value="" style="endArrow=classic;html=1;rounded=0;strokeWidth=3;dashed=1;strokeColor=#009900;" edge="1" parent="1">
          <mxGeometry width="50" height="50" relative="1" as="geometry">
            <mxPoint x="1040" y="1224.73" as="sourcePoint" />
            <mxPoint x="890" y="1225" as="targetPoint" />
          </mxGeometry>
        </mxCell>
        <mxCell id="NnL7JSWlf4hrcEAEEY_L-42" value="" style="endArrow=classic;html=1;rounded=0;strokeWidth=3;dashed=1;strokeColor=#009900;" edge="1" parent="1">
          <mxGeometry width="50" height="50" relative="1" as="geometry">
            <mxPoint x="780" y="1224.56" as="sourcePoint" />
            <mxPoint x="650" y="1225" as="targetPoint" />
          </mxGeometry>
        </mxCell>
        <mxCell id="NnL7JSWlf4hrcEAEEY_L-45" value="" style="shape=image;verticalLabelPosition=bottom;labelBackgroundColor=default;verticalAlign=top;aspect=fixed;imageAspect=0;image=data:image/jpeg,/9j/4AAQSkZJRgABAQAAAQABAAD/2wCEAAkGBwgHBgkIBwgKCgkLDRYPDQwMDRsUFRAWIB0iIiAdHx8kKDQsJCYxJx8fLT0tMTU3Ojo6Iys/RD84QzQ5OjcBCgoKDQwNGg8PGjclHyU3Nzc3Nzc3Nzc3Nzc3Nzc3Nzc3Nzc3Nzc3Nzc3Nzc3Nzc3Nzc3Nzc3Nzc3Nzc3Nzc3N//AABEIAKMArQMBIgACEQEDEQH/xAAbAAEAAgMBAQAAAAAAAAAAAAAAAgUEBgcDAf/EAEAQAAEDAwAFCAcGBgEFAAAAAAEAAgMEBRESITE0QQYzUWFxcrHBEyIyc4GRoRQVNVLR8AdCQ1RikyQjU4KS4f/EABoBAQACAwEAAAAAAAAAAAAAAAAFBgEDBAL/xAAnEQEAAgEEAQIGAwAAAAAAAAAAAQMCBBEhMRIFUSIyQWGRoRMUQv/aAAwDAQACEQMRAD8A7iiIgIiICidq8K6rhooHz1MgjjaNbj4LQb5ylqLi50UBdBS8Gj2n9v6Loo02d08de7RdfjVHPba7nymt9A5zA8zzDUWRa8HrOwLXavllXSlwpo4oG8DjTI+er6LWQeg5CZUtXoacO43lHZ6uzLqdlnJf7tIcmvl/8cN8F5i83MHIr6rPXIVgZTK6Iqrj/Mfho/kzn6reHlHdojvrndT2hytqLlpMHAVtK17fzRHB+R2rUspleM9LTn3i9432Y9S6pbLtR3ME0s4c8bYzqc34LPGxceZI+J4kjc5jxse04IW4cn+VnpHClurgHHUyfYD1O6CozUaDLD4sOYd1OsjLjPiW5IvjdYyvqj3cIiICIiAiIgIiIC8qiWOGJ8szg2NjS5xOwBeh2rSeXl1y5tshcMDD5/Jvn8luoqm2yMYarrYqwnJSX+8zXeqLsObTsP8A02dXSetVaicHYisWGGOGMY49ILLOcp3lJFFF7eUkUUQSRRRBJB0A7eBUUQbryOvxfo26tfl2P+jIeP8AievoW5N2LjUbzG8PY4te0gtI2g9K6pyfuQutriqdQk9mUDg8bf1+Khdfp4wn+THqUro75zjwy7hZIiKOd4iIgIiIPh2qsuN9t1uc5tRUN9IP6bPWd8h5rTb5ytqa57obe51PT7NPY9/b+Udi1nSzrJyTtUnR6dOUb2Tt9kddr4idq+W71XLoaWKWhc7Owyvx9APNahV1MlZUy1M3tyuLisfKZUlVp66vkhwWX2WfNKaKGUyt7UmihlMoJooZTKCaKGUygmihlMoJFbX/AA/rfR109G93qys02g/mH6jwWpZVnyZn9Bf6F/TLof8At6vmtGpw86sobaM/C3GXWBsX1fG6gvqrSwCIiAiIg4lkDYmVHKZVsVjdLKZUcplGd0splRymUN0splRymTwQ3SypMY959QfEr2hpdIB0p+CzoYNNjiPVDVHaj1DHD4a+Zd9Giyz5z4hgywtjp5HZy7HyVe2d2rSGetWtXj7NLg59UqqpYhNUMjJxpEjV2FRn9q7y8vLlI/16vHx8Xo2VjuOCvTPXlRq6B9NEZS9rmjidRWMHOadS7avU56sj8OOz0+O8JZeVKKV0M0c0btGSNwc13QRrCxWzg+1tXoHh2sKQr1FVvGMuGyiyv5obZQ8t7hC7FXDFUM4keoVtVo5SW+6kMik9HOf6Umons6VyvKaRB1HHWtNugpz6jaW2vW24Tzy7cF9WhcluVcgkjobo8uY71Y53HWD0O/Vb2zZw+ChrqM6cvHJLU3Y24+WKSIi0trh2Uyo5TKtyrpZTKjlMoJZTKjlMoJZTOtRyh2Iw2G36w7sCnR81L++CjbvZd3Qp0fNS/vgqlPa0R0rardZe75Kut2/w9p8CrGq3WXu+Srrdv8PafAoytLruTu8PFYFoaH1DmuAI9GdvaFn3Xcnd4eKwbNvTvdnxCwJXamigDHxM0STghYkFNJOHGJmkGYyM9Ksr1zcXeK87J7M/w80GA4yxHRcHA8Q4a19EoOorLvfPx9w+KjRUTKindIXua4OIyNnDh8V1Vay6vqd4+7ms0lVncPEYxqGo7V0HkLfXVkRt1U7M0TcxuP8AOzo7Qud1EJpp3RZyRxXtbq+W3V8FUz24nh2B/MOI+IyumzWVaiucbI2n6OevS2UZ+WE7w7aNi+rX7VystFwLWCf0Ep2Rzer8jsV+0gjIOQoxIuFZTKjlMq3qrullMqOUyhullMqOUyhullFHK+E6ijG7aLd7J7oU6Pmpf3wXjRSsja4v4gALxa9waWhxAO1o4qoz2tUdPGq3WXu+SraF7WVcbnnDQfIr0ut2oqJj2TzD0hHsNy4j4cFUQ3OilwGzNDjwcdHxRlstxmjloXGN7XAuGsHPFYlmyKp2f+2fEKvaWuGWEEdRXrTzup5C9jsEjGzKwLS9c3F3ivOyezP8PNYtTWOqY2MfG3IOche9omih9I2R4aXluCerKBfOej7vmsm0bofeHwCxL05rpIyw5bo6jnPFZln3Y+8PkgwLrvz+weCsaONklBEJGB2RsIVbc9+k7B4K1t+5xd1BR1TQ2eVrRgBxGPmu3W78PpvdN8AuI1e8zd93mu3W78PpvdN8Ag4ZlMqOUyrgqSWUyo5TKCWUyo5TKCWUOMaz8FHKbevqQZtffqKiHo9L00w/pxnWO0rWrhfq+tJY15hjOrRiOCfjt+S2OK2unAMzWtb1jOpZ9FaaeFxkpqeMPaNcmBkKsaiquudsct1lotzsjfLHZpNJyeralplkZ6GLBIdJqJ+G35qMlinGdF8b/mCt8q92l1YOicqlwuZ0NX+76ynORG8dbCT4KTa+ugOi6Zx/xlGVspQgEYcMhBSR3qUc5C09bSQsuK80z9UjXxnrbnwWRJRUz/6LB1gYXg+0wO1tL2/HIWRkx1dNJ7EzCejS1rOp6yambox4cw69EhUL7OdrJWHvNwvMUVZBriLgP8HoL+plM8xlIwXY1ZVtb6mD7PGwyNa8DBBOCtNFVXxc4C4f5tXrHdSdUkOOthWBb1e8zd4+a7bbvw+m903wC4TSStrpBBSslkmdsjjjJJ69S7vQNLKKBrgQ5sbQQeBwg4dX0dVb6p9NXROjmbtB4jpHSF4Art94tNFd4PQ10DZAPZdnDmnpBGsLQbv/AA/rYXF9smbVRbRHIQ1/z2H6Kw6f1KuyNs+J/SA1Hp9mE74cx+2nZTK96y311E5wraOohI2l8ZA+ezxWLpA+zsUhExMbwj5iY4lPKZUNJNJZY3TyhOpQ0kyhu26hY17DpDJDQQvWi5mTVg//ABQt/Mv7oU6PmZP3wVOy7W+OldVbrL3fJV1u3+HtPgVY1W6y93yVdbt/h7T4FYZWd1H/AA3do8VX2uJks7mSM0m+jOo9oVjddyd3h4rBs29O92fEIJXSlhp2MdCMEnBGcrxt9IypEnrlpbjYOnKzb1zcXeK87J7M/wAPNBh1tN9ke1umX5GckYSGimnhD4tE68YJwcrJvnPR93zWVZt2PvD5IKaWN8Ty2Vui4bdag+lD26ToAR0mNZl036TsHgrW37lF3UHlaeVFxtEIhpYqUQj+UwBoPbo4XWqSQy0sMjhhz2BxA4EjK4dV7zN33Lt1u/D6b3TfAIMhERB8cARrGepYsluoZHaUlHTvd0uiaT4LLRZiZjpiYie2F91W7+wpf9Lf0T7qt39hS/6G/os1Fnyy92PDH2YX3Vbv7Cl/0N/RfPuu3cKCl/0t/RZy+FPLL3PDH2czY0Nmq2tGAHEY6NZUaPmZP3wUmn/kVXed4lRouYk/fBeXpXVW6y93yVdbt/h7T4FWNVusvd8lXW7f4e0+BQWl13J3eHisGzb073Z8Qs667k7vDxWDZt6d7s+IQZN65uLvFedk9mf4ea9L1zcXeK8bPJGxs5e9rdntHHSg+Xzno+75rKs27H3h8lhXWZk0zPRvDwBjISjr208DozG5xLicg4HBBC6b9J2DwVrb9yj7v6qkqZ/tU5k0dEO4KTK6oYxsccmiGjUBtQRrd6m75Xbbd+H03um+AXG4bTdK7LoaKplL/wCb0ZA+exdloWujo4GPGi5sbQR0HCD3REQEREBERAXw9a+og1688mIKwuloyIJzrOr1XHr6FqU0FTbZXwVUBYTsJO3rB4rpy8KylgrITFUxNkYeDgg5NU5+yyA8GlVVNN6GdsmM6Ov6Fb7eeSNQGv8Au0iVjhgMecObnr4qtpf4fXCTDqmrpogduiC8jw8UGuVdwdUROiETWgniclYsc0kLi6N2C4Y2ZXRKX+H1AzH2irqZT0NwweZ+qt6XknY6Y5bQRyEcZSX/AEOpByQvmqCGkySuPDOforCl5PXiqx6C21Ovi9mgPm7C7DBBBTsxBFHG38rGgD6L1CDmFLyCu8uDPJTQDiHP0j8gMfVW9L/DuAEGsuEsg/LFGGfU5W8og12l5GWOnIP2V0rvzSSE5+GcfRXFLbqKk3WkgiPSyMArKRB8C+oiAiIgIiICIiAiIgIiICIiAiIgIiICIiAiIgIiIP/Z;" vertex="1" parent="1">
          <mxGeometry x="1468.51" y="1270" width="84.91" height="80" as="geometry" />
        </mxCell>
        <mxCell id="NnL7JSWlf4hrcEAEEY_L-46" value="&lt;font style=&quot;font-size: 18px;&quot;&gt;ACR Replica&lt;/font&gt;" style="text;html=1;align=center;verticalAlign=middle;whiteSpace=wrap;rounded=0;" vertex="1" parent="1">
          <mxGeometry x="1422.46" y="1222" width="180" height="48" as="geometry" />
        </mxCell>
        <mxCell id="NnL7JSWlf4hrcEAEEY_L-47" value="" style="shape=image;verticalLabelPosition=bottom;labelBackgroundColor=default;verticalAlign=top;aspect=fixed;imageAspect=0;image=data:image/jpeg,/9j/4AAQSkZJRgABAQAAAQABAAD/2wCEAAkGBwgHBgkIBwgKCgkLDRYPDQwMDRsUFRAWIB0iIiAdHx8kKDQsJCYxJx8fLT0tMTU3Ojo6Iys/RD84QzQ5OjcBCgoKDQwNGg8PGjclHyU3Nzc3Nzc3Nzc3Nzc3Nzc3Nzc3Nzc3Nzc3Nzc3Nzc3Nzc3Nzc3Nzc3Nzc3Nzc3Nzc3N//AABEIAKMArQMBIgACEQEDEQH/xAAbAAEAAgMBAQAAAAAAAAAAAAAAAgUEBgcDAf/EAEAQAAEDAwAFCAcGBgEFAAAAAAEAAgMEBRESITE0QQYzUWFxcrHBEyIyc4GRoRQVNVLR8AdCQ1RikyQjU4KS4f/EABoBAQACAwEAAAAAAAAAAAAAAAAFBgEDBAL/xAAnEQEAAgEEAQIGAwAAAAAAAAAAAQMCBBEhMRIFUSIyQWGRoRMUQv/aAAwDAQACEQMRAD8A7iiIgIiICidq8K6rhooHz1MgjjaNbj4LQb5ylqLi50UBdBS8Gj2n9v6Loo02d08de7RdfjVHPba7nymt9A5zA8zzDUWRa8HrOwLXavllXSlwpo4oG8DjTI+er6LWQeg5CZUtXoacO43lHZ6uzLqdlnJf7tIcmvl/8cN8F5i83MHIr6rPXIVgZTK6Iqrj/Mfho/kzn6reHlHdojvrndT2hytqLlpMHAVtK17fzRHB+R2rUspleM9LTn3i9432Y9S6pbLtR3ME0s4c8bYzqc34LPGxceZI+J4kjc5jxse04IW4cn+VnpHClurgHHUyfYD1O6CozUaDLD4sOYd1OsjLjPiW5IvjdYyvqj3cIiICIiAiIgIiIC8qiWOGJ8szg2NjS5xOwBeh2rSeXl1y5tshcMDD5/Jvn8luoqm2yMYarrYqwnJSX+8zXeqLsObTsP8A02dXSetVaicHYisWGGOGMY49ILLOcp3lJFFF7eUkUUQSRRRBJB0A7eBUUQbryOvxfo26tfl2P+jIeP8AievoW5N2LjUbzG8PY4te0gtI2g9K6pyfuQutriqdQk9mUDg8bf1+Khdfp4wn+THqUro75zjwy7hZIiKOd4iIgIiIPh2qsuN9t1uc5tRUN9IP6bPWd8h5rTb5ytqa57obe51PT7NPY9/b+Udi1nSzrJyTtUnR6dOUb2Tt9kddr4idq+W71XLoaWKWhc7Owyvx9APNahV1MlZUy1M3tyuLisfKZUlVp66vkhwWX2WfNKaKGUyt7UmihlMoJooZTKCaKGUygmihlMoJFbX/AA/rfR109G93qys02g/mH6jwWpZVnyZn9Bf6F/TLof8At6vmtGpw86sobaM/C3GXWBsX1fG6gvqrSwCIiAiIg4lkDYmVHKZVsVjdLKZUcplGd0splRymUN0splRymTwQ3SypMY959QfEr2hpdIB0p+CzoYNNjiPVDVHaj1DHD4a+Zd9Giyz5z4hgywtjp5HZy7HyVe2d2rSGetWtXj7NLg59UqqpYhNUMjJxpEjV2FRn9q7y8vLlI/16vHx8Xo2VjuOCvTPXlRq6B9NEZS9rmjidRWMHOadS7avU56sj8OOz0+O8JZeVKKV0M0c0btGSNwc13QRrCxWzg+1tXoHh2sKQr1FVvGMuGyiyv5obZQ8t7hC7FXDFUM4keoVtVo5SW+6kMik9HOf6Umons6VyvKaRB1HHWtNugpz6jaW2vW24Tzy7cF9WhcluVcgkjobo8uY71Y53HWD0O/Vb2zZw+ChrqM6cvHJLU3Y24+WKSIi0trh2Uyo5TKtyrpZTKjlMoJZTKjlMoJZTOtRyh2Iw2G36w7sCnR81L++CjbvZd3Qp0fNS/vgqlPa0R0rardZe75Kut2/w9p8CrGq3WXu+Srrdv8PafAoytLruTu8PFYFoaH1DmuAI9GdvaFn3Xcnd4eKwbNvTvdnxCwJXamigDHxM0STghYkFNJOHGJmkGYyM9Ksr1zcXeK87J7M/w80GA4yxHRcHA8Q4a19EoOorLvfPx9w+KjRUTKindIXua4OIyNnDh8V1Vay6vqd4+7ms0lVncPEYxqGo7V0HkLfXVkRt1U7M0TcxuP8AOzo7Qud1EJpp3RZyRxXtbq+W3V8FUz24nh2B/MOI+IyumzWVaiucbI2n6OevS2UZ+WE7w7aNi+rX7VystFwLWCf0Ep2Rzer8jsV+0gjIOQoxIuFZTKjlMq3qrullMqOUyhullMqOUyhullFHK+E6ijG7aLd7J7oU6Pmpf3wXjRSsja4v4gALxa9waWhxAO1o4qoz2tUdPGq3WXu+SraF7WVcbnnDQfIr0ut2oqJj2TzD0hHsNy4j4cFUQ3OilwGzNDjwcdHxRlstxmjloXGN7XAuGsHPFYlmyKp2f+2fEKvaWuGWEEdRXrTzup5C9jsEjGzKwLS9c3F3ivOyezP8PNYtTWOqY2MfG3IOche9omih9I2R4aXluCerKBfOej7vmsm0bofeHwCxL05rpIyw5bo6jnPFZln3Y+8PkgwLrvz+weCsaONklBEJGB2RsIVbc9+k7B4K1t+5xd1BR1TQ2eVrRgBxGPmu3W78PpvdN8AuI1e8zd93mu3W78PpvdN8Ag4ZlMqOUyrgqSWUyo5TKCWUyo5TKCWUOMaz8FHKbevqQZtffqKiHo9L00w/pxnWO0rWrhfq+tJY15hjOrRiOCfjt+S2OK2unAMzWtb1jOpZ9FaaeFxkpqeMPaNcmBkKsaiquudsct1lotzsjfLHZpNJyeralplkZ6GLBIdJqJ+G35qMlinGdF8b/mCt8q92l1YOicqlwuZ0NX+76ynORG8dbCT4KTa+ugOi6Zx/xlGVspQgEYcMhBSR3qUc5C09bSQsuK80z9UjXxnrbnwWRJRUz/6LB1gYXg+0wO1tL2/HIWRkx1dNJ7EzCejS1rOp6yambox4cw69EhUL7OdrJWHvNwvMUVZBriLgP8HoL+plM8xlIwXY1ZVtb6mD7PGwyNa8DBBOCtNFVXxc4C4f5tXrHdSdUkOOthWBb1e8zd4+a7bbvw+m903wC4TSStrpBBSslkmdsjjjJJ69S7vQNLKKBrgQ5sbQQeBwg4dX0dVb6p9NXROjmbtB4jpHSF4Art94tNFd4PQ10DZAPZdnDmnpBGsLQbv/AA/rYXF9smbVRbRHIQ1/z2H6Kw6f1KuyNs+J/SA1Hp9mE74cx+2nZTK96y311E5wraOohI2l8ZA+ezxWLpA+zsUhExMbwj5iY4lPKZUNJNJZY3TyhOpQ0kyhu26hY17DpDJDQQvWi5mTVg//ABQt/Mv7oU6PmZP3wVOy7W+OldVbrL3fJV1u3+HtPgVY1W6y93yVdbt/h7T4FYZWd1H/AA3do8VX2uJks7mSM0m+jOo9oVjddyd3h4rBs29O92fEIJXSlhp2MdCMEnBGcrxt9IypEnrlpbjYOnKzb1zcXeK87J7M/wAPNBh1tN9ke1umX5GckYSGimnhD4tE68YJwcrJvnPR93zWVZt2PvD5IKaWN8Ty2Vui4bdag+lD26ToAR0mNZl036TsHgrW37lF3UHlaeVFxtEIhpYqUQj+UwBoPbo4XWqSQy0sMjhhz2BxA4EjK4dV7zN33Lt1u/D6b3TfAIMhERB8cARrGepYsluoZHaUlHTvd0uiaT4LLRZiZjpiYie2F91W7+wpf9Lf0T7qt39hS/6G/os1Fnyy92PDH2YX3Vbv7Cl/0N/RfPuu3cKCl/0t/RZy+FPLL3PDH2czY0Nmq2tGAHEY6NZUaPmZP3wUmn/kVXed4lRouYk/fBeXpXVW6y93yVdbt/h7T4FWNVusvd8lXW7f4e0+BQWl13J3eHisGzb073Z8Qs667k7vDxWDZt6d7s+IQZN65uLvFedk9mf4ea9L1zcXeK8bPJGxs5e9rdntHHSg+Xzno+75rKs27H3h8lhXWZk0zPRvDwBjISjr208DozG5xLicg4HBBC6b9J2DwVrb9yj7v6qkqZ/tU5k0dEO4KTK6oYxsccmiGjUBtQRrd6m75Xbbd+H03um+AXG4bTdK7LoaKplL/wCb0ZA+exdloWujo4GPGi5sbQR0HCD3REQEREBERAXw9a+og1688mIKwuloyIJzrOr1XHr6FqU0FTbZXwVUBYTsJO3rB4rpy8KylgrITFUxNkYeDgg5NU5+yyA8GlVVNN6GdsmM6Ov6Fb7eeSNQGv8Au0iVjhgMecObnr4qtpf4fXCTDqmrpogduiC8jw8UGuVdwdUROiETWgniclYsc0kLi6N2C4Y2ZXRKX+H1AzH2irqZT0NwweZ+qt6XknY6Y5bQRyEcZSX/AEOpByQvmqCGkySuPDOforCl5PXiqx6C21Ovi9mgPm7C7DBBBTsxBFHG38rGgD6L1CDmFLyCu8uDPJTQDiHP0j8gMfVW9L/DuAEGsuEsg/LFGGfU5W8og12l5GWOnIP2V0rvzSSE5+GcfRXFLbqKk3WkgiPSyMArKRB8C+oiAiIgIiICIiAiIgIiICIiAiIgIiICIiAiIgIiIP/Z;" vertex="1" parent="1">
          <mxGeometry x="1468.51" y="645.12" width="84.91" height="80" as="geometry" />
        </mxCell>
        <mxCell id="NnL7JSWlf4hrcEAEEY_L-48" value="&lt;font style=&quot;font-size: 18px;&quot;&gt;ACR Replica&lt;/font&gt;" style="text;html=1;align=center;verticalAlign=middle;whiteSpace=wrap;rounded=0;" vertex="1" parent="1">
          <mxGeometry x="1422.46" y="597.12" width="180" height="48" as="geometry" />
        </mxCell>
        <mxCell id="NnL7JSWlf4hrcEAEEY_L-49" value="" style="endArrow=none;dashed=1;html=1;rounded=0;strokeWidth=3;strokeColor=#0000FF;" edge="1" parent="1">
          <mxGeometry width="50" height="50" relative="1" as="geometry">
            <mxPoint x="1250" y="437" as="sourcePoint" />
            <mxPoint x="1290" y="437.17" as="targetPoint" />
          </mxGeometry>
        </mxCell>
        <mxCell id="NnL7JSWlf4hrcEAEEY_L-50" value="" style="endArrow=none;dashed=1;html=1;rounded=0;strokeColor=#CC0000;strokeWidth=3;" edge="1" parent="1">
          <mxGeometry width="50" height="50" relative="1" as="geometry">
            <mxPoint x="1519" y="750" as="sourcePoint" />
            <mxPoint x="1518.51" y="720" as="targetPoint" />
          </mxGeometry>
        </mxCell>
        <mxCell id="NnL7JSWlf4hrcEAEEY_L-51" value="" style="endArrow=none;dashed=1;html=1;rounded=0;strokeColor=#CC0000;strokeWidth=3;entryX=0.381;entryY=1.054;entryDx=0;entryDy=0;entryPerimeter=0;" edge="1" parent="1">
          <mxGeometry width="50" height="50" relative="1" as="geometry">
            <mxPoint x="568.33" y="749.08" as="sourcePoint" />
            <mxPoint x="568.0035300000001" y="600.0004800000003" as="targetPoint" />
          </mxGeometry>
        </mxCell>
        <mxCell id="NnL7JSWlf4hrcEAEEY_L-52" value="" style="endArrow=none;dashed=1;html=1;rounded=0;strokeColor=#CC0000;strokeWidth=3;entryX=0.381;entryY=1.054;entryDx=0;entryDy=0;entryPerimeter=0;" edge="1" parent="1">
          <mxGeometry width="50" height="50" relative="1" as="geometry">
            <mxPoint x="570" y="1396.56" as="sourcePoint" />
            <mxPoint x="570" y="1271.12" as="targetPoint" />
          </mxGeometry>
        </mxCell>
        <mxCell id="NnL7JSWlf4hrcEAEEY_L-53" value="" style="endArrow=none;dashed=1;html=1;rounded=0;strokeWidth=3;strokeColor=#CC0000;" edge="1" parent="1">
          <mxGeometry width="50" height="50" relative="1" as="geometry">
            <mxPoint x="570" y="1400" as="sourcePoint" />
            <mxPoint x="1520" y="1400" as="targetPoint" />
          </mxGeometry>
        </mxCell>
        <mxCell id="NnL7JSWlf4hrcEAEEY_L-54" value="" style="endArrow=none;dashed=1;html=1;rounded=0;strokeColor=#CC0000;strokeWidth=3;" edge="1" parent="1">
          <mxGeometry width="50" height="50" relative="1" as="geometry">
            <mxPoint x="1520" y="1400" as="sourcePoint" />
            <mxPoint x="1520" y="1350" as="targetPoint" />
          </mxGeometry>
        </mxCell>
        <mxCell id="NnL7JSWlf4hrcEAEEY_L-55" value="" style="endArrow=none;html=1;rounded=0;strokeColor=#CC0000;strokeWidth=3;dashed=1;" edge="1" parent="1">
          <mxGeometry width="50" height="50" relative="1" as="geometry">
            <mxPoint x="1620" y="1320" as="sourcePoint" />
            <mxPoint x="1622.46" y="640" as="targetPoint" />
          </mxGeometry>
        </mxCell>
        <mxCell id="NnL7JSWlf4hrcEAEEY_L-56" value="" style="endArrow=none;dashed=1;html=1;rounded=0;strokeWidth=3;strokeColor=#CC0000;" edge="1" parent="1">
          <mxGeometry width="50" height="50" relative="1" as="geometry">
            <mxPoint x="1550" y="1320" as="sourcePoint" />
            <mxPoint x="1620" y="1320" as="targetPoint" />
          </mxGeometry>
        </mxCell>
        <mxCell id="NnL7JSWlf4hrcEAEEY_L-57" value="" style="endArrow=none;dashed=1;html=1;rounded=0;strokeWidth=3;strokeColor=#CC0000;" edge="1" parent="1">
          <mxGeometry width="50" height="50" relative="1" as="geometry">
            <mxPoint x="1553.42" y="700" as="sourcePoint" />
            <mxPoint x="1623.42" y="700" as="targetPoint" />
          </mxGeometry>
        </mxCell>
        <mxCell id="NnL7JSWlf4hrcEAEEY_L-58" value="" style="endArrow=none;dashed=1;html=1;rounded=0;strokeWidth=3;strokeColor=#CC0000;" edge="1" parent="1">
          <mxGeometry width="50" height="50" relative="1" as="geometry">
            <mxPoint x="1620" y="645.12" as="sourcePoint" />
            <mxPoint x="1680" y="645" as="targetPoint" />
          </mxGeometry>
        </mxCell>
        <mxCell id="NnL7JSWlf4hrcEAEEY_L-59" value="" style="shape=image;verticalLabelPosition=bottom;labelBackgroundColor=default;verticalAlign=top;aspect=fixed;imageAspect=0;image=data:image/jpeg,/9j/4AAQSkZJRgABAQAAAQABAAD/2wCEAAkGBxIQEBUQExASFhUVFxUXFxIQFhUVGhgZGBIWFxcXFRgYHSggGhonGxgWIjEiJSkrLi4uFx81ODMtNygtLysBCgoKDg0OGxAQGy0lICUtLS0rKy0tLS0tMi8tLS0tLS8vLS0tLS0tLS0tLS0tKystLS0vLS8tLSstLS0tLS0tLf/AABEIAOEA4QMBEQACEQEDEQH/xAAbAAEAAQUBAAAAAAAAAAAAAAAABgEDBAUHAv/EAEEQAAEDAgALBAgDBwQDAAAAAAEAAgMEEQUGEiExQVFhcYGRBxMioRQyQlJicrHBI9HwFTOCkqLC4UNTY/EkRLL/xAAbAQEAAgMBAQAAAAAAAAAAAAAABQYBAwQCB//EADQRAAICAAIGCAYDAQEBAQAAAAABAgMEEQUSITFBURMyYXGBsdHwBiKRocHhFCNC8TNyJP/aAAwDAQACEQMRAD8A7igCAIAgCAIAgCAIAgCAo5wGcm3FAa+fD1LGbOqoAdhkZfpe63Rw9st0X9GaZYiqOxyX1MR+N1CP/aj5XP0C2LBYh/4ZreNoX+0G430J/wDaj55Q+oR4HEL/AAwsbQ/9oyYcYaN+ZtXATs7xgPQleJYa5b4P6GxYml7pL6mxY8OFwQRtButLTW82p5npYMhAEAQBAEAQBAEAQBAEAQBAEAQBAEAQBAWKysjhblyyNY0e08gDhn1r3CEpvKKzZ5nOMFnJ5Ih2Fe0iBmaCN0p9534bfMZR6BSVWirJbZvL7sjbdKVx2QWf2RFa/Heum0SCIe7C0D+p13dCFIV6PohvWfeR9mkL57nl3GiqJZJTeSSR52yOc/8A+iuuMYw6qS7jklKc+s2+88x0xJsASTqAuegWLLYVxc5tJLe28l9TMKpTkoxWbfBbWbKHF2Z3stb85/K6r9/xZo2p5Kbl/wDKb+7yX0JarQGNsWeqo979MysuLkwGhjtzXfmAvFPxdo2x5Nyj3x9Mz1Z8PYyCzST7n6pGumpC05LmkHYRZWCjE1Xw6SqSkuaeZE20Tqlq2RafJnmEvjOUx7mHaxxaeoW2SjJZSWZ4i5RecXkbugxxrof9cyAezOMvq71vNctmAw8/85d2z9HTXjsRDjn3+8yU4L7So3WbUQuZ8cXjbxLTnA4XUfbomS21vPsez39iQq0rF7LFl3bSZYNwnDUty4ZWPGvJOcfMNIO4qMspnW8prIkq7YWLODzMtazYEAQBAEAQBAEAQBAEAQBAEAQHieZrGl73BrWi5c4gADaSdCzGLk8lvMOSis2QDGHtEAvHSNudHfSDN/A3XxPQqYw+i/8AVv0X5IjEaUS+WpePoQSsqZah/eSyOe7a83tuA0AbgpaEIVrVgskRM5zsec3meWxL1mFEuiNYzPWRn02CZX2IjeGn23NIb1Onko7SGlMPganZbLuS3t8kveR2YXA3YiajBePBEmoaBkLbNGfW46T+ti+T6T0tiNIWa1r2cIrcvV9r29y2F5wWApwkNWC28XxfvkZVlG5naUsmYLNVSMlbkuFx5jeCuzA4+/BW9LRLJ8eT7GuP44ZHPicLViYalqzX3XcyM1eBZWE5LHvaPaY0mw+K2hfVtFaaox9WsmoyXWi3ufZzT4P8lGx2jLcLPLLOPBpefJmtMamcyO1S26JZzPLiUhe+JwfG9zHDQ5hIPULElGayks0Yi5QecXkya4A7RHttHVtyh/vRizh87BmPEW4FReI0Wntq+j9SUw+lGtlq8V6HQ6KsjmYJI3tew6HNNxw3HcoacJQerJZMmYTjNa0Xmi+vB6CAIAgCAIAgCAIAgCAIDVYwYfhoo8uV2c3yI2+s87hs2k5gujD4ad8so+LNGIxMKI5y8Ecmw/jDPXOvIclgPhhZfJGwn3nbzysrFh8LXQvl38yu4jFWXv5t3I1zIlvbNKiZtFQvlcGRsc9x1NF+Z2DeVrnZGCzk8kboVym8orNkzwTiA42dUSZP/HFYnm45hyB4qLu0mlsrWfa/QkqtGt7bH4Ik0OCqSjblthaCNDiMp5OwF2dQmP0o6q3O6Wzlz7EiVw2ChrZQjt5/s09bVOldlO5DUBuXz7GYyzFWa8/BcF74viWGqqNUckWLLkzNplU2DZZBcNzbXZhy2rvw+jcTetaEdnN7F6/Y0WYmuDybPU+CZWC5bcfCb+WlbLtE4upazjmuzb9t/wBjEMXVJ5Z/UwbKNzOkuU8zo3B7TYj9WO5b6L50TVlbya95PsPM4RnHVkb0U1NXMvJCwu13FnDg4Z7K/aM0s74a1csmt6971yZXsXgYp5TWfJkfwr2fg3dTy2+CXOOTgLjmDxU/TpR7rF4r0Im3Rq31vwfqQrCWC5ad2RLG5h1X0H5SMx5KUquhYs4PMi7KZVvKSyNe+JbkzS4mTgfC89FJ3kL7X9Zjs7HfM376d61XUV3RymvU9032UPOD8OB1jFjGiGubYeCUC7onHPxafabv62VexWDnQ9u1cywYbFwvWzY+RvVyHWEAQBAEAQBAEAQBAaLGvGWOhjvmdK71I9vxO2NHn9OvCYSV8uSW9nLisVGiO3fwRyGuq5KmUzSuLnu1nUNQaNQGxWSuuNcdWCyRXLLJWy1pPaGRrLYSJbi3ibJUWklvHHpHvvG4H1RvPTWo7E4+Nfyw2v7IkcNgZWfNLYvudEwdg6KnZkRMDRu0ne46SeKhLLZ2PObzJiuqFayisi5V1LYm5TjwGsnYFxYrFV4at2WP1b5I6Kq5WS1YkWrKp0rsp3IagFQ8ZjLMVZrz8FwS973xJqqqNcckWbLlzNhsMC0Ykfdwu1tjbadQ4aVMaFwUcTc5TWcY8Ob4eBy4u51wyW9klV3IcICP4fog0iRotlGzhv2/VVLT2CjXJXwWWbyffz8eP7JTBXOS1Hw3GnIVeJA908zo3BzTYj9WO5b6MROiasreTXvJ9h5nCM46siVYPrmzNuMxGluz/CvOBx0MXXrR2Nb1y/XJkJfRKqWT3cGXaulZKwskY1zTpa4XH/e9SEJyg84vJnNKEZrKSzRAcY8SHR3kprvbpMRzuHyn2hu08VM4bSKl8tmx8+H697iJxGAcfmr2rlx/fveQmSNSqZFuJaje+J4kY4te03a5uYgpJKS1ZLNHhOUJa0djR1fEzGxta3u5LNnaM41PA9pn3GpV7G4J0PWj1fIsODxivWT6xKFwHcEAQBAEAQBAEBqsZMOMooDK7O7Qxl7FztQ3DWTqC6MNh5Xz1V4s0YnERohrPwRxitq5KmV00rsp7jnOobABqA2Kz11xrioR3IrNlkrZOUt57ij1W6LLZlI6LinieGAT1Dbv0tiOhuwv2u3auOiExmPcvkr3cWTOEwSj89m/kTRRRJlmqqWxtynHgNZOwLmxWKrw1bssfq3yRsrrlZLViRisqnSuynchqAVCxmNsxVmvPwXBL3vfEmaqo1xyRZsuQ2CyA3WLrhZ7deY/VWn4bsWVkOOx/gjscuqzcq0EeEBrMYHDugNZcPK6gviCajhVF73JfbadmBX9mfYRwhU0lihCyZPVPM6Nwc02I/VjuW/D4iyixWVvJr3k+wxOEZx1ZEqwfXNmbcZiNLdn+FecDjq8XXrR2Nb1y/XJkJfRKqWT3cGZa7jQRfGrFNlSDLEA2bXqEm52x2/rukMJjXV8s9sfL3yOHFYNWfNHZLzOY1NO5jixzSHNNi05iDsKnoyTWaIKUGnkzGY90bxIxxa5pu1zdIIXtpSWrLczWm4PWjvOwYn4xtrobmzZWWEjB5Ob8J8jcbzWsZhXRPse4smDxSvhm963m/XGdYQBAEAQBAW55mxtc9xAa0FznHQABckrMYuTyW8xKSis2cUxlw06uqDKbhg8MbDqbfSfiOk8hqCtOFw6or1ePEq+KxDvs1uHAw42Lc2a0jo+I+LOQBVTN8ZzxsPsj3iPeOrZx0QmPxms+jhu4smsFhNVdJPfwJoookyzVVDY25Tjy1k7AubFYqvDVuyx+rfJGyuuVkskRmsqnSuynchqAVCxuNsxVmvPwXBL3vfEmKqo1xyRZsuM2FUAssGC9SzmNwcOm0bF1YTFTwtqth9Oa5HiytWR1WSCnwjG8esAdjs3/au2G0vhb49ZJ8ns/wC+BFTw1kHuz7j1NXxsFy8Hc3OfJbL9J4WlZymu5bX9EYhRZJ7ER+vqzK65zAaBs/yqXpDHyxlus9iW5e+LJWipVRyMQhcJuKELJk8kL0ZPVPO6Nwe02I89x3Lfh8RZRYrK3k17yfYYnCM46siV4PrmzNuMxGluz/CvWBx1eLr1o7Gt65frkyEvolVLJ7uDMpdpoIzjji2KphljA75o4ZYHsnfsPLh34LF9E9WXVf2OHGYXpVrR63mcslj1Ecj91YEyBkj1gnCMlHO2ePS3S29g5p9Zp3HyIB1LzdVG6DhIU2ypmpxO24Mr2VELJozdrxcbtoO8G4PBVW2uVc3CW9FprsjZFTjuZlLwewgCAIAgOe9qGHLBtEw5zZ8ttnsM5nOeDdqmNF4fa7Zdy9SH0piMkqo+PoQKFimWyIiiY4i4A9Ik754/DjOg6Hv0gcBmJ5b1G4/E9HHUjvf2RJ4HDdJLWluXmdOUAThbqJgxpc7QP1ZacRfCit2T3I9wg5yUURerqnSuynchsC+f43G2YuzXn4Lgl73viTNVUa45ItLjNhWywYFlgFbIYFkAsgKWQyUWQUWTJQhZMnkhZMnkhej0eqed0bg9psR57juXRh8RZRYrK3k17yfYeZwjZHVkSygqxMwOHAjYdiveCxccVUrI+K5MgrqXVLVZkrrNRAO0HAOSfS4xmJAlA1E5g/noO+20qZ0dic/6peHoRGkMPl/ZHx9SAysUumREkSzs0w53UxpHnwS52X1SW0fxDzA2qN0nh9eHSret/d+iQ0ZiNWfRS3Pd3/s6ioEnggCAICxXVbYYnyvNmsaXHgBfNvXuEHOSit7PM5qEXJ7kcKq6p9RM+Z/rSOLju2AbgLDkrZCCrgoR3Iqc5uybm+JlYPpHSyNiYLueQ0c9Z3DTyXmyahFye5G2uDnJRW9naMF0LaeFkLNDRa+06S47ybnmqtbY7Jub4llqrVcFFcDKWs2Gkxgmztj1AZR+g+/VVP4jxDcoUrd1n5L8kjgYbHPwNSFWTvKhYMFbLBgrZYMFUAQFEAsgKELJkoQsmTyQsmTyVkyeSvR6PJXpGTY4vz5MuTqeLcxnH36qb0FiHDEdHwkvutq/JyY6vWr1uRJ1ciGLc8LZGuY4AtcCCDrBFiFmMnFpreYlFSWTONYewYaad8Jz5J8JOtp9U9PMFWjD3K2tTRWr6XXNxZp3EtcHNJDmkEEaQQbgjmujJNZM5dsXmjt+LuFBV00c40ub4gNThmcOoPKyqmIpdVjgWrD2q2tT5myWk3BAEBB+1TCWRTspwc8rru+Rlj5uLehUroqrWsc3w82RelbdWtQXHyRzmFqnGQsUT7s2wZdz6kj1fAziRdx6WH8RUPpO7JKtcdrJfRtWbdj7kdAUMS4QEdw2PxjwCo+n8/5j7l+SWwf/AJGAFCHSegsGCqwYNXVudlm99ObhqW+OWR3VKOqsizlHaV6yPeSGUdpTIZIZR2lMhkhlHaUGSGUdpQZIplHaUM5IZR2lBkjZxXyRfTZanvOKWWbyKlZQPJXoyZGCx+Oz5vsVIaMz/l15c/wzVif/ABl3EvV+IEICHdo+DcuFtQBnjOS75XHN0db+YqT0ZdlN1vj5kbpGrOCmuHkczmap1EHJE17KcI2fLSk5j+KziLNf5ZHQqK0tVsjYu5/j8kpoq3bKt96/J0hQhNBAEBx3tAre+wg8XzRBsY5DKd/U4jkrLo+vUoT57St6Qs172uWw08YXWznidnxbofR6WKO2fJBd8zvE7zNuSq2Ks6S2Uiy4avo6lE2a0G8IDT4fg9WQasx+336qr/EeFbUb1w2P8ffzO/BWb4eJpwqmSB6CweSqwDGlrGtNrE22L2oNm6NMmszx6e3YfJZ6Nmf48uY9PbsPknRsfx5cx6e3YfJOjY/jy5j09uw+SdGx/HlzHp7fdPknRsfx5cyhr27D5LPRsz0EuZT05uw+SzqMz0EuZkNdcXGteTU1k8mUK9IHgrKPSNpi9TXkMmposOJ/xfqrBoDDOdzue6Oxd79F5nFjrMoanMkat5EhAWK6mE0T4naHtLTzFrr3XNwkpLgeZwU4uL4nEKqEscWOGdpLSN4Nj5q1xkms0VacWnky7i3W+j1sMt7APDXfK/wO8jfkvGKr6SmUezy2nrDWdHdGXb5ncVVC0hAUc6wudSA4DLOZZXynS97nn+Jxd91cIx1IqPJZFQlLXm5c3mbXAFL3tTFHbM57bj4Qbu8gVpxE9SuUuw6cPDXsjHtO1KqlmCAIDzIwOBaRcHSF4srjZBwms095mMnF5ojldRGI7WnQfsd6oGktGzwc+cXuf4fb57+aUvTcrF2mMow2lVgGHNQ3JIdpz51tVmSOiF+SyaLf7PPvDos9Iev5C5D9nn3h0TpB/IXIfs8+8OidIP5C5D9nn3h0TpB/IXIfs8+8OidIP5C5A4PPvDonSD+QuRT0A+8Oia5np1yMtjMkAbF5zNDebzKFZBeo6R0rslvN2oBduCwdmKs1IeL4Je9y4ni26NUc2SmmgbG0MaMw895V9w2Hhh61XDcveZCWWOyWtIureeAgCA5LjxS93Wy5sz7PH8Qz/wBQcrJgZ61EezZ78CvY6Grc+3aRaoau5EfI7vgeq76nil9+NjjxLQT5qo3Q1LJR5Nltqnr1xlzSMxazYa7GObu6OoeNIhkI45Bt5rdh461sV2rzNOIlq1Sa5M4dThWxlViS/s+hyq1p9xj3eWT/AHKO0jLKh9rXr+CS0fHO5difp+TqarxPBAEAQHiWMOBaRcFarqYXQddizTPUZOLzRHq6jMR2tOg/Y71QNJaNng7Mt8Xuf4fb57+6VpuVi7TGUabggCAIAgCAIChWQeSsmShXo9FykpXSuyW8zsC7MFg7MVZqQ8XwS97lxPFtsa45sk9LTNjbktHE6ydpV9wuFrw1arrXq3zZDWWSslrSLy6TWEAQBAc77TYbTRP95hb/ACuv/epvRcvkku3z/wCEPpOPzxfZ5f8ASBzhSyIiR17s+my8HQ30jLb/ACyOA8rKt6QjliJeHkWPR8s8PHP3tJEuI7DR47utg+o+S3VwH3XVglniId5y415UT7jjUCs7K1EnPZm3/wAmQ7IiOr2fkorSj/qXf+GSujV/Y32HSFBk0EAQBAEB4miDwWkXBWq+iF8HXYs0z1GTi80R6uozE7aDoP2O9UDSOjp4OzJ7Yvc/w+0lablYu0xlGm4IAgCAIAgKFZB5Kyei7S0zpHZLeZ2DaV2YPB2YqzUh4vgkeLLI1xzZJaSmbG3JbzO07Sr9hMJXha1XX4vi3zZD22yslmy8uo1hAEAQBAQbtPb4YDvkHUM/JS+intl4fki9JrZF9/4OczqaRCSOpdmLr0AGySQeYP3Vf0mv7/BE/ox/0LvZLVHEgaLHht8H1HyX6OBXXgX/APoh3nLjVnRPuONwKzMrMSddmbv/ACJB/wAR8nt/NRWlF/Wu/wDBL6N/9H3HR1BkyEAQBAEAQHiaIPaWuFwVpvorvrddizTPUJuLzRHa2kMTrHODoP61qgaR0fZg7Mnti9z98SWqtViz4mOo42hAEAQBZB5KyZLlNTukdkt5nUBtK68HhLMVZ0dfi+CR4ssjXHNkkpKZsbckcztKv+DwdeFr6OHi+LZEW2yslmy+uo1hAEAQBAEBB+093hgG+Q9Az81LaKW2Xh+SL0nuj4nOJ1NohJHUezBtqC+2SQ/QfZV/Sj/v8ET+jF/R4slyjiQNZjNFl0VQ0aTDJYbwwkea34aWV0H2rzNOJWdMl2M4hTlWtlViTHs7lya0D343t+jv7VG6SjnR3Nen5JPR7yu8GdRVfJ0IAgCAIAgCAtzwh7S1wzH9ZloxGHrxFbrsWaZ6hNweaI5WUxjdkniDtC+e4/BTwd3Ry2renzXveS1VisjmiyuI2hAFkFEMnungdI7Jb12DaV1YTCWYqxV1rvfBLmzxZZGEc2SSkpWxNyRzO0r6BgsFXhK9SHi+LZEW2yslmy+us1hAEAQBAEAQHPe06W8sLPdY938zgP7FNaKj8sn2r7f9IfSb+aK7H7+xAZypdERI652dxZODofiMjusrreVlW9IvPES8PIsWj1lh4+PmSRcR2nmRgcC06CCDzWU8nmYazWRwAxGN7ozpY5zTxaSD9FcFJSSkuJUdVxk4vgbvFqq7qqhfqD2g8HeEnoSubFQ16pLs/Z1YaerbF9vnsOzKrllCAIAgCAIAgCA02HvWZwP1CqPxN16+5/gkMFuZqlWDtCApdZMlCUMm7wDI3JLfavc7xqVx+Hbauida6+eb7Vw78vt4kbjYy1k+BtVYziCAIAgCAIAgCA5Rj5Vd5WvGpgawchlHzceisWj4atC7dpAY+etc+zYROocpBEdI7pgCl7mlhiOlsbAeOSL+d1U8RPXtlLm2WuiGpXGPJIz1pNoQHGceaLucISi1hJaUfxjxf1h6s+As18PHs2fT9FZx1epiH27ffiauMrpZpidswHW9/Txy63NF/mGZw/mBVVvr6OyUeRZ6LOkrUjOWk2hAEAQBAEAQGlxg9ZnA/UKpfEvXr7n+CRwO5mirneDmFW4LaSVK+Y80DiWcD9gk1tM3L5jJuvORqKLIKskLSHA2I0EL3XZOuSnB5NbmHFSWTJJg2t71t7WcNI+4V90ZpBYyrNrKS3+q7GQ+Ip6KXY9xmKSNAQBAEAQBAW6iYRsdI42a0FxO4C5XqMXJqK4mJSUU2zh9bUGR7pHaXuc48XEk/VWuEVGKiuBVpycm5PiecDUXpFXDDa4e9uUPhHif/SCl9nR1SnyX/DFFfSWxj2ndlUi1hAEBAe1bB144qoD1CWP+V2dpO4OFv41L6Jtyk63x2r373ETpWrOKsXDZ9Tn8LlNMh4s6J2a4SzPpidH4jOGYOHWx5lQuk6d1i7n+CZ0bbsdb71+SdKIJUIAgCAIAgCA0mMPrM4H6hVL4l69fc/wSOB3SNBXepzCrkN5KU9YpQHwnj9gk95m/rGTdeTSUusmT3BC57g1ouT+rnct2Hw9l9irrWbfvN9h5nNQjrSJPQUYibYZydJ2n8lfcBgYYSvUjtb3vm/TkQ11ztlmzJXcaQgCAIAgCAinaHhLu6cQg+KU2PyNsXdTYcypHRtOtZrvcvM4NIW6tequPkcumcp9EDJku7LMHZc8lSRmjbkN+Z2c24NH9ajNK25QVa47ffvgSOiqs5ux8Nh05QROBAEBiYXoG1MEkDtD2kX2HU4bwbHktlNjrmprga7a1ZBwfE4W+J0T3RvFnMcWuG8GxVsUlKKktzKo4uEnF70bHBFe6CZkzdLDe20aC3mLjmtV1asg4Pib6bHXJSXA7RR1LZY2ysN2vAIPHbvVWnBwk4veizQmpxUluZeXk9BAEAQBAEBo8YvWZwP1CqfxJ16+5/gksBukaCtPg5hVyO8lKesUofVPH7BJbzN3WMi6xkacil0yMmwwJVtjeQ7NlWGVstt3Z1N6ExleHtcbNilks+WX4eZy4ymU4px4cCSq6kOEAQBAEAQFHuABJNgM5J1DeiWewN5HHcZ8LelVDpfZ9VgOpo0dc55qz4Wjoq1Hjx7yt4m7pbHLhw7jQTO/6C60ccjtWKWCfRKSOIjxkZUnzuznpmbwaFVsXd01rlw4dxZ8JT0NSjx495uFzHSEAQBAc17T8CZD21rBmfZkttTgLMdzAtyG1Tmi8RmuifDavyQmlMPk1au5/ghcL1KtEZFk67P8AD3du9FkPhebxk6nHS3gdW/ionSOG1l0kd6393697iWwGI1X0ctz3d/797zoihCYCAIAgCAIDQ4yHxM4O+oVU+I+vX3P8EngOrLwNBWHw8wq5HeSlXWKUR8J4/YLMjN3WL915yNWRS6yZKErOQJJi9K90ZDtANmk+Y4BXHQVts6Gp7k8ov8eH64ETjoQjNNb3vNqpw4QgCAIAgIV2g4dyG+iMPicLyEam6mcTr3cVK6Ow2b6WXh6+/wAEZpDEZLo4+JziV6m0iFkyQ9nmBfSanvnD8OAh2f2pNLBy9Y8G7Vw6RxHR16i3y8vew7NHUdJZrvdHzOtqulhCAIAgCAsV9GyeJ8Mgux4LSOOzYdd17rnKElKO9HmcFOLjLcziGGcGPo6h0D9WdrveafVcP1pBCtVF0bq1OPtlWuplTY4P2i3E9e2jCZ1LEzGQVLBDIfxmjSf9QD2h8W0c+FfxuE6J68eq/sT2DxXSLVl1l9yUKPO4IAgCAIDQYzeszg76hVX4i69fc/wSmj+rLwI/Vnw8wq6iUq6xSjPh5/YIzNu8vXWMjXkLrIM3BND3zzc2a2xNtJvoA6FSejMB/Lsak/lW/wBDnxV/RR2b3uJXGwNAAFgNACu8IRhFRiskiDcnJ5s9L0YCAIAgNHjTh9tHHmsZXDwM/ud8I89G23XhMK7pdi3nLisSqY9vA5LUzue4vc4lziSXHSSdJKscYpLJFenJt5ssUtM+eVsMYu95sB9SdwFydwWZzjXFzluR4hCVk1CO9nbcA4JZSU7IGZ8keJ2tzj6zjxPQWGpVa+53WObLRRTGmCgjYLSbggCAIAgCA0ON+Lra6GwsJWXMbzt1td8J8sx1LrweKdE8+D3nJjMKr4ZcVuOPPY6N7o3tLXNJDmnSCFZk1Ja0dzK204S1ZbzJpqhzHB7XEOaQQ4ZiCNYXiUU1kzZGTTzR1DFTGptUBFIQ2Ycg/e3ftHTdAYvBOp60dsfInsLjFb8sut5kmXAdoQBAEBHsaD4mcHfUKrfEXXr7n+CV0d1ZeBH6o+Hmq6StfWKUh8PP7BBbvL10NeRS6yZMjB9c6F+UM4Olu0fmuzBYyeFs147uK5r15Gm+iNscn4EvpalsrQ9puD5HYd6vGHxFd9asrez3sZBWVyrlqyLy3GsIAgNJjLjHHRttmdKR4Y/7n7G/XrbrwuElc+S5nLicVGlc3yOU4QrnzSOkkcXOdpJ8gNg3Kw11xhFRithAWWSnLWlvNfI8k2AJJzADOSdQC27jQ3nsR1XETFf0SPvpQO/kGcf7bdOQN+snlqua9j8Z00tWPVX37fQsGAwnQx1pdZ/bs9SWKPJAIAgCAIAgCAICK46YptrG97HZs7RmOgPA9l2/Yf0O/BY10vVl1fI4Mbg1ctaPW8zlL2ujcWPaWuabOa7MQd6sSaks1uK+04vVlvL8Umgg6NY+oXlo9qROsXMeC20dTcjQJgLkfONfEZ9x0qJxOjs/mq+noSuH0hl8tn19SdwTNkaHscHNOcOaQQeBCh5RcXk1tJaMlJZouLBkICO41etHwd9Qqv8AEPXr7n+CW0b1ZeBHqj1VXiVr3lKbRzQWby7dMjxkUus5AXWUjJLMAULomEu0vscnZbbvVx0Rg54epue+W3Ll++ZB42+Nsko7lxNopY4ijnAAkkADOSc1uKJZ7hnkQvGLHhrLx01nO1ynO0fIPaO/RxUrhtHN/Nbs7OPj7+hGYjSCXy1/Xgc+qahz3F7nFziblzjck7ypmMVFZIh5TbebMR7yTYXJOYAZyTsC97jU3nsR0nEbE7uLVNQ38XSyM/6e8/H9OOiDx2O6T+uvdxfP9E5gcD0f9lm/guX7JwoolAgCAIAgCAIAgCAICP41YqxVzcr1JgPDKB/S8e03zGrXfswuMnQ8t65ehx4rBwvWe58zk+FMGzUkndTMLTnsdLXDa06x5jXZWGq6F0daDK/bVOmWrNFpkq9tHlSNpgnDU1M7KikIvpac7Txb99K0XYeu1ZTXqdFN86nnFk4wTj7E+zZ2GN3vNu5p5esPPiom7Rk47a3n5krVpGD2TWXkSqkrI5W5UcjXjawg9baFHzrlB5SWR3wnGazi8zGw1g/vmZvWbctvr2j6dFFaTwP8qv5est3p4nZhMR0Mtu57yHvaWkgixGYg6lTJQlGTjJZNE8mms0UuvJnIpdMjOQWcgSfAeB8i0kg8Wpp9njv+itWi9F9Flbavm4Ll+/IhsZjNf5IbvP8ARt6idkbcp72taPaeQ0dSp6MXJ5RWZGykorNvIjOFceaeK4iBldtHhZ/MRn5A8V306NsltnsX3OG3SFcdkdr+xBsNYwz1X7x/h1RszN6a+d1LUYWunqrbz4kVdirLes9nLgaZ8i6UjmcilJTSVEgiiY57zoa36k6AN5zLE5xrjrTeSMQhOyWrBZs6jijiYyktNLaSfb7Me5l9fxdLZ7wGLx8rvljsj59/oT2EwEafmltl5d3qSxR5IBAEAQBAEAQBAEAQBAEBi4RwfFURmKWNr2nU7UdoOkHeFsrtnXLWg8meLK42R1ZrNHN8Yez+WG8lMTKzT3Z/eN4an+R3FTeH0nCfy2bHz4fohMRoycPmq2rlx/ZEC4tJa4EEZi1wIIOwg6FJLJrNEbm08mXGyrGR6Ui/BUOYcpri0+80kHqF5lFNZM9xm080byjxwrI83fZY2SgO8/W81yTwFEv85d3vI64Y66PHPvL9RjWZiDLEwHQXx3Gbe0k36qA0t8NQxMHOl5TW7Pc+xvyf4JbA6dlVJRtXy8cuHbl5ozWSAgEG4OghfObK51zcJrJrY096LnCcZxUovNPcypcvKWexHrcYMeMoheXRxseR6rnk2B2gDTxur/oX4Z6OKuxOyfCPLv7fLvKjpHT2tJ10bY8+fd2efcW6vHSsk0SNYNkbQPN1z5qzw0fRHhn3kHPH3S45dxoqmsfIcp73PO17i49SuuMIxWUVkckrHJ5yeZjulXvI8ORZdKvWR4ciT4AxGqKmz5bwx/EPG75WnRxd0Kj8RpGuvZD5n9jvw+jrLNs/lX3Ol4GwNBSMyIYw3a453OO1ztJ+g1KDuvndLObJymiFMdWCNgtJtCAIAgCAIAgCAIAgCAIAgCAIDW4XwDTVY/Gia46njwuHBwz8tC304m2rqP0NNuHrtXzohOFOzV4z004I9yfMeT2ix6BSlWlk9lkfFen7Iu3RTW2uX19SK1+Aaun/AHlPIAPaaMtv8zbgc1IV4mmzqyXl5kfZhrq+tF+Zrmz71vyNGsexMsZHrWM7B2FzFmtduzZvH5KB0zoCrSGU09Wa/wBZZ5rk1s8Hw7iX0ZpmzBfK1rQfDl2r8ryLmEMNGQZLRkt15853bgufQ/wzXgp9NbLXmt2zJLt7X28OHM3aT09PFw6OtaseO3a+zu7OP2NaZlZsiC1jw6dZyMaxm0GCamo/dU8jwfaDbN/ndZvmtVl9VfXkl75G2ui2zqxZKMF9m8z7GolbGPcj8buBJ8I81H26Vgtlaz7/AH6HfVoqb22PLuJrgXFilpLGOIF4/wBWTxP5E6OVlF3Yu27rPZyW4k6cJVT1Vt58TcrmOkIAgCAIAgCAIAgCAIAgCAIAgCAIAgCAIDDrMFQTfvIIn73sa49SFshdZDqya8TXOqufWin4GonxHoHm/o9j8D5G+QdbyXTHSGIX+vsjnlo/Dv8Az5mK/s8ojoEo4SH7hbFpO/s+hrejKOT+ob2d0Q/3jxf+QR6Uv7PoFoyjt+pkw4iUDc/cF3zSSHyyrLw9I4h/6+yPa0fh1/n7s2tJgWmhzx08LTtaxt+trrnnfbPrSb8TohRXDqxS8DPWk2hAEAQBAEAQBAEAQBAEAQBAEAQBAEAQBAEAQBAEAQBAEAQBAEAQBAEAQBAEAQBAEAQBAf/Z;" vertex="1" parent="1">
          <mxGeometry x="1277.98" y="383" width="110" height="110" as="geometry" />
        </mxCell>
        <mxCell id="NnL7JSWlf4hrcEAEEY_L-60" value="&lt;font style=&quot;font-size: 18px;&quot;&gt;Key Vault&lt;/font&gt;" style="text;html=1;align=center;verticalAlign=middle;whiteSpace=wrap;rounded=0;" vertex="1" parent="1">
          <mxGeometry x="1246.49" y="340" width="180" height="48" as="geometry" />
        </mxCell>
        <mxCell id="NnL7JSWlf4hrcEAEEY_L-62" value="" style="shape=image;verticalLabelPosition=bottom;labelBackgroundColor=default;verticalAlign=top;aspect=fixed;imageAspect=0;image=data:image/jpeg,/9j/4AAQSkZJRgABAQAAAQABAAD/2wCEAAkGBxIQEBUQExASFhUVFxUXFxIQFhUVGhgZGBIWFxcXFRgYHSggGhonGxgWIjEiJSkrLi4uFx81ODMtNygtLysBCgoKDg0OGxAQGy0lICUtLS0rKy0tLS0tMi8tLS0tLS8vLS0tLS0tLS0tLS0tKystLS0vLS8tLSstLS0tLS0tLf/AABEIAOEA4QMBEQACEQEDEQH/xAAbAAEAAQUBAAAAAAAAAAAAAAAABgEDBAUHAv/EAEEQAAEDAgALBAgDBwQDAAAAAAEAAgMEEQUGEiExQVFhcYGRBxMioRQyQlJicrHBI9HwFTOCkqLC4UNTY/EkRLL/xAAbAQEAAgMBAQAAAAAAAAAAAAAABQYBAwQCB//EADQRAAICAAIGCAYDAQEBAQAAAAABAgMEEQUSITFBURMyYXGBsdHwBiKRocHhFCNC8TNyJP/aAAwDAQACEQMRAD8A7igCAIAgCAIAgCAIAgCAo5wGcm3FAa+fD1LGbOqoAdhkZfpe63Rw9st0X9GaZYiqOxyX1MR+N1CP/aj5XP0C2LBYh/4ZreNoX+0G430J/wDaj55Q+oR4HEL/AAwsbQ/9oyYcYaN+ZtXATs7xgPQleJYa5b4P6GxYml7pL6mxY8OFwQRtButLTW82p5npYMhAEAQBAEAQBAEAQBAEAQBAEAQBAEAQBAWKysjhblyyNY0e08gDhn1r3CEpvKKzZ5nOMFnJ5Ih2Fe0iBmaCN0p9534bfMZR6BSVWirJbZvL7sjbdKVx2QWf2RFa/Heum0SCIe7C0D+p13dCFIV6PohvWfeR9mkL57nl3GiqJZJTeSSR52yOc/8A+iuuMYw6qS7jklKc+s2+88x0xJsASTqAuegWLLYVxc5tJLe28l9TMKpTkoxWbfBbWbKHF2Z3stb85/K6r9/xZo2p5Kbl/wDKb+7yX0JarQGNsWeqo979MysuLkwGhjtzXfmAvFPxdo2x5Nyj3x9Mz1Z8PYyCzST7n6pGumpC05LmkHYRZWCjE1Xw6SqSkuaeZE20Tqlq2RafJnmEvjOUx7mHaxxaeoW2SjJZSWZ4i5RecXkbugxxrof9cyAezOMvq71vNctmAw8/85d2z9HTXjsRDjn3+8yU4L7So3WbUQuZ8cXjbxLTnA4XUfbomS21vPsez39iQq0rF7LFl3bSZYNwnDUty4ZWPGvJOcfMNIO4qMspnW8prIkq7YWLODzMtazYEAQBAEAQBAEAQBAEAQBAEAQHieZrGl73BrWi5c4gADaSdCzGLk8lvMOSis2QDGHtEAvHSNudHfSDN/A3XxPQqYw+i/8AVv0X5IjEaUS+WpePoQSsqZah/eSyOe7a83tuA0AbgpaEIVrVgskRM5zsec3meWxL1mFEuiNYzPWRn02CZX2IjeGn23NIb1Onko7SGlMPganZbLuS3t8kveR2YXA3YiajBePBEmoaBkLbNGfW46T+ti+T6T0tiNIWa1r2cIrcvV9r29y2F5wWApwkNWC28XxfvkZVlG5naUsmYLNVSMlbkuFx5jeCuzA4+/BW9LRLJ8eT7GuP44ZHPicLViYalqzX3XcyM1eBZWE5LHvaPaY0mw+K2hfVtFaaox9WsmoyXWi3ufZzT4P8lGx2jLcLPLLOPBpefJmtMamcyO1S26JZzPLiUhe+JwfG9zHDQ5hIPULElGayks0Yi5QecXkya4A7RHttHVtyh/vRizh87BmPEW4FReI0Wntq+j9SUw+lGtlq8V6HQ6KsjmYJI3tew6HNNxw3HcoacJQerJZMmYTjNa0Xmi+vB6CAIAgCAIAgCAIAgCAIDVYwYfhoo8uV2c3yI2+s87hs2k5gujD4ad8so+LNGIxMKI5y8Ecmw/jDPXOvIclgPhhZfJGwn3nbzysrFh8LXQvl38yu4jFWXv5t3I1zIlvbNKiZtFQvlcGRsc9x1NF+Z2DeVrnZGCzk8kboVym8orNkzwTiA42dUSZP/HFYnm45hyB4qLu0mlsrWfa/QkqtGt7bH4Ik0OCqSjblthaCNDiMp5OwF2dQmP0o6q3O6Wzlz7EiVw2ChrZQjt5/s09bVOldlO5DUBuXz7GYyzFWa8/BcF74viWGqqNUckWLLkzNplU2DZZBcNzbXZhy2rvw+jcTetaEdnN7F6/Y0WYmuDybPU+CZWC5bcfCb+WlbLtE4upazjmuzb9t/wBjEMXVJ5Z/UwbKNzOkuU8zo3B7TYj9WO5b6L50TVlbya95PsPM4RnHVkb0U1NXMvJCwu13FnDg4Z7K/aM0s74a1csmt6971yZXsXgYp5TWfJkfwr2fg3dTy2+CXOOTgLjmDxU/TpR7rF4r0Im3Rq31vwfqQrCWC5ad2RLG5h1X0H5SMx5KUquhYs4PMi7KZVvKSyNe+JbkzS4mTgfC89FJ3kL7X9Zjs7HfM376d61XUV3RymvU9032UPOD8OB1jFjGiGubYeCUC7onHPxafabv62VexWDnQ9u1cywYbFwvWzY+RvVyHWEAQBAEAQBAEAQBAaLGvGWOhjvmdK71I9vxO2NHn9OvCYSV8uSW9nLisVGiO3fwRyGuq5KmUzSuLnu1nUNQaNQGxWSuuNcdWCyRXLLJWy1pPaGRrLYSJbi3ibJUWklvHHpHvvG4H1RvPTWo7E4+Nfyw2v7IkcNgZWfNLYvudEwdg6KnZkRMDRu0ne46SeKhLLZ2PObzJiuqFayisi5V1LYm5TjwGsnYFxYrFV4at2WP1b5I6Kq5WS1YkWrKp0rsp3IagFQ8ZjLMVZrz8FwS973xJqqqNcckWbLlzNhsMC0Ykfdwu1tjbadQ4aVMaFwUcTc5TWcY8Ob4eBy4u51wyW9klV3IcICP4fog0iRotlGzhv2/VVLT2CjXJXwWWbyffz8eP7JTBXOS1Hw3GnIVeJA908zo3BzTYj9WO5b6MROiasreTXvJ9h5nCM46siVYPrmzNuMxGluz/CvOBx0MXXrR2Nb1y/XJkJfRKqWT3cGXaulZKwskY1zTpa4XH/e9SEJyg84vJnNKEZrKSzRAcY8SHR3kprvbpMRzuHyn2hu08VM4bSKl8tmx8+H697iJxGAcfmr2rlx/fveQmSNSqZFuJaje+J4kY4te03a5uYgpJKS1ZLNHhOUJa0djR1fEzGxta3u5LNnaM41PA9pn3GpV7G4J0PWj1fIsODxivWT6xKFwHcEAQBAEAQBAEBqsZMOMooDK7O7Qxl7FztQ3DWTqC6MNh5Xz1V4s0YnERohrPwRxitq5KmV00rsp7jnOobABqA2Kz11xrioR3IrNlkrZOUt57ij1W6LLZlI6LinieGAT1Dbv0tiOhuwv2u3auOiExmPcvkr3cWTOEwSj89m/kTRRRJlmqqWxtynHgNZOwLmxWKrw1bssfq3yRsrrlZLViRisqnSuynchqAVCxmNsxVmvPwXBL3vfEmaqo1xyRZsuQ2CyA3WLrhZ7deY/VWn4bsWVkOOx/gjscuqzcq0EeEBrMYHDugNZcPK6gviCajhVF73JfbadmBX9mfYRwhU0lihCyZPVPM6Nwc02I/VjuW/D4iyixWVvJr3k+wxOEZx1ZEqwfXNmbcZiNLdn+FecDjq8XXrR2Nb1y/XJkJfRKqWT3cGZa7jQRfGrFNlSDLEA2bXqEm52x2/rukMJjXV8s9sfL3yOHFYNWfNHZLzOY1NO5jixzSHNNi05iDsKnoyTWaIKUGnkzGY90bxIxxa5pu1zdIIXtpSWrLczWm4PWjvOwYn4xtrobmzZWWEjB5Ob8J8jcbzWsZhXRPse4smDxSvhm963m/XGdYQBAEAQBAW55mxtc9xAa0FznHQABckrMYuTyW8xKSis2cUxlw06uqDKbhg8MbDqbfSfiOk8hqCtOFw6or1ePEq+KxDvs1uHAw42Lc2a0jo+I+LOQBVTN8ZzxsPsj3iPeOrZx0QmPxms+jhu4smsFhNVdJPfwJoookyzVVDY25Tjy1k7AubFYqvDVuyx+rfJGyuuVkskRmsqnSuynchqAVCxuNsxVmvPwXBL3vfEmKqo1xyRZsuM2FUAssGC9SzmNwcOm0bF1YTFTwtqth9Oa5HiytWR1WSCnwjG8esAdjs3/au2G0vhb49ZJ8ns/wC+BFTw1kHuz7j1NXxsFy8Hc3OfJbL9J4WlZymu5bX9EYhRZJ7ER+vqzK65zAaBs/yqXpDHyxlus9iW5e+LJWipVRyMQhcJuKELJk8kL0ZPVPO6Nwe02I89x3Lfh8RZRYrK3k17yfYYnCM46siV4PrmzNuMxGluz/CvWBx1eLr1o7Gt65frkyEvolVLJ7uDMpdpoIzjji2KphljA75o4ZYHsnfsPLh34LF9E9WXVf2OHGYXpVrR63mcslj1Ecj91YEyBkj1gnCMlHO2ePS3S29g5p9Zp3HyIB1LzdVG6DhIU2ypmpxO24Mr2VELJozdrxcbtoO8G4PBVW2uVc3CW9FprsjZFTjuZlLwewgCAIAgOe9qGHLBtEw5zZ8ttnsM5nOeDdqmNF4fa7Zdy9SH0piMkqo+PoQKFimWyIiiY4i4A9Ik754/DjOg6Hv0gcBmJ5b1G4/E9HHUjvf2RJ4HDdJLWluXmdOUAThbqJgxpc7QP1ZacRfCit2T3I9wg5yUURerqnSuynchsC+f43G2YuzXn4Lgl73viTNVUa45ItLjNhWywYFlgFbIYFkAsgKWQyUWQUWTJQhZMnkhZMnkhej0eqed0bg9psR57juXRh8RZRYrK3k17yfYeZwjZHVkSygqxMwOHAjYdiveCxccVUrI+K5MgrqXVLVZkrrNRAO0HAOSfS4xmJAlA1E5g/noO+20qZ0dic/6peHoRGkMPl/ZHx9SAysUumREkSzs0w53UxpHnwS52X1SW0fxDzA2qN0nh9eHSret/d+iQ0ZiNWfRS3Pd3/s6ioEnggCAICxXVbYYnyvNmsaXHgBfNvXuEHOSit7PM5qEXJ7kcKq6p9RM+Z/rSOLju2AbgLDkrZCCrgoR3Iqc5uybm+JlYPpHSyNiYLueQ0c9Z3DTyXmyahFye5G2uDnJRW9naMF0LaeFkLNDRa+06S47ybnmqtbY7Jub4llqrVcFFcDKWs2Gkxgmztj1AZR+g+/VVP4jxDcoUrd1n5L8kjgYbHPwNSFWTvKhYMFbLBgrZYMFUAQFEAsgKELJkoQsmTyQsmTyVkyeSvR6PJXpGTY4vz5MuTqeLcxnH36qb0FiHDEdHwkvutq/JyY6vWr1uRJ1ciGLc8LZGuY4AtcCCDrBFiFmMnFpreYlFSWTONYewYaad8Jz5J8JOtp9U9PMFWjD3K2tTRWr6XXNxZp3EtcHNJDmkEEaQQbgjmujJNZM5dsXmjt+LuFBV00c40ub4gNThmcOoPKyqmIpdVjgWrD2q2tT5myWk3BAEBB+1TCWRTspwc8rru+Rlj5uLehUroqrWsc3w82RelbdWtQXHyRzmFqnGQsUT7s2wZdz6kj1fAziRdx6WH8RUPpO7JKtcdrJfRtWbdj7kdAUMS4QEdw2PxjwCo+n8/5j7l+SWwf/AJGAFCHSegsGCqwYNXVudlm99ObhqW+OWR3VKOqsizlHaV6yPeSGUdpTIZIZR2lMhkhlHaUGSGUdpQZIplHaUM5IZR2lBkjZxXyRfTZanvOKWWbyKlZQPJXoyZGCx+Oz5vsVIaMz/l15c/wzVif/ABl3EvV+IEICHdo+DcuFtQBnjOS75XHN0db+YqT0ZdlN1vj5kbpGrOCmuHkczmap1EHJE17KcI2fLSk5j+KziLNf5ZHQqK0tVsjYu5/j8kpoq3bKt96/J0hQhNBAEBx3tAre+wg8XzRBsY5DKd/U4jkrLo+vUoT57St6Qs172uWw08YXWznidnxbofR6WKO2fJBd8zvE7zNuSq2Ks6S2Uiy4avo6lE2a0G8IDT4fg9WQasx+336qr/EeFbUb1w2P8ffzO/BWb4eJpwqmSB6CweSqwDGlrGtNrE22L2oNm6NMmszx6e3YfJZ6Nmf48uY9PbsPknRsfx5cx6e3YfJOjY/jy5j09uw+SdGx/HlzHp7fdPknRsfx5cyhr27D5LPRsz0EuZT05uw+SzqMz0EuZkNdcXGteTU1k8mUK9IHgrKPSNpi9TXkMmposOJ/xfqrBoDDOdzue6Oxd79F5nFjrMoanMkat5EhAWK6mE0T4naHtLTzFrr3XNwkpLgeZwU4uL4nEKqEscWOGdpLSN4Nj5q1xkms0VacWnky7i3W+j1sMt7APDXfK/wO8jfkvGKr6SmUezy2nrDWdHdGXb5ncVVC0hAUc6wudSA4DLOZZXynS97nn+Jxd91cIx1IqPJZFQlLXm5c3mbXAFL3tTFHbM57bj4Qbu8gVpxE9SuUuw6cPDXsjHtO1KqlmCAIDzIwOBaRcHSF4srjZBwms095mMnF5ojldRGI7WnQfsd6oGktGzwc+cXuf4fb57+aUvTcrF2mMow2lVgGHNQ3JIdpz51tVmSOiF+SyaLf7PPvDos9Iev5C5D9nn3h0TpB/IXIfs8+8OidIP5C5D9nn3h0TpB/IXIfs8+8OidIP5C5A4PPvDonSD+QuRT0A+8Oia5np1yMtjMkAbF5zNDebzKFZBeo6R0rslvN2oBduCwdmKs1IeL4Je9y4ni26NUc2SmmgbG0MaMw895V9w2Hhh61XDcveZCWWOyWtIureeAgCA5LjxS93Wy5sz7PH8Qz/wBQcrJgZ61EezZ78CvY6Grc+3aRaoau5EfI7vgeq76nil9+NjjxLQT5qo3Q1LJR5Nltqnr1xlzSMxazYa7GObu6OoeNIhkI45Bt5rdh461sV2rzNOIlq1Sa5M4dThWxlViS/s+hyq1p9xj3eWT/AHKO0jLKh9rXr+CS0fHO5difp+TqarxPBAEAQHiWMOBaRcFarqYXQddizTPUZOLzRHq6jMR2tOg/Y71QNJaNng7Mt8Xuf4fb57+6VpuVi7TGUabggCAIAgCAIChWQeSsmShXo9FykpXSuyW8zsC7MFg7MVZqQ8XwS97lxPFtsa45sk9LTNjbktHE6ydpV9wuFrw1arrXq3zZDWWSslrSLy6TWEAQBAc77TYbTRP95hb/ACuv/epvRcvkku3z/wCEPpOPzxfZ5f8ASBzhSyIiR17s+my8HQ30jLb/ACyOA8rKt6QjliJeHkWPR8s8PHP3tJEuI7DR47utg+o+S3VwH3XVglniId5y415UT7jjUCs7K1EnPZm3/wAmQ7IiOr2fkorSj/qXf+GSujV/Y32HSFBk0EAQBAEB4miDwWkXBWq+iF8HXYs0z1GTi80R6uozE7aDoP2O9UDSOjp4OzJ7Yvc/w+0lablYu0xlGm4IAgCAIAgKFZB5Kyei7S0zpHZLeZ2DaV2YPB2YqzUh4vgkeLLI1xzZJaSmbG3JbzO07Sr9hMJXha1XX4vi3zZD22yslmy8uo1hAEAQBAQbtPb4YDvkHUM/JS+intl4fki9JrZF9/4OczqaRCSOpdmLr0AGySQeYP3Vf0mv7/BE/ox/0LvZLVHEgaLHht8H1HyX6OBXXgX/APoh3nLjVnRPuONwKzMrMSddmbv/ACJB/wAR8nt/NRWlF/Wu/wDBL6N/9H3HR1BkyEAQBAEAQHiaIPaWuFwVpvorvrddizTPUJuLzRHa2kMTrHODoP61qgaR0fZg7Mnti9z98SWqtViz4mOo42hAEAQBZB5KyZLlNTukdkt5nUBtK68HhLMVZ0dfi+CR4ssjXHNkkpKZsbckcztKv+DwdeFr6OHi+LZEW2yslmy+uo1hAEAQBAEBB+093hgG+Q9Az81LaKW2Xh+SL0nuj4nOJ1NohJHUezBtqC+2SQ/QfZV/Sj/v8ET+jF/R4slyjiQNZjNFl0VQ0aTDJYbwwkea34aWV0H2rzNOJWdMl2M4hTlWtlViTHs7lya0D343t+jv7VG6SjnR3Nen5JPR7yu8GdRVfJ0IAgCAIAgCAtzwh7S1wzH9ZloxGHrxFbrsWaZ6hNweaI5WUxjdkniDtC+e4/BTwd3Ry2renzXveS1VisjmiyuI2hAFkFEMnungdI7Jb12DaV1YTCWYqxV1rvfBLmzxZZGEc2SSkpWxNyRzO0r6BgsFXhK9SHi+LZEW2yslmy+us1hAEAQBAEAQHPe06W8sLPdY938zgP7FNaKj8sn2r7f9IfSb+aK7H7+xAZypdERI652dxZODofiMjusrreVlW9IvPES8PIsWj1lh4+PmSRcR2nmRgcC06CCDzWU8nmYazWRwAxGN7ozpY5zTxaSD9FcFJSSkuJUdVxk4vgbvFqq7qqhfqD2g8HeEnoSubFQ16pLs/Z1YaerbF9vnsOzKrllCAIAgCAIAgCA02HvWZwP1CqPxN16+5/gkMFuZqlWDtCApdZMlCUMm7wDI3JLfavc7xqVx+Hbauida6+eb7Vw78vt4kbjYy1k+BtVYziCAIAgCAIAgCA5Rj5Vd5WvGpgawchlHzceisWj4atC7dpAY+etc+zYROocpBEdI7pgCl7mlhiOlsbAeOSL+d1U8RPXtlLm2WuiGpXGPJIz1pNoQHGceaLucISi1hJaUfxjxf1h6s+As18PHs2fT9FZx1epiH27ffiauMrpZpidswHW9/Txy63NF/mGZw/mBVVvr6OyUeRZ6LOkrUjOWk2hAEAQBAEAQGlxg9ZnA/UKpfEvXr7n+CRwO5mirneDmFW4LaSVK+Y80DiWcD9gk1tM3L5jJuvORqKLIKskLSHA2I0EL3XZOuSnB5NbmHFSWTJJg2t71t7WcNI+4V90ZpBYyrNrKS3+q7GQ+Ip6KXY9xmKSNAQBAEAQBAW6iYRsdI42a0FxO4C5XqMXJqK4mJSUU2zh9bUGR7pHaXuc48XEk/VWuEVGKiuBVpycm5PiecDUXpFXDDa4e9uUPhHif/SCl9nR1SnyX/DFFfSWxj2ndlUi1hAEBAe1bB144qoD1CWP+V2dpO4OFv41L6Jtyk63x2r373ETpWrOKsXDZ9Tn8LlNMh4s6J2a4SzPpidH4jOGYOHWx5lQuk6d1i7n+CZ0bbsdb71+SdKIJUIAgCAIAgCA0mMPrM4H6hVL4l69fc/wSOB3SNBXepzCrkN5KU9YpQHwnj9gk95m/rGTdeTSUusmT3BC57g1ouT+rnct2Hw9l9irrWbfvN9h5nNQjrSJPQUYibYZydJ2n8lfcBgYYSvUjtb3vm/TkQ11ztlmzJXcaQgCAIAgCAinaHhLu6cQg+KU2PyNsXdTYcypHRtOtZrvcvM4NIW6tequPkcumcp9EDJku7LMHZc8lSRmjbkN+Z2c24NH9ajNK25QVa47ffvgSOiqs5ux8Nh05QROBAEBiYXoG1MEkDtD2kX2HU4bwbHktlNjrmprga7a1ZBwfE4W+J0T3RvFnMcWuG8GxVsUlKKktzKo4uEnF70bHBFe6CZkzdLDe20aC3mLjmtV1asg4Pib6bHXJSXA7RR1LZY2ysN2vAIPHbvVWnBwk4veizQmpxUluZeXk9BAEAQBAEBo8YvWZwP1CqfxJ16+5/gksBukaCtPg5hVyO8lKesUofVPH7BJbzN3WMi6xkacil0yMmwwJVtjeQ7NlWGVstt3Z1N6ExleHtcbNilks+WX4eZy4ymU4px4cCSq6kOEAQBAEAQFHuABJNgM5J1DeiWewN5HHcZ8LelVDpfZ9VgOpo0dc55qz4Wjoq1Hjx7yt4m7pbHLhw7jQTO/6C60ccjtWKWCfRKSOIjxkZUnzuznpmbwaFVsXd01rlw4dxZ8JT0NSjx495uFzHSEAQBAc17T8CZD21rBmfZkttTgLMdzAtyG1Tmi8RmuifDavyQmlMPk1au5/ghcL1KtEZFk67P8AD3du9FkPhebxk6nHS3gdW/ionSOG1l0kd6393697iWwGI1X0ctz3d/797zoihCYCAIAgCAIDQ4yHxM4O+oVU+I+vX3P8EngOrLwNBWHw8wq5HeSlXWKUR8J4/YLMjN3WL915yNWRS6yZKErOQJJi9K90ZDtANmk+Y4BXHQVts6Gp7k8ov8eH64ETjoQjNNb3vNqpw4QgCAIAgIV2g4dyG+iMPicLyEam6mcTr3cVK6Ow2b6WXh6+/wAEZpDEZLo4+JziV6m0iFkyQ9nmBfSanvnD8OAh2f2pNLBy9Y8G7Vw6RxHR16i3y8vew7NHUdJZrvdHzOtqulhCAIAgCAsV9GyeJ8Mgux4LSOOzYdd17rnKElKO9HmcFOLjLcziGGcGPo6h0D9WdrveafVcP1pBCtVF0bq1OPtlWuplTY4P2i3E9e2jCZ1LEzGQVLBDIfxmjSf9QD2h8W0c+FfxuE6J68eq/sT2DxXSLVl1l9yUKPO4IAgCAIDQYzeszg76hVX4i69fc/wSmj+rLwI/Vnw8wq6iUq6xSjPh5/YIzNu8vXWMjXkLrIM3BND3zzc2a2xNtJvoA6FSejMB/Lsak/lW/wBDnxV/RR2b3uJXGwNAAFgNACu8IRhFRiskiDcnJ5s9L0YCAIAgNHjTh9tHHmsZXDwM/ud8I89G23XhMK7pdi3nLisSqY9vA5LUzue4vc4lziSXHSSdJKscYpLJFenJt5ssUtM+eVsMYu95sB9SdwFydwWZzjXFzluR4hCVk1CO9nbcA4JZSU7IGZ8keJ2tzj6zjxPQWGpVa+53WObLRRTGmCgjYLSbggCAIAgCA0ON+Lra6GwsJWXMbzt1td8J8sx1LrweKdE8+D3nJjMKr4ZcVuOPPY6N7o3tLXNJDmnSCFZk1Ja0dzK204S1ZbzJpqhzHB7XEOaQQ4ZiCNYXiUU1kzZGTTzR1DFTGptUBFIQ2Ycg/e3ftHTdAYvBOp60dsfInsLjFb8sut5kmXAdoQBAEBHsaD4mcHfUKrfEXXr7n+CV0d1ZeBH6o+Hmq6StfWKUh8PP7BBbvL10NeRS6yZMjB9c6F+UM4Olu0fmuzBYyeFs147uK5r15Gm+iNscn4EvpalsrQ9puD5HYd6vGHxFd9asrez3sZBWVyrlqyLy3GsIAgNJjLjHHRttmdKR4Y/7n7G/XrbrwuElc+S5nLicVGlc3yOU4QrnzSOkkcXOdpJ8gNg3Kw11xhFRithAWWSnLWlvNfI8k2AJJzADOSdQC27jQ3nsR1XETFf0SPvpQO/kGcf7bdOQN+snlqua9j8Z00tWPVX37fQsGAwnQx1pdZ/bs9SWKPJAIAgCAIAgCAICK46YptrG97HZs7RmOgPA9l2/Yf0O/BY10vVl1fI4Mbg1ctaPW8zlL2ujcWPaWuabOa7MQd6sSaks1uK+04vVlvL8Umgg6NY+oXlo9qROsXMeC20dTcjQJgLkfONfEZ9x0qJxOjs/mq+noSuH0hl8tn19SdwTNkaHscHNOcOaQQeBCh5RcXk1tJaMlJZouLBkICO41etHwd9Qqv8AEPXr7n+CW0b1ZeBHqj1VXiVr3lKbRzQWby7dMjxkUus5AXWUjJLMAULomEu0vscnZbbvVx0Rg54epue+W3Ll++ZB42+Nsko7lxNopY4ijnAAkkADOSc1uKJZ7hnkQvGLHhrLx01nO1ynO0fIPaO/RxUrhtHN/Nbs7OPj7+hGYjSCXy1/Xgc+qahz3F7nFziblzjck7ypmMVFZIh5TbebMR7yTYXJOYAZyTsC97jU3nsR0nEbE7uLVNQ38XSyM/6e8/H9OOiDx2O6T+uvdxfP9E5gcD0f9lm/guX7JwoolAgCAIAgCAIAgCAICP41YqxVzcr1JgPDKB/S8e03zGrXfswuMnQ8t65ehx4rBwvWe58zk+FMGzUkndTMLTnsdLXDa06x5jXZWGq6F0daDK/bVOmWrNFpkq9tHlSNpgnDU1M7KikIvpac7Txb99K0XYeu1ZTXqdFN86nnFk4wTj7E+zZ2GN3vNu5p5esPPiom7Rk47a3n5krVpGD2TWXkSqkrI5W5UcjXjawg9baFHzrlB5SWR3wnGazi8zGw1g/vmZvWbctvr2j6dFFaTwP8qv5est3p4nZhMR0Mtu57yHvaWkgixGYg6lTJQlGTjJZNE8mms0UuvJnIpdMjOQWcgSfAeB8i0kg8Wpp9njv+itWi9F9Flbavm4Ll+/IhsZjNf5IbvP8ARt6idkbcp72taPaeQ0dSp6MXJ5RWZGykorNvIjOFceaeK4iBldtHhZ/MRn5A8V306NsltnsX3OG3SFcdkdr+xBsNYwz1X7x/h1RszN6a+d1LUYWunqrbz4kVdirLes9nLgaZ8i6UjmcilJTSVEgiiY57zoa36k6AN5zLE5xrjrTeSMQhOyWrBZs6jijiYyktNLaSfb7Me5l9fxdLZ7wGLx8rvljsj59/oT2EwEafmltl5d3qSxR5IBAEAQBAEAQBAEAQBAEBi4RwfFURmKWNr2nU7UdoOkHeFsrtnXLWg8meLK42R1ZrNHN8Yez+WG8lMTKzT3Z/eN4an+R3FTeH0nCfy2bHz4fohMRoycPmq2rlx/ZEC4tJa4EEZi1wIIOwg6FJLJrNEbm08mXGyrGR6Ui/BUOYcpri0+80kHqF5lFNZM9xm080byjxwrI83fZY2SgO8/W81yTwFEv85d3vI64Y66PHPvL9RjWZiDLEwHQXx3Gbe0k36qA0t8NQxMHOl5TW7Pc+xvyf4JbA6dlVJRtXy8cuHbl5ozWSAgEG4OghfObK51zcJrJrY096LnCcZxUovNPcypcvKWexHrcYMeMoheXRxseR6rnk2B2gDTxur/oX4Z6OKuxOyfCPLv7fLvKjpHT2tJ10bY8+fd2efcW6vHSsk0SNYNkbQPN1z5qzw0fRHhn3kHPH3S45dxoqmsfIcp73PO17i49SuuMIxWUVkckrHJ5yeZjulXvI8ORZdKvWR4ciT4AxGqKmz5bwx/EPG75WnRxd0Kj8RpGuvZD5n9jvw+jrLNs/lX3Ol4GwNBSMyIYw3a453OO1ztJ+g1KDuvndLObJymiFMdWCNgtJtCAIAgCAIAgCAIAgCAIAgCAIDW4XwDTVY/Gia46njwuHBwz8tC304m2rqP0NNuHrtXzohOFOzV4z004I9yfMeT2ix6BSlWlk9lkfFen7Iu3RTW2uX19SK1+Aaun/AHlPIAPaaMtv8zbgc1IV4mmzqyXl5kfZhrq+tF+Zrmz71vyNGsexMsZHrWM7B2FzFmtduzZvH5KB0zoCrSGU09Wa/wBZZ5rk1s8Hw7iX0ZpmzBfK1rQfDl2r8ryLmEMNGQZLRkt15853bgufQ/wzXgp9NbLXmt2zJLt7X28OHM3aT09PFw6OtaseO3a+zu7OP2NaZlZsiC1jw6dZyMaxm0GCamo/dU8jwfaDbN/ndZvmtVl9VfXkl75G2ui2zqxZKMF9m8z7GolbGPcj8buBJ8I81H26Vgtlaz7/AH6HfVoqb22PLuJrgXFilpLGOIF4/wBWTxP5E6OVlF3Yu27rPZyW4k6cJVT1Vt58TcrmOkIAgCAIAgCAIAgCAIAgCAIAgCAIAgCAIDDrMFQTfvIIn73sa49SFshdZDqya8TXOqufWin4GonxHoHm/o9j8D5G+QdbyXTHSGIX+vsjnlo/Dv8Az5mK/s8ojoEo4SH7hbFpO/s+hrejKOT+ob2d0Q/3jxf+QR6Uv7PoFoyjt+pkw4iUDc/cF3zSSHyyrLw9I4h/6+yPa0fh1/n7s2tJgWmhzx08LTtaxt+trrnnfbPrSb8TohRXDqxS8DPWk2hAEAQBAEAQBAEAQBAEAQBAEAQBAEAQBAEAQBAEAQBAEAQBAEAQBAEAQBAEAQBAEAQBAf/Z;" vertex="1" parent="1">
          <mxGeometry x="1281.49" y="1070" width="110" height="110" as="geometry" />
        </mxCell>
        <mxCell id="NnL7JSWlf4hrcEAEEY_L-63" value="&lt;font style=&quot;font-size: 18px;&quot;&gt;Key Vault&lt;/font&gt;" style="text;html=1;align=center;verticalAlign=middle;whiteSpace=wrap;rounded=0;" vertex="1" parent="1">
          <mxGeometry x="1250" y="1027" width="180" height="48" as="geometry" />
        </mxCell>
        <mxCell id="NnL7JSWlf4hrcEAEEY_L-64" value="" style="endArrow=none;dashed=1;html=1;rounded=0;strokeWidth=3;strokeColor=#0000FF;" edge="1" parent="1">
          <mxGeometry width="50" height="50" relative="1" as="geometry">
            <mxPoint x="560" y="340" as="sourcePoint" />
            <mxPoint x="1240" y="340" as="targetPoint" />
          </mxGeometry>
        </mxCell>
        <mxCell id="NnL7JSWlf4hrcEAEEY_L-65" value="" style="endArrow=none;dashed=1;html=1;rounded=0;strokeColor=#0000FF;strokeWidth=3;" edge="1" parent="1">
          <mxGeometry width="50" height="50" relative="1" as="geometry">
            <mxPoint x="560.49" y="503.12" as="sourcePoint" />
            <mxPoint x="560" y="340" as="targetPoint" />
          </mxGeometry>
        </mxCell>
        <mxCell id="NnL7JSWlf4hrcEAEEY_L-66" value="" style="endArrow=none;dashed=1;html=1;rounded=0;strokeColor=#0000FF;strokeWidth=3;" edge="1" parent="1">
          <mxGeometry width="50" height="50" relative="1" as="geometry">
            <mxPoint x="560.8199999999999" y="1178.8799999999999" as="sourcePoint" />
            <mxPoint x="560" y="1015.76" as="targetPoint" />
          </mxGeometry>
        </mxCell>
        <mxCell id="NnL7JSWlf4hrcEAEEY_L-67" value="" style="endArrow=none;dashed=1;html=1;rounded=0;strokeColor=#0000FF;strokeWidth=3;" edge="1" parent="1">
          <mxGeometry width="50" height="50" relative="1" as="geometry">
            <mxPoint x="1250.49" y="503.12" as="sourcePoint" />
            <mxPoint x="1250" y="340" as="targetPoint" />
          </mxGeometry>
        </mxCell>
        <mxCell id="NnL7JSWlf4hrcEAEEY_L-68" value="" style="endArrow=none;dashed=1;html=1;rounded=0;strokeColor=#0000FF;strokeWidth=3;" edge="1" parent="1">
          <mxGeometry width="50" height="50" relative="1" as="geometry">
            <mxPoint x="1250.49" y="1192.53" as="sourcePoint" />
            <mxPoint x="1250" y="1020" as="targetPoint" />
          </mxGeometry>
        </mxCell>
        <mxCell id="NnL7JSWlf4hrcEAEEY_L-69" value="" style="endArrow=none;dashed=1;html=1;rounded=0;strokeWidth=3;strokeColor=#0000FF;" edge="1" parent="1">
          <mxGeometry width="50" height="50" relative="1" as="geometry">
            <mxPoint x="560" y="1016" as="sourcePoint" />
            <mxPoint x="1250" y="1016.24" as="targetPoint" />
          </mxGeometry>
        </mxCell>
        <mxCell id="NnL7JSWlf4hrcEAEEY_L-70" value="" style="endArrow=none;dashed=1;html=1;rounded=0;strokeWidth=3;strokeColor=#CC0000;" edge="1" parent="1">
          <mxGeometry width="50" height="50" relative="1" as="geometry">
            <mxPoint x="570" y="750" as="sourcePoint" />
            <mxPoint x="1520" y="750" as="targetPoint" />
          </mxGeometry>
        </mxCell>
        <mxCell id="NnL7JSWlf4hrcEAEEY_L-72" value="" style="endArrow=none;dashed=1;html=1;rounded=0;strokeWidth=3;strokeColor=#0000FF;" edge="1" parent="1">
          <mxGeometry width="50" height="50" relative="1" as="geometry">
            <mxPoint x="1210" y="506" as="sourcePoint" />
            <mxPoint x="1250" y="506" as="targetPoint" />
          </mxGeometry>
        </mxCell>
        <mxCell id="NnL7JSWlf4hrcEAEEY_L-74" value="" style="endArrow=none;dashed=1;html=1;rounded=0;strokeWidth=3;strokeColor=#0000FF;" edge="1" parent="1">
          <mxGeometry width="50" height="50" relative="1" as="geometry">
            <mxPoint x="1205" y="1196.33" as="sourcePoint" />
            <mxPoint x="1250" y="1196" as="targetPoint" />
          </mxGeometry>
        </mxCell>
        <mxCell id="NnL7JSWlf4hrcEAEEY_L-75" value="" style="endArrow=none;dashed=1;html=1;rounded=0;strokeWidth=3;strokeColor=#0000FF;" edge="1" parent="1">
          <mxGeometry width="50" height="50" relative="1" as="geometry">
            <mxPoint x="1250" y="1124" as="sourcePoint" />
            <mxPoint x="1290" y="1124.17" as="targetPoint" />
          </mxGeometry>
        </mxCell>
        <mxCell id="NnL7JSWlf4hrcEAEEY_L-77" value="" style="endArrow=none;dashed=1;html=1;rounded=0;strokeColor=#FF00FF;strokeWidth=3;" edge="1" parent="1">
          <mxGeometry width="50" height="50" relative="1" as="geometry">
            <mxPoint x="-120" y="1435.41" as="sourcePoint" />
            <mxPoint x="-120" y="570" as="targetPoint" />
          </mxGeometry>
        </mxCell>
        <mxCell id="NnL7JSWlf4hrcEAEEY_L-78" value="" style="endArrow=none;dashed=1;html=1;rounded=0;strokeWidth=3;strokeColor=#FF00FF;" edge="1" parent="1">
          <mxGeometry width="50" height="50" relative="1" as="geometry">
            <mxPoint x="40" y="1440" as="sourcePoint" />
            <mxPoint x="1760" y="1440" as="targetPoint" />
          </mxGeometry>
        </mxCell>
        <mxCell id="NnL7JSWlf4hrcEAEEY_L-80" value="" style="endArrow=classic;html=1;rounded=0;entryX=1;entryY=0.5;entryDx=0;entryDy=0;strokeWidth=3;strokeColor=#FF00FF;dashed=1;" edge="1" parent="1">
          <mxGeometry width="50" height="50" relative="1" as="geometry">
            <mxPoint x="1760" y="1440" as="sourcePoint" />
            <mxPoint x="1760" y="1163.17" as="targetPoint" />
          </mxGeometry>
        </mxCell>
        <mxCell id="NnL7JSWlf4hrcEAEEY_L-81" value="" style="endArrow=none;dashed=1;html=1;rounded=0;strokeWidth=3;strokeColor=#FF00FF;" edge="1" parent="1">
          <mxGeometry width="50" height="50" relative="1" as="geometry">
            <mxPoint x="-120" y="1196" as="sourcePoint" />
            <mxPoint x="-80" y="1196" as="targetPoint" />
          </mxGeometry>
        </mxCell>
        <mxCell id="NnL7JSWlf4hrcEAEEY_L-82" value="" style="endArrow=none;dashed=1;html=1;rounded=0;strokeWidth=3;strokeColor=#FF00FF;" edge="1" parent="1">
          <mxGeometry width="50" height="50" relative="1" as="geometry">
            <mxPoint x="-120" y="570" as="sourcePoint" />
            <mxPoint x="-80" y="570" as="targetPoint" />
          </mxGeometry>
        </mxCell>
        <mxCell id="NnL7JSWlf4hrcEAEEY_L-84" value="" style="rounded=0;whiteSpace=wrap;html=1;strokeColor=#000000;strokeWidth=2;" vertex="1" parent="1">
          <mxGeometry x="893.51" y="800" width="170" height="110" as="geometry" />
        </mxCell>
        <mxCell id="NnL7JSWlf4hrcEAEEY_L-85" value="&lt;font style=&quot;font-size: 18px;&quot;&gt;Auth Provider&lt;/font&gt;" style="text;html=1;align=center;verticalAlign=middle;whiteSpace=wrap;rounded=0;" vertex="1" parent="1">
          <mxGeometry x="890" y="802" width="180" height="48" as="geometry" />
        </mxCell>
        <mxCell id="NnL7JSWlf4hrcEAEEY_L-83" value="" style="shape=image;verticalLabelPosition=bottom;labelBackgroundColor=default;verticalAlign=top;aspect=fixed;imageAspect=0;image=https://keydata.ca/assets/images/CIAM_Icon.png;" vertex="1" parent="1">
          <mxGeometry x="952.63" y="844.02" width="51.77" height="61.97" as="geometry" />
        </mxCell>
        <mxCell id="NnL7JSWlf4hrcEAEEY_L-86" value="" style="rounded=0;whiteSpace=wrap;html=1;strokeColor=#000000;strokeWidth=2;" vertex="1" parent="1">
          <mxGeometry x="897.02" y="160" width="170" height="110" as="geometry" />
        </mxCell>
        <mxCell id="NnL7JSWlf4hrcEAEEY_L-87" value="&lt;font style=&quot;font-size: 18px;&quot;&gt;Auth Provider&lt;/font&gt;" style="text;html=1;align=center;verticalAlign=middle;whiteSpace=wrap;rounded=0;" vertex="1" parent="1">
          <mxGeometry x="893.51" y="162" width="180" height="48" as="geometry" />
        </mxCell>
        <mxCell id="NnL7JSWlf4hrcEAEEY_L-88" value="" style="shape=image;verticalLabelPosition=bottom;labelBackgroundColor=default;verticalAlign=top;aspect=fixed;imageAspect=0;image=https://keydata.ca/assets/images/CIAM_Icon.png;" vertex="1" parent="1">
          <mxGeometry x="956.1400000000001" y="204.01999999999998" width="51.77" height="61.97" as="geometry" />
        </mxCell>
        <mxCell id="NnL7JSWlf4hrcEAEEY_L-89" value="" style="endArrow=classic;startArrow=classic;html=1;rounded=0;entryX=1;entryY=1;entryDx=0;entryDy=0;exitX=0.5;exitY=1;exitDx=0;exitDy=0;" edge="1" parent="1" source="NnL7JSWlf4hrcEAEEY_L-84" target="NnL7JSWlf4hrcEAEEY_L-24">
          <mxGeometry width="50" height="50" relative="1" as="geometry">
            <mxPoint x="1030" y="850" as="sourcePoint" />
            <mxPoint x="1080" y="800" as="targetPoint" />
            <Array as="points">
              <mxPoint x="979" y="990" />
              <mxPoint x="1090" y="990" />
            </Array>
          </mxGeometry>
        </mxCell>
        <mxCell id="NnL7JSWlf4hrcEAEEY_L-90" value="" style="endArrow=classic;startArrow=classic;html=1;rounded=0;entryX=1;entryY=1;entryDx=0;entryDy=0;" edge="1" parent="1">
          <mxGeometry width="50" height="50" relative="1" as="geometry">
            <mxPoint x="990" y="270.12" as="sourcePoint" />
            <mxPoint x="1101" y="503.12" as="targetPoint" />
            <Array as="points">
              <mxPoint x="990" y="305.12" />
              <mxPoint x="1101" y="305.12" />
            </Array>
          </mxGeometry>
        </mxCell>
        <mxCell id="NnL7JSWlf4hrcEAEEY_L-91" value="" style="shape=image;verticalLabelPosition=bottom;labelBackgroundColor=default;verticalAlign=top;aspect=fixed;imageAspect=0;image=data:image/png,iVBORw0KGgoAAAANSUhEUgAAAMAAAACICAYAAACx1+QGAAAAAXNSR0IArs4c6QAAAARnQU1BAACxjwv8YQUAAAAJcEhZcwAAFxEAABcRAcom8z8AAB+bSURBVHhe7V0JfFTVvUYgeyaZSSaZ7Jmsk0z2HbKvELKzhARIQgRJq2BblCXGKi5F8aGU1ac8f/UVqDUGn7VareX5QlsEo1hiG/ueK8aKWjeiFS0umX7/k9z77lwGEmCSuTM53+/3/ebce+4592zfOf//vXfuneZIWLVqVWBmZmbi1VdfvaChoWG5wWBYFhgYeFV1dfXWefPm7Zk9e/au5OTkXdHR0bsCAgJ2eXp67nR1dd2Tm5t7JC8v78WsrKy+tLS0vsTExL7Y2Ng+vV7fFxoa2ufv79+n0Wj61Gp1H9L0IU2fk5NTH055FNsDyPMbpDMlJSWZEhISTPHx8aa4uDgT8jDhXKaoqCgT8jKFh4ebkB8jyiUSZTHhHOfQ19fX5OPjcw69vb1NXl5e59DDw+OCVKlUFtOhbuecg85tqUw6nc6s7MHBwaw+YWFhrI6RkZGszlR3agNqC2oTtKkJ7WTKzs42hYSEnELbPTdjxgzWlihbH8rG2tjPz68P+fahrVgfII8+pOtDv/ah//qKi4tfRNzDLi4uO7Ra7S6ccxfOsQt9t6usrGx3fX39DrT3auSxrKSkpK2jo6OlsbExH3GRJpNpOhsojobe3l41GuC6iIiIkxiQJuzi5BSJycoUFBT01axZs362cuXKeOxzHOzcuTMOM++vaXbDJifneTlz5kxahV9pbm6uxrb9Y/PmzbqUlJRnnZ2dLVZ4+vTprNL0e8UVV7BfLLuMtJ9IswOR9lEaOu58pPQXopC3I9JSfS+FltpVSqHvKCz0jdBXRHmZhDQUFvqRwkI+ctLxMNM+Wbp0aQm27Ruw8W6hRkFQpLu7u8nNze3vMIXehD05ABtyAHbrM1ghfgm7sBuV78aK0Q2bvRv2aDfs/+7S0tKD2Hcv0m9A+i7YxV2wgxlhZ3YhHSNs3S7MIIywM7vgY4iEHdqFPCaEqampXbCBrUrK09K5zkeqn7S+Y5HaR2grKYW2hD8htjG1N5HaHpNZFwZwJ/yCW4qKih4Gu2H7d6PMrM9Qlm6j0cj6kfoT6bsxBh5CXz+F+AH4HwPwqQaQ/q/gIHyMD/B7lsQhjBESAXyS/x4YGPDEtn3i3nvv1aBB30ZQrBQG6+f5+fl3bNiwYdYXX3wRwA7kmJKAw+t09OjR6LVr12bX1tZ2QMC/JYdfWDHg5J+BUPUjR9shWlpaUqDqLxBkFcLM8XVVVVUni+TgkAGCcE9PT98CE+kr2iSzuampad5IrB2ioaGhBQL4GkGmaiyH7+3fv99rJJaD41wEBQXFwrz6GEE2aZaXl69iEfYIqPlq2H7fIcgEAHPo2ZEYDg7LgI+RgrEiCgA+YBeLsEeQY4YVYBhBJoCUlJRfOeyNDg6rwNvbO1UqgOLi4n9nEfaIkpKSPS4uLqwiJAC9Xr97JIbj9ttvD6+rqytZvHjxwgULFlQtX748Y2hoyGc0espCLgCj0UhX/uwTWAF2SS9tBQQE3MkipjDuuuuu9MTExIfUavUJ8EM/P7+vfH19hzQazVtarfa5nJycO+z60t9lQi4AnU5nvwKAzb9LuAdAK0BcXNxdIzFTE9u3b9cZDIZjrq6u4qQgJ0RgqqqqakV4SkIuALSV/VoN9CAU3fVDkAkgOTl5SgugrKyskm4CInheYlUwwSRaifCUhFwAmEQfYRH2CHoakAY+gkwAqampU1oAzc3NQeQHYZD/GWbPp4GBgd9iiT+rUqlOYd9r2H4eJtCuRx99NHA0yZSDXAAFBQXHWYQ9Ijg4+CGpCZSZmTmlBSCgqakptqioqLimpqZ2HpCenp6Dn6T9+/eHjB4yZSEXQFZW1gsswh6BwvcK9i4JANtcABwXhFwASUlJ9iuAtLS0w9LLoFwAHGNBLoCYmBj7FYDRaOyVCgD2LRcAxwVhwQm2XwFAvb3CfQASQF5eHhcAxwUhFwD8SPsVgF6v5wLguCjIBaDT6exXAIGBgb3Sq0BcABxjQS4APz8/+xWAj49Pr/RGGBcAx1iQC0Cj0divAFQqVa/w308uAI7xQC4AjCH7FQDs/14a+AgyAeTn528ZieHgsAy5ADw8POxTAMPDwy70gioE+QrAMW7IBeDi4mK3AgiGB/8KglwAHOOGXAAwoWkStT+QALRaLRcAx0VBLgCEX2QR9oYzZ84Ew4PnAuC4KMgFYDAYPmMR9oYTJ04Ee3l5cQFwXBTkAqAX9bIIe8MTTzwRrFKpuAA4LgpyAaSnp9unALZt2xbo5uZmJoDc3Nwp/59gjgtDLoDU1FT7FMDmzZv9XFxcBhBkFSFWVVX9FM6xapRel0KTyeSNXxWdg8PxIBcAfa+ARVgDy5YtM5SWlq4OCwvbkpWV9WRCQsIfgoKCeuGs9mK2pgfX6M5tLw69bM6YMeMoKnIGYVEAPj4+H/n7+//lcunn5/dnlPWPwrkE4nysDs7Ozr3u7u69arW6NyAgoDciIqI3IyPj92jM7qioqH+bM2fOxvnz52fRuymRjkNBmBABHDlyRFVRUXGrVqv9BAPkW3o+h57Tp3cvUpgeV8BJGXG4XVOoB5HqRfWjB/Kovqg720a9hyGQf2B57e7s7IxEOg6FQC4A+moNi7hUlJeXh8GR6BnrbQRTkSQGvV5/fOHChWVYDa7APg4bQy4A+nQTi7hUhISErKOZHkFOC6RVwmg0Hn/mmWf8sc1hY8gFQN8vYxGXCg8Pj1vxI3Y4xPAtTvKll5fXZwgPenp6Dvr6+g7qdLpBiGUQ/sEg7OTBmJiYwdjY2MG4uDhGLEWMKSkpg7CnT4WHh/cjv1+BT46DjwcGBtLH7d4hwvRg+Qh5opLsHHROIp0fdjsrS2hoKCtXcHAwKyN8gEH4AIMw5wZh4w+iLoOoC6sHVjlGmDuDVDeYPoOY5QfRoIMow9tUZ6T9Ej7PWZr9sY8Ref/lvvvui0KYw8aQCwDjgn4vHej0m/HDMqM3NGCA3ZuZmRna1NQUhUHjFx0d7YcB6Zefn+9XWVnJuGjRIsYrr7xS5LXXXivy+uuv91+6dKkGebqDHuOgO0TjvXv3bs+BgQHnLVu2eEvzE84hnFegUB4ilU8glZdIZZcSDq9IqptAnJ+xra0tqr6+Xl9dXb0cDrn43QIIrH/v3r0RCHPYGHIBGAwG6wmA/AAMxDUswga4++67Q1esWFEIe9t5dJdNUFtbm4eV5HMEWbsEBQX179y5kwtAAZALABO29QSgUqmGS0pKrmYRk4zW1tYqVOblyMjIb/H7+MqVK6NHoyYdc+bMKYEpZCaA22+/nQtAAZALACu79QTg5OT0uV6vr2MRkwh67TcqIv45hi5HwrZ7YMeOHS4jR0wu5AKAycQFoBDIBQB/0HoCgFP4KQQwh0VMIg4ePBiJQfYGgqwcRDi0JxobG70pfrIhFwDK0n/jjTdyASgAcgFERETQ76VDKgAXF5fTs2bNqmQRk4hNmzZNT09P/w+YYOyyo1qtHs7Nzd1A+0cPmVRwASgXcgFgwraeAOAEn66qqpp0ARAOHDgQnpKScouPj8+eioqK1XCEXUejJh1yAcAh7l+zZg0XgAIgF0B4eLj1BODp6Xm6paXFJgJQEuQC8PX15QJQCOQCCA0NtZ4AED59zTXXTHkBlJaWlmi1WjMBXHXVVVwACoBcAMHBwdYTAGzv0+vWreMrgGwFgFnGBaAQyAUQFBRkPQFoNJrTnZ2dXAAyAaBd+mEacgEoAHIBBAYGWk8AmOlOb9q0iQtAJgA0ev+iRYu4ABQAuQB0Op31BECf47zjjjuqWMQUhlwAaKP+2tpaLgAFQC4Af39/6wkAPsDHN910UwmLmMKQC0ClUvVXVFRwASgAcgGgn6wnAGT8JjKc8o/9cgEoF3IBaLVa6wkApMcRwsEpDbkAPDw8+gsKCrgAFAC5AOC3WlcALi4ueto/lSEXgJubW392djYXgAIgF4BGo+ECsDYsCSA5OZkLQAGQCwB+KxeAtSEXgKurKxeAQiAXALa5AKwNuQCcnZ37w8LCuAAUALkAMH65AKwNLgDlQi4AeoSeRVwquADOhVwAM2fO7NfpdFwACgAXwCRALoAZM2ZwASgEcgF4enpyAVgbcgGAfwKnfLsoAVwAkwC5ANDIr2dnZxtZJIdNIReAh4cHF4C1IReAXq8/vWbNmjwWyWFTcAFMAiwI4LPvf//7BSySw6aQC2D0pc6XDmS4Hj+CAF4F1eCUhlwAYWFhQx0dHfksksOmGFMA+/bti2hpaakNCgqqSUxMbKmurt5QXFy8EeGNGo1mnU6nuxX27IMxMTE/8/f3/5mrqys5eCwzZPw5lpQe2h8REfFgcnLyg5mZmQ9otdqbVSrV+sjIyI1paWkbCwsLN9bX13fl5uZehTznlZeX161cubJi27ZtDvEufbkAQkJChlpbW7kAFAC5ANzc3EYEcOjQIe/U1NRtarX6dXq7A73kCubMl0jArpXSgfQhCHrrGu0j5Tg7O7MPRQiZEUc/EMGOp3QwkVg62o/8WDraTw8hIXx2+vTpn+DYIez7CNtvQCTPLVmyZBmVyV4hFwAmkyHUiQtAAZALgF7oPM1kMk3HjH7rqBpsShILBs+ZZcuWXYttu4QlATQ2NnIBKAAWBTB//vxA4D1hpxLo6+v7werVq2sQtjvIBRAQEDDU0NDABaAAyAVAVgl95qhq1BkQSWYMOo69OAgHfYjtv8G+PwVThRFm0inahoJOIf4UTKNTmL1PIfO/4dgP6Y1b9N5FSk/vXqF/39P/LzGw2SOoZBrRJShSIJ1L+kEJgUj7FmzneITtCnIBoN5DlZWVXAAKgEUBVFRUbBV2YDB+XVpaujcrK6smIyOjGOECdGAybPYEDMiEqKgokbQNp5iR4jGgEyCEBAzwZEo3d+7c4qKiouK8vLxiyislJaXYYDAUI20xBFKMdMUoUDHSFaMgxC3wCYaFshAXLly4HL92BbkAEOYCUAgsCiApKekRYQdm5L+///77NnluBSJajFXETACLFi1aSXH2BLkAtFrtEFZZLgAFQC4Asj6mGY3GFyU7TuLXJm9VxqBpxwoiF8CVFGdPkAvAx8dnCKsgF4ACYFEAsMeP0QYi6BLl2zBXbPKBZ5hE7SiQwwkAjT6Uk5PDBaAAyAVAl/WnxcTEDAk7MFu93dHRYRMBBAUFOaQAMMEMYVLhAlAA5AKgy+7TRj8VyVYAdJzNBACnuh1OicMJAKvqUHJyMheAAmBRACEhIaIAAgMDbSaAyMjIdjjhDicADw+PodjYWC4ABUAuAHb5HZ0lCgBisJkAYIpxAXBMKCwKgG5K0QYJICws7O3777/fJgIwGAzt7u7uDicAetYJ5h0XgAIgFwB9U26acBeYBAAzxGYCMBqNDikA+DVDMC25ABQAiwJgd8OwQQKIioqymQBSUlLaYS44nACcnZ2HsM0FoADIBUBjfhq7Fjq6ER0dbTMBpKent3t6ejqcANC+QxqNhgtAAbAoALYMjG7AEbWZALKystpVKpXDCQCO1hCce/6fYAXAognEVIANWwsgJyfHIQWARh6CI5zNIjlsCh8fn3iM848QtCyA2NhYmwmgoKCg3cvLy+EEgHY9o1arN+n1+vrQ0NAm/DbB12JEezfFx8czJiQkNCUnJzOmpaU1YUJgzM3NbULbMBYXFzeVlZUx4jxNNTU1jPX19U1oK5FLly4V2dra2rRixYrmtra2xZjgClGmTOLMmTNFQqCZaHtGX19fkQEBAZkoM2NkZOQ5TExMPIcouxmxspsR9cksKio6h+Xl5WacN29eZl1dnRkXLlxoxubm5kzUz4yoq8hVq1Zltbe3p2MFpu9WhLq7u1eiPz4V+kZRAkAjtGOJcjgBEKltL4fUUWORrmmPRcpLKJN0P/mB9GAYEYOF/XWVSC+OwqrMiL5h/+WQkv7fQV9ZEYh6sw/PSUn/K6HPkQqk/4dAUGYMCwujt2eYEQIjn9SMBoPBjJg4TJg4zJiUlGTCJMKYkpJiMhqNw2ifAdT5BOr/Gn6/lbYBfkc2qBHj4uJsJoCKiop2NKpDCoBTmWSPQggbXADWwfkEIJ3ROW1HaZ+MXgEd2bC1AKqqqto1Go3DCQCmxGcwD56FOfEE+CSnzfgE+uIPEMHXQt+QySf6ACQA2Es2E0BtbW07vHSHEwDs2ROHDh0KY5EcNoWHh0cSxrt4GZTdBKaBTxu2XgHq6+sdUgDh4eH9Bw8enPJfz1QCIIBkxQqgsbGxHaaCQ64A9MY9FslhU8AEMrsRRle6FCOApqYmhxQArQBcAMqAXAB0eddMAAaDwWYCaG1tXUHvDkJQJBcAhzUhFwDdy1CMAKqqqhajQF8hyAXAMSGQC4Bu5E0bvRvGrpHa8lkgT0/PQojwAwS5ADgmBHIBoJ+UI4CZM2fmoQxm7yjlAuCwJuQCoFd20sBThACwAuRjBXgfQS4AjgmBk5NTilQA9AySYgRAfxrhAuCYYKSCogBiY2PN/xFmy79E0v9mIUYuAI4JQ3Nzc52rq+sXCLK+oadFFSOA0NDQfJSFC4BjwrB69erlMLXPIsj6Jjg4+N1p7IEgbJAAIm34VgicmwuAY0LR2NjY4ubm9k8EWd/AKX7BTAARERE2EwC9PIoLgGMikZqaugRjTLzXhBXgBbPXotCLsWz1Zjij0ZgPMXIBcEwYsrOz12K8i/8IS0tL6zMTgC1fjUgvkEVZuAA4JgxYAXbRXz4RZIyLi9tvJgAsCVwAlwlLAjhw4AB/HNrGOHnypDooKOh5GufYZCwvL7/LTAC2fDs0vUPfEQUA5/5PJpMpgEVyXBaGh4dVaEsNqBZ4+vRp9YkTJ9QPPviguqioSP29730v+Lbbbktoa2tLiI+PT6isrJxjMBga0Q8/x/gSzR84wDS+qqcJSwIJwN/f32YCoM8IoSwOJwC1Wv1RRETEPl9f3+1o3z32TB8fnzGp0WjGpIeHx3mJgbkH42APnFXGGTNm7MHY3AX/8H6YLL+Gr/hbDOinMaCfhs/6NGb1p3U63dNo56cxwJ9CGZ7T6/WvBgQEvIa8XkX8t+yxZ8m4IqJPXlu7dq3PNOED2SQArVZrUwGgLA4nACK1LT1zZe+kJ4Yt7ZeSjrkcUlvJKW1La5Be8TJ79ux1CE8zEwBmKZsJAMuXwwqAUzkk0wfO8K97e3u12GZPyLEIEgCWJ5t9JA8OST6WQC4AzssmrST0jBuRxjeZQDCR/g5z6IVZs2bdfvz4cW8cNwKpALA02EwA9DFpRxQAVrV/oPGfRzs/i/odHi89PT17kfYQ7OFPpWYAOvNTkMVbSnexRD7/Ax7HOcTXhQikCyRkLtBjwzjnaWwPenl5vQNT+R3Y2O+EhIS8Azv8HdjT78TGxr4LC+JlpOsd5WEMxMMwi0TCjjcj2sRimeSk+uK8h2HfH8Y5DsMfOYwyHQ4ODj6M8x+Oioo6nJiY+Hv4Br/B8fejPrux/17E3wVfoTM9Pb2jqampDE60L8plDiSQNq7NBFBTU5OPgjucANARA52dnVkQuF9tba3uYrhv375oDLa/CHkRMzMz9zY2NgbMnz/f31KaiyXa2G/dunWzMRjFpyQxcL+LiYnZj8HTDMezpqysrIZuVGIGTcNgSp87d2764sWL0+m9m6tXr05fv359+m233ZaxZMmSGKTXCcTY0mGwisQgNWNpaanFMsnZ3NysW7lype4HP/iBbvPmzbrt27frHnroId3jjz+uO3bsmO6DDz7Q0ZU28P9n9vFCKgCEuQAuE+jUEgxaUQCYHU+89NJLQSzyIrF169YI9MnrCLK8aEmvq6trZJFWBAbOFZhFXyPTgTadnJyGGxoaOkZiHRwYdOKAwyxgMwGgwfOxAjncCnA5d4KRVw0E8BmCLC/Mol/l5uYaWKSVgRn+l4KpBQGYMNE/MBLj4JAKADaezQSAZZ0LQAY4bGvJBkeQMTQ09ChMjnPtWCsAphVdFmTnocuZsO9fhM3swiIdGVIBQPlv49cmAoD9mA9HhwtAApglPyVHFEFGOJo7Ya7MYJFWBlaWAulzMlh5TpFtzyIdGVIBwMa0mQBaW1svWgD33XdfIBykRfPmzbt+wYIFN1dXV/8Ijlrd7Nmzq6+99to5bW1tUZs2bXIfPXxSYC0BYPb1CAwMfApBlg/1k8FgaGeRE4CSkpJwnE90hLEaf1dQUPAjFunIQEXFAQcb8CR+J2SGGQtXXnllPpb7cQuAruWmpqb+EavWWWdn52GaKfH7HerwTyzhX2H/l/BphmDL/u4nP/lJ4GiyCYe1BDB//vx0Hx8fsT18fX0/pXslLHICsGXLFm8I7BCC7HzkB6DsPycHmR3gqJAKAJU+RZeVWMQ48MMf/jC1sLCwDjNHAwZdPXbVu7m51cfFxS3ArDyPLluNHDk2LlYAmP2jMEDEY89H+gJJZWVlFsKTAmsJICkp6VYIWqxHQEDAc3fffffI3csJAA30rKwss3OiX9/68Y9/PCFOt2IAs0OsMMTwyRtvvJHBIsZAaWnphuDg4DfR2cP0OIXwHAddqqM8dTrdWX9//z/ALCkYTXJBXHPNNflqtXrcAli+fLkrnMS7UYa3cJ5hzJB0J1v4JM83dFMvIiLilZSUlDvpKcHRZBMOawgA5txc1EX8mButbkajcQeLnEAUFxcXoR2HEGTnJbMrLS1tM4t0VEivMsDx+XhgYIBeHXFB0GyB5fJvFLwQ6WpCfn7+WoTHBFaLfHT6RfkA5BBisMRh5ppNN2rgJObl5OTkoyNz0HHx8AOiJsppPB8uRwBUVnpLNtK/S5sC0Ueftbe3V9AxE4l77rnHLTo6+inhfgARjvFnZWVlP/3FL34xYauPTYFZV6wsCaCvr29MARCys7N3omM+hJ39DV09oJmfBjz90jbyOouZeADO1bhWlEsRgBJxqQLo6Oigryg+jDYV31pAJJMEYn4M4phOx0006NUhMC3/gaBYBupP1OllrPprsPLq6TiHAZkN+GEkARw5cmRcAqAO2bhxYz41CuzVLpg8G5HXRvx2wjm9oaGhYdWdd9457sa67rrr8qVOH3EqCODGG28Mxap1B9rtY+FGlJRarfavGzZsSEJ40pCenr4O5s83CJqVhcQYFhb2Kvp77cX0raIhFQA9D/LMM8+MSwDWhiMLoLu726IAMHkUREVFHZNe6xdIV2Ew2P4Px0z6R7ZpcissLLwe/pRYDylpRYiMjHyBLkFj275BziN+GOHMfvzYY4/ZRACYCfNRFocTABxxiwJYsmRJA2b996T2NpFWAUxEZPY8ArMwkY61FVasWDEHvtVhGvDYPIf0zFNdXd2NEIz9XipFJcQKkQAeeeQRmwhg06ZNDikAzPAvP/nkk5EschQ33HBDXEhIyEm5yYOBNowV4yVyhLESe9CxtgZMHQ3qdDX8udcsrVSwIL5bsGDBdQjbJ9BZYmVIAAcOHLCZACBGR1wBjsu/Egkb+z7p9XYirQbwBTp7e3s96RilYfv27WEZGRm70Ufiw3kCYSq9t379+kyE7Q/+ks8SYQYiAUyqwyVgy5YtuXIB0ExIcfaEysrKIqkA4Ew+hVVVHNQ7duzwwqzZL539Mbu+TM9CsQMUjpqamlqI+iW62odNRroPlJKSspMdYG+QrgAkgAceeCCN9pNdN5m23d69e2dBjGYfyMCgaKM4pUJoI2lbwSY2WwE8PDzoEqb4fFVnZ2eOt7f3KQTFei5evPgeirMXYLKai1mfHpsR64Dt3x05ckRF8XaF4OBgsRJQ9bewWd+MiYkZiIuLo7uor8AmfQ5x3bD/elQqVQ9mrx4M1B7YsD2RkZE9OLYnISGhB05bT2ZmZk9ubm5PQUFBT3FxcU9FRcWjeXl5+yCsm+HsdeK3y8vLq8vHx6cLeXTh3F3Ivwv5bEC6+xEnDhwizv9ocnJyJ8p0Ax1HDAwMZGkpDyLlR6S8YVZ04Tw3IO0NKNNumCOPlpWVsbIUFhb2oCysfFlZWaysVGbk3xMfH8/qQfUJDQ1ldcN5erAi9ajValZvOKY91AZoox5qD71efxTpX8F5XqG2io2NfSU6OnoA6U/iuO+o/DTLY9tMAHAsS5DnhwiK9cQM+hFMoP/FsUdxzoPIi5UP5f4v1H0btR1WElZfqr9Aof0EYmbuMhgMFon6mR1LaYV8hPZEuagNqZ9uKioqehj9+Ci1EbUNRPswVqrDqPcA4v/q5OQkvmaciDY7CvPN/t5/lJqa+if8iBWhqxK0vAmkm1u0nzpTIB1DpDiB0jR0CU8gbQt5S/OQ5iNQOE6gcA7pMfI8pJSmpXRkZ0vLIi2TlNJ6SM9l6XzS/C3lQWmEY8g0gDi2Iixi7dq1syAoM1OPSHkL6YW8qaxCfvJyEIUyXiot5SmUR9pWVB6KozQUFo4RSMegng9LhW43aGlpKYW6zyB4TsU4L4+YXd+urq42uxNOV1UwWw5IB5u9E6vXV21tbXUI2ydgHlwH00Z8bzrn5ZEuF8J0ObFgwYISbJ+DRYsWzSdHkh4axKZdE3U4O3fu3Fsw+0/KoxoThnXr1uXB5lsPm/Y/MzIyjtKdPqwMz8OMeBE24BBsQRNsZepY9nExzGLsdRn09CVsSPbNVdiR7DUa1LHjIT2KDSdxQknnsHRuS6Sy051xqgvViepGdaS6Up3RJrTU04uVTLD3P6W2wTmOIe4FtM/zsN0fQtvdgYHfsHXrVv/RprUI+msjhDAbx3YajcY94G+Q94s4/zHMqK/DNzHBdjfB5maPdMP+ppmWfdpT2s4X24aW2oPyojwFCvUn/5DqTX1O5cH2uzCLnkM7vIRx8jR8tFvpr6z2O/inTfsXlx+NmxEC0awAAAAASUVORK5CYII=;" vertex="1" parent="1">
          <mxGeometry x="2010" y="769.99" width="192" height="136" as="geometry" />
        </mxCell>
        <mxCell id="NnL7JSWlf4hrcEAEEY_L-92" value="&lt;font style=&quot;font-size: 36px;&quot;&gt;&lt;b style=&quot;&quot;&gt;www.kroger.com/cpfr&lt;/b&gt;&lt;/font&gt;" style="text;html=1;align=center;verticalAlign=middle;whiteSpace=wrap;rounded=0;" vertex="1" parent="1">
          <mxGeometry x="2040" y="940" width="330" height="48" as="geometry" />
        </mxCell>
        <mxCell id="NnL7JSWlf4hrcEAEEY_L-101" value="" style="shape=image;verticalLabelPosition=bottom;labelBackgroundColor=default;verticalAlign=top;aspect=fixed;imageAspect=0;image=data:image/jpeg,/9j/4AAQSkZJRgABAQAAAQABAAD/2wCEAAkGBxITEhUTExAVFhUWFQ8VFhYXFRUVFRgVFRUYFhUYGBUYHiggGBolHRUVITEhJSkrLi4uFx8zODMtNygtLisBCgoKBQUFDgUFDisZExkrKysrKysrKysrKysrKysrKysrKysrKysrKysrKysrKysrKysrKysrKysrKysrKysrK//AABEIAOEA4QMBIgACEQEDEQH/xAAcAAEAAgMBAQEAAAAAAAAAAAAAAQgFBgcCBAP/xABKEAABAgQDBgEHCAULBAMAAAABAAIDBBExBSFBBgcSUWFxIggTMlKBkbEUI0JygpKhomKTwcLSFyQzNENTY3ODsrNUpNPwFSV0/8QAFAEBAAAAAAAAAAAAAAAAAAAAAP/EABQRAQAAAAAAAAAAAAAAAAAAAAD/2gAMAwEAAhEDEQA/AO3lK6BHclHQIJJ0CE6BRbIXS3dBJNO6E0UW7pbM3QTWl0rqVHUp1KCQdSgKi+Zsl+3xQSDXsla9ljMY2glJYVmJqFCHJ72tcfqtufYFpOKb68Kh5Q3Ro3+XCLR74pb8EHSa8kJ0C4lOb/2jKDhxI5vjBv5WsPxWOfv9mfoyMEd3xHfCiDvxOgQmndcAg7/JoXkoB7OiD41X3yW//P53Du5ZHz+65n7UHcCad0rS65jhe/DDIn9I2PBPN0MPb74ZJ/Bbpgm1UjN5wJyFEPqh4DwP8t1HD2hBmq6lAdSoHMpfM2QSDqgNeyi/b4pfsgmteyV5KDnkE6BBJOgQnQKOgS1roJJ96VUW7oBTM3QekREEOOgUWyF1Ljyuot3QLd0t3KW7pbMoFszdOpTqU6lAHMqK6m3/ALmVgtrdrpXD4fnJmJQkHzcJtDFiEeq33ZmgGpVeNuN5k7iLjCaTBgE0ECGTV9cqRHDOJWvo5C2Vc0HY9sd7shKVZDPymKKjghEebBGj4tvu8RXH9pN7OJzdWtjfJ2GoDIFWGlcqxM3k05EA8lk9itzM3NcMSaPyaCc6EVjuGVmHJmubsx6pXadmNg8PkafJ5dvGLxonzkWvR59Hs2gQV2wTd1is6eNsq8Bxzixj5sd/H4newFb1hW4OIafKZ5rTq2FDL/zvI/2rupOgS2QQcxk9x2GMPjfMRTydEa1v5Gg/ismzdDgwy+Rlx6x5j9jwt7t3S3dBosTdDg1P6kQekeY/bEKx09uQwtw8JmIR/Qihw/O1y6XbM3TqUHEMU3BZVl5/7MWH7vGw/urRcc3WYrK1cZYxWjPjgO85+QUePuq1PUoM8zZBVPAd5OKSR4BMOiNaaGFMAxAKaeKj205Ahdd2T30SUyRDmgZWIdXHigk/5n0PtCnVbntFsjJT4pMyzHnR9OGKO0RtHAdK0XGtsdyMeFWJIP8APsFfmn0bGH1Tk2Jr6p6FB3+HEDwC0gtIBBBBBHQi4Xq+QVTtlNt5/CohhtLuAOpElovEG38VGnOE7O4p1qrDbEbfSmJMHmncEYCr4DyONvMt9dvUe0BBtfQJ0CWyCW7oFu6W7lLdSlszdAtmboOZTqUA1KD0iVRBBNO6i3dSTTuotmboFszdOpTqU6lA6laHvM3jwsNZ5tgbEmnCrIZ9FgNnxaZ05Nuel03p7wWYdC4IdHTUQEw2HMMbbzrxyrWg1I5ArhOyWzE3jE24B5NTxzEw+rg0ONz6zzQ0brTQAkB+MjIYhjM2aF0aM6hfEcaMhs04jZjBoAOwVgNgt2cph4DyBGmNYzh6JpQiE36Avnc1Oei2DZbZuXkYAgSzOFgzc45viO1c92p/AWFAsweQQDyCdAnQJbIXQLZBDl3WG2r2nlsOgGNMPpcNaM3xHeqxup62GqrdtvvLncQLm8Zgy5/sYZNCP8R+RidrdEHe8e3l4XKEtfNNiRBWrIIMU1GhLfC09CQtOmd/kqP6OSjv+u6HD+HEuAIg77K7/ZYn5yQjN+rEY/8AAhq2rAt7GFTJA+U+ZcbNjt83T7dSyv2lVhSgu5DeHAOBBaRUEGoI0NdQvV+3xVR9jtu53DnDzMUuhVq6A8l0I86D6Bzu2nWtlZHYbbeXxOFxwjwRG087BcRxsPT1mHRw/A5INnv2Q8gh5BOgQatttsHJ4k2kVnDGAoyOwDzjaWB9dv6J5mlDmq67UbLT2DzLXOLm0dWDMQyQ11LUP0XUu0/iMzbO2QXxYzhMCZgugR4YiQ3ijmn8CDdpFwRmEHPd1e9Js6BLTRayas1/osj9vVifo2NxyHT7dSqsbx9gY2FRg5rnPl3u+ZjDJzXDMMfSzxTIi9KimYHVdz+8oTjRKTTv501vgef7drR/yADMajPmg6lbM3TqU6lOpQBzKDPNL5myDPsg9VREQQcs1HUqTzKgcygDmVgdttp4eHyr5mJQkeGFDrQxIpB4W9rk8gCVnTzNv/cyqt72dsHYjOlsIkwIJdCgAZ8ZrR0QUuXkCnQN1qgxmHSc3jOIU4uKNGcXxHkeCHDFKuI0Y0UAHYaq0GymzkCRl2S0BtGNzc4+lEefSe46k/gAAMgFr+6fYoYfKAvb/OIwa+Mcqty8MIEaNrnzJOlFvB5BAvkE6BOgS2QQLZBfDjeLQpSBEmIzuFkNpc46nQAcySQAOZC+63dcI8ojaQmJCkGO8LQI0bq51RDaewq6n6TeSDmu2e1UfEZl0eMaDMQ4YNWw2aNHM8zqfcMCiICIiAiIgLI7P43Hk47JiA/hiMOXJw1a4atIyIWORBcPYzaWFiEpDmIWVRwxGVqYcQDxsPO9QdQQdVnLZBVt3DbSul575M53zU0OGmjYzQTDd7RxN68TeSslbLVAt3S3UlLd0tmboPjxjC4MzBfAjsD4cRvC5p/CnIg0IIzBAKq1tvsvMYROhrXu4a+dlowyJDTUZjIPaaAjsbEK2PUrXdvNlIeJSj4D6NePHBf6kQDI9jYjkedEHw7sdtG4nK8bi0R4VGxmC1fovA9V1D2II0W4XzNlUnZHHI+EYgHvY4FjnQpiFlVzK0e3lUUDgeYGitjKTLIzGxGODob2texws5rhVp7UKD9b9krXsl+yV0CD0pUURBBGpUXz0UkKL9vig57vt2qMpIGGx1IszxQmUNCIdPnXj2EN7vC5luI2R+VTZmojawZahbWzo5zYOvCPF0PBzWM30Y/8rxOI1pqyXpLsGlWE+cNOZeXDqGhd93dbPfIZCDL0o/h85GOvnYnieOtMm9mhBspOgToE6BLZC6BbIXS3dLd0t3KBbuVT7bvEjMYjNxSa8UeKB9Rh4Gfla1XBtmbqkT3Ek1uSSe6DyiIgIiIJUIiAiIg/eQm3QojIrDR0N7IjT+kxwc38QrpyscPY17cw9rXDs4VHxVJVcXYl3/10kTcyklXv5liDNWzN06lOpQcygdSl8zZL5myX7fFBwvyhNlKOZiMJmTqQpinrUpCie0AtJ6M5rL+T7tOYsB8jEd4oHjhVOZguPib9lx9zwNF0zaLCWTktGln+hFY5ldQT6Lh1a6h9iqzshiT8MxSG+J4TCjOgxxX6FTDijrTMjq0ILb3yFlPQLyDW3vUjkEHqiIiCCK9ljNpsVEtKR5g2hQorx1c1p4W+00HtWTOfZc23+4j5vCjDH9tGgQ/Y0mKf+MIOMbr8IM7isBr6uAe6PFPSH48+7uEfaVrydAuFeTdhtYk3M0zDYUFp+sS9/wDsYu62yCBbIJbulu6W7oFupS2ZulszdOpQOpVNtrZAwJ2Zg8NOCPHaB+jxngPYtofark9Sq8eUHs8YU2yca3wTDQ1xpaLDFMzpVnDT6rkHJ0REBERAREQEREHuDCc9zWNFXOIa0C5JNAPeVdTDZUQYUOHpDhw4Y7MaGinuVZdy+z5msShvLfmpakd5plxNPzTa8y+hpya5WiA1KAOZS+Zsl8zZL9vigX7fFL9kv2S+QsgXyCrTv7wUQMTMVo8MxDZE6ecb828fla4/XVlugXJfKMw0OkoEcDODGLSeTYrTX8zGINv3W4yZrC5Z5NXtZ5p/PihHgqepAaftLbBllquN+TdiNZeal/Uiw4o/1WcJ/wCIe9djGXdB6REQQeS4l5Ss1RslBFiZmIfsiG1v+5y7aToFwHykn/zmUbygxD959P3UG3+T3KlmGOfTOLMRnDs1rGfFrl063daLuRbTBpal3GaP/cRG/sW9W6koFu6WzN0tmbp1KB1KdSg5lL5myBfM2WF2w2dh4hKRJaJkHCrH3LIjfQeOx01BI1Wav2+KX7IKX45hEaUjvgR2cMRhII0PJzTq0jMFfArYbwtgYGKQ86Q47ARDjAW14Hj6TK+6tRrWtG0+y81IRTDmYRac+FwzhvA1Y+xHS41AQYZERAREQF+0pKvivbDhsL3vcGtaBUucTQABfVguDTE3FEGWguiPOjRYc3Os0dTQKx27HdnCw1ojxi2JNEZuHoQgbth110Lrm2QuGV3Z7HNw2TEN1DGfSJGcMxx0yaD6rRkPadVtl8zZL5myX7fFAv2+KX7Jfsl8ggXyFk6BOgToEDoFpm+GT85g800Xa2HE/VxGOJ9wK3O2QusBvAhg4ZPA/wDSzR+7Ccf2IOL+TnOFs/Hh6PlnH2siMp+DnKw4FL3VZtwcWmLNHODMD8A791WZA1KD0iVRBBOgVf8AykYVJqVdzgPHuiE/vKwBNO64d5Ssof5lE/8A1MJ6/Nub+8g3fck8f/DSvMGaH/cRT+1bzbM3XNfJ/nA7CuHWFHjs+8GxB/vK6V1KB1KdSnUpfM2QL5myX7fFL9vil+yBfsl8gh5BOgQOgXy4lh0GPDMGNCZFY67XtDm9DQ69V9Vsglu6DlO0O4ySikulo0SXcfo089CHOjXEOH3vYtPntw8+0/NzMs8acRiMPu4XD8VYa3dLZm6Cu0vuIxAnxzEqwdHRXn3cA+K2vA9w8rDIdNTUSNQ14GNEFh6E1c4+wtXXupTqUGPwTBJaUh+bl4DITL0aKVNquddzupJWQvmbJfM2S/b4oF+3xS/ZL9kvkEC+QsnQJ0CdAgdAlshdLZC6W7oFupWB29dw4ZPE6yk4PfCcB8VnrZm61De3Neawiccbuhthj/Ve1n7xQcT3Csri0M+rCmD+Xh/arNgalV08nWW4sRixKZQ5aJn+k+JDA/AOVixnmg9IlUQQTTuuY+UFh3nMMETWDHhOP1Xh0M/i5q6ccs1hdssI+VSMzAIBMSDEDK2DwOKH+YNKDlXk2YkP53Lk/wBzGaPex+X6v3rt3Uqq+53GPkuLQOI0bF4pd9f8T0B0+cEP8Vailb2QL5myX7fFL9visNtbtLAkJd0xHdRoya0elEefRYwak0PYAmwQZaLFABLnBrRmXE0FOpNgtNxbethMA8HywPI/uWvij2PaOD8VX7bXbucxF5MV5bCB8EBhIhtGlR9N36R60oMlqyCyh334VYCY/VN/jT+W/CqZCZ/VN/jVa0QWUG+/ChpM/qm/xradjdtJTEWRHSxfWG5rXNe0Nd4hVpoCfCaEewqoS37cttH8kxJjXGkKYpAfyDnH5p336DoHFBZbFcRhy0GJMRncLIbS9xpXIaAanSi5n/Lzh9f6tNH7ML/yLpeMYZDmYESBGFYcVrmOANDQ8jz19iqvvB2Hj4ZG4X1fBeT5qLTJw9V3qvGo9oQdc/l5w/8A6Wa6eGD/AORdD2Yx+DPy7JmAT5t1RRwo5rmmjmuHMKqOyGy8xiEwIEBvIvefQhs1c4/AXJVq9ktnYUjKsloNSxlSXO9J7zm5x5VOnZBG1e00vIQPlEwXCHxNYA0Auc51gASK5AnsCtNdvwwrlM/qm/xrRPKE2k89Nsk2HwS7eJ/IxogB9vCzh+85cmQWUO/DCuUz+qb/ABp/LhhWgmB/pN/jVa0QWlw7e5hEUhvykwybedhvaPa8AtHtK3SUm4cRgfCiNiNdm17HBzSOYcMiqTrN7K7WTeHxPOS0YtFfFDNTCf0eyx7ihGhCC4du6WzN1rGwO2kDEpfzrPDFbRsaETVzHG1ObTQ0PQ6ghbP1KB1K5Z5Q+I8GHw4Nc40duX6ENpcfzFi6mOZVcfKDxrzuIMgA+GXhAEcokWj3fl817ig2XybMOpDm5g2c+DCH2Gl7v97V2kZ9lpe57Bvk+FS4cKOih0d+lTFNWV+xwD2LdK17IPSIpQeTzKgcypI1Ki+ZsgqnvVwYyWKRgyrWxHCYhEZUEQ8WXKjw8fZCsjsVjon5KBMj6bBxjlFb4Yg7cQNOlFpe/rZkzMkJqG2sSVLnHmYLqec+6Q13YOWm+T9tV5qO+QiOoyPV8KptGaM2/aaPewDVBYG/ZVj32bUOm8QfBa75mVJhMAORiD+lf34hw9mDmrMTMbhY5w+i1zvcK0VJ40UucXuNXOJcSbkk1J96DwiIgIiIC9NcQQQSCCCCMjUa1XlEFvd3+PiekIEySOMt4Yg5RWeF+WlSOIdHBaxv9xBsPCywtBdGjQWMqAS3hrEc4VtkzhqPXWl+TttCGR4si93higxYX+aweMDmSwV/01+flG4vxzcvLg5QoToh+tGP8MMfeQZ3yb55roE1A4QHMiQotaCrmvaW0JuQ0wzf111bHcUZLS8WYiehChveebuEZNHUmg7lVw3F4p5nFYbCfDHZFgnlWnGz8WAfaW+eUTtGGQIUiw+KKRFijlDYfACOrwT/AKaDheJzz48aJGiGr4r3xHH9JxqadM18qIgIiICIiDZ93G07sPnoUYOIhkiHGGhhOIDifq5OHVvVW4HP3KkCuHsLMui4dJxHmpMtL1J1cGAEnuRVBkcVn2QIMSYimkOEx8R3ZoqctTlkFVDCpeJiuKNa70pqYLomfosJL4lPqsBp2C6p5Qu1nDDZh8N2cSkWNnZgPzbD9ZwLvsDmvy8nfZejYuIPHpVgwfqggxXDuQG/Zcg7RChgANaKNaAABagyAHRe66CyXyFlNdAgmiJREEEKL9vipIr2UX7IPMVgeC0gFpBDgbEHIjsqobwNmomFT5bDLgziEaWiCteEOq0cXrMIoewOqtjfILVN5GyDMSlDBoBGZV8B5+i+nok+q6x9h0QYaQ26bOYHMzIIbGhy0dsZoy4Y3myAQPVcSCPdcFVkWUEzMyhmJcl0MvaYEeGdQ1wNCOYLciOuhWLQEREBERAREQffgeKPlZiFMQ/ThRGPA0NDm09CKg91922+OCdnpiZAIESJ4Ab+baAyHXrwtasGoQfVhU66BGhR2+lCiQoje7HBw+Cy+3u0Rn56NM5hjjwwmm4hM8LMtCQKnq4rXkQEREBERAREQSrI7CbVwpXZ6DMxzlBbGhhtfE97YrxDYOpHD2FTYKtq+9+JRnwYctxkw2Pe9kMf3kSgJoPSOQA5Z8ygy2HSk1jGI0JrGmIhdEfQ8MNg9J1NGtaKAV0AVr8Jw+HLwYcvBHDDhMaxo1o0UvqTclaTuf2F/wDj5cxIraTUcAxNTDZdsIHnq7rloF0HoEDoE6BOgUjLLVBKIiCCK9lB5BSeXvUdAgdAlsglsglu6Dl++DduJ1vyqWb/ADpjfE0f27G6f5gFjqMuVK5xGEEggggkEEUIIuCOau5buVy3etutbOB01KBrZq72ZNbHp+DYnWx15oK5Iv2m5Z8N7ocRjmPaS1zXAtcCLgg2X4oCIiAiIgIiICIiAiIgIiICIvTGEkACpJAAGZqbUHNBAC7puY3alpZPzbKO9KXhOHo1tFePW9UG170o3Ubpi0tm5+H4hR0KXdnw8nxR62oZprnkO1dAgdAnQJ0CWyF0C2Qugy7pbugFL3QekREEE6BRbIKXHQKLZaoFu6W6kpbqUtmboFszdKalOpTqUGn7ebvJXE2lzx5qOBRkZozpoHt+m3pcaEKuW1+xc5hz+GYheAmjIzamE/XJ2hyPhNDkre3zNl+U1KsjMcyIxr4bgQ5j2hzXDq05EIKSorBbXbkIEUuiSETzDsz5p9XQSf0XZuZ+YcgFx3aPYufkSflEq8NBPzjRxwj1842oHY0PRBr6IiAiIgIiICIiAizGAbLzk4aS0tEiaFwFIY7xHUaPaV1zZDcU0ERMQjcX+DBJDezopoT2aB3Qcj2a2Zmp6L5qWgl7suJ1mMB+k95yaL9TTKqsNu83Wy+H0ixCI80P7QjwQzyhNOunGc+1lu2GYZBl4Ygy8JkKG36LGhorra5OpOa+voEDoE6BOgS2QugWyF0t1JS3UpbugWvdANSnUoBqUHpERBBPvUW7qSoApnqgWzN06lANSgGpQOpS+ZslK3SleyBft8Uv2Q59kPIIF8hZQ4Vy9/JejyCjoEGp47u4wuaJL5NjXn6cKsJ1eZ4KBx7grR8U3BwD/V56KzpFY2J+LeH4LslrXSlO6Cu89uHn2n5uYlnjqYjHe7gI/FY2NuWxYWhwXdozf3qKzQFM9UA1KCskPcvixvChN7xmfsqshKbicRd/SR5aGNfHEe73BlPxViwNSlK5lBxbC9wMMZzE+8jlChhn5nl3wW64FuswqXoRKiK4U8ccmKTTXgPgHsat0pXshz7IPEKGAA1oDWjIACgpyAFgvd8hZDy0UnkEEdAnQJ0CWsgWyF0t3SlO6AUz1QLZ6p1KAalANSgdSgzzKUrmVN+yCaoiICIiCVBUogFQiIJQIiCAilEEIiIClEQQUUoghSiIAUBSiCEREBERBKgoiAhREEIiIP/Z;" vertex="1" parent="1">
          <mxGeometry x="2240.59" y="775.65" width="100.71" height="100.71" as="geometry" />
        </mxCell>
        <mxCell id="NnL7JSWlf4hrcEAEEY_L-113" value="" style="rounded=1;whiteSpace=wrap;html=1;" vertex="1" parent="1">
          <mxGeometry x="-20" y="1073.5" width="250" height="275" as="geometry" />
        </mxCell>
        <mxCell id="NnL7JSWlf4hrcEAEEY_L-109" value="" style="shape=image;verticalLabelPosition=bottom;labelBackgroundColor=default;verticalAlign=top;aspect=fixed;imageAspect=0;image=data:image/png,iVBORw0KGgoAAAANSUhEUgAAAT8AAACOCAYAAABHRw/PAAAAAXNSR0IArs4c6QAAAARnQU1BAACxjwv8YQUAAAAJcEhZcwAADsMAAA7DAcdvqGQAACNxSURBVHhe7Z0JuB5VecetuFSrxdalVq0iUq0rteJSFPcdrFYUi9Vq3SrVamtBRYvW1q1QW62K4lJtcd8ISwJJgIQlhLAnAZJAEgOSkASSu+auScbzG2Zk7twz5z0zc2a+7f0/z/soN/PNcuac/7z7uUekUCgUAwglP4VCMZBQ8lMoFAMJJT+FQjGQGBjym9y7Pzpz63T0qz37kr8oFIpBxkCQ3/79+6P3XDUefXjNnmhsdn/yV4VCMcjoe/IbN2T3tivGo/v8fHd04c6Z5K8KhWLQ0dfkt3NqX3Ts5WPRb/1sd/QOo/mp1qdQKFL0Lfndumdf9MpLRmPi++1f7I7O2DodKfUpFIoUfUl+60f3RodfOBLdwxAfcuSlY9Htk3cHOvbu3x+NzuyPfYEKhWIw0Xfkd/Xu2egpi4d/Q3zIqZum5mh9I4b43nnleLQtQ4gKhWKw0Ffkt2znTPTohUNziO85RgNEE8ziInPcgQt2R59fPxlrgQqFYvDQF+SH+fqL26aj3ztzLvEhJ90wMc/X9/G1E3H091GGKG/TvD+FYiDRF+T3v7+cih5wxlzSQ55w3nC0ctdsctRd2GeI8s8z/sATDRGq7qdQDB56nvz+a8NkrMVlSS8V0lvyxIbJ+4hz7tYQH372UHTT2FyzWKFQ9D96mvwwX+9bQHyQ2gJLestJ199l8qbHHWDkuGv2qPaXAfmQu6f3RUMFwr8RLUeLVih6FT1JfrP79kfvM4R17wLiQ8jxmzHHZcHvXrh8dN6xDzlrKLpueK55PKi4c2pf9NKLR6M/WjgUHbRo2CqPNJrzExcPR+dtn9GPhqJn0XPkh9bxppV3VW3kSSyVBy7YHX09l94CMHnz0WCEc/3V5WO6kA1+eOt09KAF88fIJv+8WjVmRe+ip8iPjiyvNhqdbSFm5bDzR6I7DUnm8a83TET3shyPPMyYyRfsUE3mb68cd35YsvLcZaPRTbk0IoWiV9Az5LduZO+cKG2R4M+zpbdMG5M3LXez/Q553WWDrf1REog5axsbm9zLjPUZt2nZoKI30RPkd9Xu2eipS/wW5WMXDc9LagYX3zETHWz+zfabVB561lCcLzioi5mUIV+TNxVMXz4sCkWvoevJj6oNibRSQat7uzHbbEvxs+smvMy5V106Gs0OaBTzzavcvlSbHHbBSLRBTV9FD6KryQ+TikisbdHZ5MHm2IvvmB+1paffkYbUfBb2gUbz+c6W+cGSfseNI3ujJ3lq13lR01fRi+hK8qPeFhPsfr+wL7YiecUlo9ZFiMn7uHP9F/aLLxqNdlkCJv2MUzdORr9jqZLxkX+4dk/8gVEoegldR37k5n1hw2ScfGxbaEUCUZKmYVuCp6yfLGXO3dec66sbB0v7e1PS9DU/FvwNUnyQpW46lacYjfFmNX0VPYauIj80vn+53s83l5dDl45EE3vn0xXtq15/WXlf1vOXj0ZbBqTpAW3AikxeIrrPWzYavfxit9tgkANFit5E15DflCGu4672zzHLyj2NnGy0Rdviu/SO2eiQEiZvVr5wk/2c/YYvmecsqpahC/YJa/ZE7zemrevd/J15d6Nq+ip6CF1BftSJUmEBidkWliR/eM5QtLWgMekXzcKuQqgIydI3jPS3OUeayhsLTF6Eapmzts5E390yFd3TUU5IitEmbRCh6CF0nPy2TuyLXmZMKtuC8pV/vG6PtcieUrg3CqVwknx6XX+3vFphNOPHn1esGdPz8I6pfbFpfICD/JAfFfhcFYpuREfJj/yw53pUbbgEs+zaIXtTgst3zXrnCBYJxFB0/n4AwSXXx+E1K8bMhyWKbjMfqectG3Ee+5YrxmMfq0LRC+gY+W0e3xs9w5iVtkVURt5gNDtboAN8beNULa0vFYIw+Q4x/YBhQ1RHOzRjgh2nbb4r6o1PlhZirvHE/bBZTV9Fj6Bj5PdPxlQNQUwLb7c3IyBPL92z1/a7MvIHZw9FVxqzr98Qd7lZVJzC8vtnDs1pXLB0+4zT74ecvmVa+/z1CainP3PrdJxz+71bpqILd8xE2wNs+kVrOaw+zk0aGm6rd1w5Hr3rqvGYFwg0nrVtOrrZfEibnEkdIb9Vxhylxbxt8ZQRUjCKkpHxUT1mYf1rpPJB81L6LZH3ZCH/EV/s3ozGi7ZOcwnXb15vNMk9Ncdp0miZBKpeYa6PZkqqUtNCUwuEwI7t7reYZ3/vNePRUZfO/+1rV9z12x//qp7Pc+3w3uhthgRedYn9ubn2eQUfexvQ2rm3v8ydh3OTugTp3D4xf/3wUTxqxWj0uwvmv1+sNdxJVZ5z59S+6Es3T0ZHLBvxSqin2uqFF41G39g0Fe2erjenbOgI+VEREEIj+6Z5uUW7r33L/FuIa6RCEvVld/aP9sc+xq8xi8k1RkzU7OhCSsevdr87SgzrRn3T6H/I9+cjXI+UHpuHg4+pq0qITIWPrpmw/tYXEJurnBM3xJfNO/G9BnXurgwK6rJpApKejo3A/v3GCScxYQX9vGROJ53B/3PDZBw8s53TR/C9E1DLfozronXy46tSNwiBMBGLkpDRBv96VbWcQZcwmfrFoc97gKhsz4nc3ywANJE8MFUk05cvdZ1RYrH8zRXh358kVBXRpca2vlYPzUaHOKwV8iQ/eX098qOfJH5T2/kRyA8/tu81yL3kN7ZzIc8y5Jc1LdEEXd3REbaHKJPQzrjRPT3Eu4w/TtfsCaYFtkp+fFn+3tx8iIGgMelUwSxYPTwbt2G3/a6OcN/LDWn0A6QuNy8wE9ZmvqIpsGhcv40749RggU6RH1rSBwwBDBL5bUzIDz8bmRO247JC09+feJj3rHV8xActGgr+HunkHsL32Cr5xS/XDJ7tgcoIvgB6/BXh9C1hTd6svPaysXhx9jLoiC2Vq7Ghu621F1Ff9k9x/Zb9k+u0ueoU+VG/jHPf9nb7lfx2GBK5ctddVVA+4w35/dSD/M41JrzLsqgrzMG6Vlhr5Ec6yjuN2RhiQr/bvFTSNGxgd7G3NmDyZuXsbb3d7h7t9X4Ovw7mn+vjQgMJl+nL7/8n5y8sg06QH9ciT7GIWPqR/NDuKTLA3JVcGan4kB9kim/Q9vsiqfKu8evXGe/WyA9nri16VFYwTRaZcxUBjYPdxWy/DSVHLDMmoSHzXgT5ip+8wW3yEtHdNVVsVuAL/DMhR5MoXdWJScDjmJYDHn+yeDjWiIvQj+THtg7fv2U67srjO9YS+RHRffpSt1skFYIYH1s7EZ2xdTpuO3e+ef7Tb5mKlZcDPbiCAAp9KKsOeSvkhzYW6kt+5KVj0TaHvY9W0sai+Z6ZNDXmecfAPh1SpcYnHP5UQD0wOVmuc5AjuMYSMPEB52eBfXjNnujjhlCqymfWTURvM/Pu/oIvi+DOT4TSvH4kPzagIrXGVrbI7/CbYxr/qSGzVJMjGu0qY+SajEX+fFnBLfKZGyfjj1wRrjGWh+SaQU405DlR0Q3VCvlh/xftmlZWvlXgkwEMJpO9DfJjQtTNZ+sESFSVTJyLdsp5XKQZudIo2EjqP9Z3tisOQZcT17r9k/wbC1YilH4kP/assQUGqYc/f/tM7FriQ4SfFwVm4baZOBm5KNq72Kxzzpk/X1awyhYYTc/nEagpJ0fR9f6IPt9UMRm6cfLjAY4WHsBXnmm+QuscjnQSUUMEVHyEyf7ljb3V8oo8PcwM17sgiXWbJfE1D3yCmEu2c6RCEnodMqiL7xsTSiL6J5tn2OkROexH8svLA4wGzEfNVcrJBwUytIHkbNfcQuM73VhMZcaIKhPMY9d5aTxcJbugcfI7y7B8COJDPnVjcYcVQus/bsnkTYUqlTsdvrFuA6T2dMFXh6np489kskkbHmEiUc1TflrWB63IXN1qEDRX34qJfic/0lzw/1W9/XO2TcdamO3cqVDcUMVVjpJhM81TIbWqSgZGo+SH1keJku2GywqheFeFBdHktiOEmHbkG9aY761iiUdtLi4K3+choutyZ7AdAMGVtseHJPe3esyFjxoteNpzNfY7+XHvdaon2OzeNbeetHg4DkZWucJ1Zuxd2h+pb2m+Yhk0Sn74BkKREektroej5VJbJm9WIOVbxrtf++Pj8EGhrBA/ZpnSNLQ6oqS2c6Vy+LKRWoRQFjRVOG2TbO4++8KRUomy/Ux+uCdoYFH11m8Z3xvPnaK5xd8/UFHrA2nA1PVOCZCVHfvGyI8bPrxmr75UcKJSVlX0bJi8TSY2u4TJ9aHVeypPnLaAySuZgVQ3lDEfqKv2cUgTZGlrfCCphwofQTRSn6BOFv1MfjSRqHPfEI8rr+8R5pmwOurMAZoKu8jvU8bC6Aryg4xogROKjEhvcS1Krvd/HSI/hBbuVdM62gKROkkb+pmQvGoDEV0Wvu18CP/2MUMKdSa+L4j2v9pjf2aK912pPDb0K/k9dclIHLyq835IK3LNLfzMRUUJvmAvbZffD82wrGbZCPlRdnKoGVTbTZYVcrC+sVkulCeSKeWeNSlcu97rbQ6kK0jVNfhkSBgtCzaIOtjR7QQhabrptCC0UFp0SQTP3s5UNZRFv5LfsavGa78bqQPP2ysQUx6LzMebaLTt/Ah7bZd9jEbIjxcUioSefcGI92TFtHumEM1sSh69cDhatrM7y94YP6mdEAulSsQM0qHvn+t9s6DPabgkcOWds/GH0nb9VHCfQNZV7qNfye+z6+qZvNQG05+v6P0TUaeShEwM6qbLyneMULhACZ7r/aLBdpz82DQoRKNShBrRstFCGi0+aIF7oTcl1IbWmEeNgS4ckkYk1Wu6gOkrdQQ5fk1zflFMKgIY0geXnnJV76EfyY9y0zrpLYAIrm85W5PCx73j5IfpEaqaAwf92pKmGP6/bwduZOorTFzab9eZTKHBeBwr5OOhEX1t01ScSkR9ZRnhYwP5Uc5mO3cqzzHk1FRO5EfW7ok/lLbrpkJgBi2lKvqR/B6zaDh+h3Xm6xXm/T9xsX9tcFNCwKWsWzEo+TG5QjQqTYXcoSovBvMtVN/AskJpUFlnepOgWN+1oBBMExYJBFJW+B0LXxprJmeZJpi+oKRKaphBQOqSiuZuin4kP6pb6gY7Lt45490Oq0mhfdZMyW9bUPJjlzMSf203V1aYBEyGqvjl+N7oRcvDJFiXERZi3b0cQgKfCQvTdq9tC36bkONCEr0rvwyB2EnlqHvdfiQ/OvNQCVNnbLhnPi6dJj+qiTpGfpBNyA2DcJLWnbB87Zvo6CzJUSvG4oXZDfgLcy+dnpip0EWErjKh8B6zuNE+bddKhdZYVbt+ZNGP5EetfNWqixTkcHYD+VE33DHyY8u5UBoG2hN9vepP2SjeT6JtzYcFWbQLWJsga//hgsnbptApmahfiHEhj1TqFIwvitZIIa7Xj+SX38OjCi65Yyb6YzMuLvJjPZBYjlXYhDD2jFtHAh7XG9X5oIC+PkyZoo3IywKHf6jd4srISy8ejW4JqOVUATt9+ezL0KZQRVL3zULqT1vqXnAPNB/QUw1RhJlFSn5FoGuzK+DB9d+yajxugEua0Yo7wwvnJfBS9jmCkF/I4AJMThPKUJMWsE3jSy5q3//nk5zdJHAdtE36klDrm90IvQpowCk9F4m3dYgoD4n8WOQn1SQ/SsDolGw7P9KN5CelunB9asoD6TJBUZv8SC7F5rc9eBWh2WGVDHwJpHEQlbJdsykhQZtuE50A5XbdZPKmgib6gxq5ZSx+KZkZTST0uK8ZdpMfi79o20tf0BbqwDPt50e6kfxoDiF1Bn/DyrH+JL+QJWVE5tAimxonNjzx2RsgpOQ3/m4Ln183GW+0brunVHB4o2VT60pheF35nLnmkw3x2K6VlfcZTYDuK2WBafMkoYEq7Y2a2GJgvUd/QFKz6pBf3B3bQVbdSH6A9C4XB1Db2437XdciP3wUISO87BR/jTEvmgRb3kkRwpDCgtnQAe2PWkfXhEQDa8Isx894X8eCQw4zi+6Gko0gWDxSDSnvlY9xHQIqAlFqaaMfyvzq7FdMI9leJD80Xtd9P3LhULS8ZBedNlCL/ChYDqX1Ia+7DD9Ns0M0Prs/3kHedv2mhHY8bSY+44qQankxDa/cHf5DQ3MEKQrLnClbVkWunlSiR3OGOlUcLlBCR5WKa74/bWl1NwepYtIHq1vJj8wGV4UPH6Xja7oEmkBl8qNFUujmoW3th0tn2Dbz/4jgsRdBW8AElbQvNl9vajJKixg5zmjgvtt/rvDI18TEP2trs/OHdumu54IAqprcVL+4WjYh3Up+BINoausaG6pJqnRbbhKVyI8NTEJvDE5wAK2sLdD8VNrSMKScYEwa2m41Dcwu9sx1vRsi6qfUKPKX8N9oaZbrZoUuHKQ/SCBSD1FLc42Gsk1rFiRVS/dRxe9HgO9Ijz6E3Up+4CiP+3+/+eCFXgJ1LMVK5EdX5dCBg9M2T8XtkdrEh65rz/9HL7LrhprX/pZun4keJUR5Q9S6ukDep88G9ZLpy3wgcCMRKQ71oenm5w57lpA/aLuHVOhcXUYDZac0Ak6SSY90M/n5jA0+fXzCIT5SfDBoaNHqpuW0rDpm5Zj14aoKCdKujcibAg0QyP+Tvlih5B1XjTfu+2MTZ4ks4saPDd4HzVNfsFweV4ITQ44o4LIdM+KComqkrR3iML9pyW67j6ykAR3pniC+Lxoy8CE+pJvJD1/rU4WAEAIBsmF50faXEpi3uAgws5nn1xqFour9lyY/Wp1jNtkerKqcdEO7AYEs+HL4TOgQQomPawe6uiAiKpm8VCJ8wox3k6ONKXLK+klxIZB3WRT1xdyV8seQ16wYi5YakqQ1E1pvVSHBmP8l8FAESF0KeqTyBLM4WaSzBdYMycGYyD7nSqWbyQ98dt2EmIOZyssvGY3rgovGJw/aobFVxRHLR35jrfHhw3VS9f5LkR8Jja8zky3/IHUkNgeHm01vcYHyt5C7zEnyeqM1NxXRPnvrtBiEgughi2bu4G5cOzQbk73tHrJy+pb5pi9agbS5eipcA0JnQdQRzsXCjTsbJ/dhAx8O35JBNBO0wI+YZ2FHOToT0/uQ3oIU4meP5R74m4s8up38aIdP7qjvWuLeOJ4xpZkupWqrDRcgZCyw5zdRfvIIbXsCt0p+dAQOTRKYgp1OgGSxfdxzsdUVtOYlDZHPCavlMkMmfNP7aQBcCs/3MH3ZX3d3zl9Hj74DHIu2KYFI/80sRBe5bDaaoZRGVEUw4yBJksSLxqzbyQ8s3zkjNrYtEtYGbg7E58PZGvnhYCSJ03YTdWSxMTW6AbSg8om4hZAXGdPUdwL7gv1LJJMX7SJ0T70i4JtBy5HGM58GxDwjmdh2bNOCRvfpG+X6XDSV+3hqf76Cr/Zqoy0ftKiYOHqB/MDXjZbrQ151pTXy+37ArShTYUtKfDvdAgYyZCfqIsG0Cd3wFF9s3pTKC8nH5xitKvRkLwJdgjFJbfeSFRqupq6Aj6zpTAduxJf86DiE7ynUfbK7HdYP3Ulc/udeIT9AKpVvIKeq8L5WN01+aBXPMQNlu4E68v+BevaFBP4/nwVbV5jw0wGTnuinKC1GNKq8idkkcFL7mL5Hrxz7TaqKtN9Ik+JLfgDSODTAxj2cY3USsezFllZF4GPGXrvsD2O7dggha4FtGqpCJL/4IcyXOfSEpIX2TWbguw2Ya+wY1/QCJNCDeRBi4tEi6nAhConz/e0V90SpCqKj5LBJY4mPB60bvLmD5IepRnWML7ncbMadfYCr3C+/wY2U7aRMtFlqafWVm/3Jj1Qi12ZiITo5S7jaaP9EdkO+08edOxwHQoZrfshF8iPCS/6O7SbqCFG1Jge9DnYajYWIXNOL8BmBknMpNSRxGbOWqFheWFDkUnZiZzk6saDNsMeC7d4Qcr9IeCbtgWanD3Mc25SgoVBCV7YLD1U7JPjSwMJ3vpAGQ37fZI7F6IrMWsOXZbtHxvG7RhHxvT8aJRD9Z/Oo/Ln4+ELcm8ebdzvxESQT4agVo17J73lhXHl2MiV+dOt0pf2lbXCSHxn2XzEvKTQJsGXeFQ0U1YcE9b+HLml2A3TqUT+/vv5HAH8RUUg6R9N9pEjarqABXBO3yRZzf7Z7Qsitw0Qm7Yj/5b9txzUpjB33WDXzgAj6ebfPxBF3GmcQvT3YaCjMddq8Y2JSHvfz26ajXdN2woFIMeOKxopxKbPwuU7RWPJ33kuTye55MBc2GWuPTcgpdWOciG6T78nHmfHiI4IrAJMWzZWPxLKdM7FCEhpO8iMY0UQAgH5u3bS9YxEIIjy4YtjeV6hx3dLC11fRLiAViBQCqlrNMAjArUZNP5VjjFcb9e8pnORH+D201kezyXOMmdYrYJf/0BUtWcEXx5afujwUinbhJL+TjUnG5j9EEkMIaj+FzbB8t4O6S8wPuj+HbNhqE1R/2s4rFIr2IAY8BgGo3vhBSDXA4U3jBnw2UlF9SKEbrmp/CkV7GEjyw6lOQINCaXKh6CVIBMxGSm0JTnFqG5UAFYp20PfkhwOVSCg9CD+6diI66tKxOE9IavvUCaG7sZKfQtEO+or8CKUTEqe9Ef5KiuYJm7dRZxhCKG3i3pUAFYrm0dPkR24V9aNsoEJA5Yhlo3F9a9qiqBflnVeNx7WjCoWiWfQM+ZElTh0iaTLUX9IUgaoGaW/aXhMy7xe22HxAoRhUdCX5EX2ltRFdjykdYr/Wpy0ZqVQa04ty7KrxwioARVjcQzG4SOZAxwDR0UuP6Ou3fzkV5wI+d9lIo90gekFCt7xS2JEsA8UgIpkDrYINoOn4+oUNk7GP67DzR2JfHSYs/jq6V/D/0fSoCBk0gfyOMdrujgbqGRVzkSwDxSAimQMKhULRF0ioTUZyvEKhUPQFEmqTkRyvUCgUfYGE2mQkxysUCkVfIKE2GcnxCoVC0RdIqE1GcrxC4Q32ZWBbSnZac+3QxT4tnzPH0a16Yxfu16LoTyTUJiM5XqEQcfKGyXifEBvR+chLLh6NtHJP0TQSapORHK9QFOL87TO1SC+VsuTHddEwyQNdrCV/Ck8k1CYjOV6hsOIbm6aCbT4tkR8dviE7qnzy2yewOZCSn8IHCbXJSI5XKOYB394BAfcvcZEfu3q5rqXkp/BFQm0ykuMVinmgu7SNiKqKkp+iDSTUJiM5XqGYg5/+alo0d6nHZvP5K42GmCcmyCwfEVbyU7SBhNpkJMcrFHNw4lo5jYVuPL7AdwgRFm3XrOSnCIWE2mQkxysUc/DyS0adezaHjr4q+SlCIaE2GcnxCsUcSP6+Vbvq7zRH6zLbuX3lXVeNF2qSWWxOTHB26rNps6n5TjK2z/nyeLwZq6IPBedNz8l9sLdM9h6kCHia7lOUUP7Yc4fja9D/scq9p0ivk09pSs/PjocpXun4MPJOXM9jwzc3T8Vjb/v4HX3ZWJwon72+hITaZCTHKxRz8KwLRpya3wmri01YXzRNfvgtnyk8h004b5nF5kN+LHDb4raRH0T03mvsRO0SXBFlNWQi+q8QtPxUfnDrXQQbivwYk4eUyB/l3D6uloTaZCTHKxRz8KbLx8QFkdVqqqBJ8mPrg7KklxW0wR+axe7zeBL5oZUVmfR58oP4XOa/j5y6ccrrvXCtsu8AAnS5RHzIj3xOCLTK9rFoopcLVkdCbTKS4xWKOcibZ0XC4r2iogncBPmxsCSttYz4EIlEfoc4/r0J8kPOFTTAKsSH8FE42BBQVfLj/Ty75vvhHtaP7C18voTaZCTHKxRzIAUg8vKGlWPRErOgBJ6YgybILyTxpSKZki7yQ1Nx3U9T5Md1ZwtuGgJqao8cifzqEl8qL75otPD5EmqTkRyvUMyDlO5iE7QCHNQ+ZlcWIaK9NF4oe78+ApG4fE0u8pNEIj/8eGiP+VxKgieSXxCz3fYejqvgT/QVF/mdYt6P6x0T3Lhp9G6N7me3TceBt6Kx/WqBVp5Qm4zkeIXCiqqaFKbJ18zkLFgH81CX/NBmJOd5GrnMLhhIxIfkXf5NX/LLn4NgA/mP2b+l5Acp+qQTfcxx7wSl8kTEON1b2OuaceLdZe/Lt6NPEflx3YedXfz74y33Cng/Rb8r0v4SapORHK9QWMGklXL+XILm4uMTrEt+ktYnJWVL5qbLjPQhP8lJn4L7yBOiCy4y45nz98w4uZ6T3+wsGCeISHrWIvJzaX2M7YwjiAvBF/12++T8HybUJiM5XqFwoq5J+SMhclqX/FwaKlpo1pwqgmQOFuU2SoTg0hpDwHX9PKkQBXc943phnDBFXb7aIvJz+fo+Y8bH9psUrmum6TdZJNQmIzleoRABQeFnci10l7gIrA75of1IC9KHfKQuNkUkJpFfkSZVFmiFJCKTEIz45DDuyGlGLtMTn5uLhFK4zmEjP8nUdkVuwQU7iiPTNuJMqE1GcrxC4Q0ms60aQBI0sCLTsw75SaTlm68HXFHQosRuF/nZTE9foG0fs9KtqUmyIaPJYba6PhK++YHHOrRHG/nxflzXrSNcLz++CbXJSI5XKCoB/xSdln21wSLtqQ75Sf66MqV4LiIrMumq/MaFomqQKpIlP8bJRUK+fkmXe8D2vJKpXEeU/BQdB6VkPpogmpCNDJokvywBSAhNfmX9fZJPrqyUIT/J35eiLPmFJPO8KPkpugIQmI8fymb69oLmV8XsLUN+UiQWwceV+vzS3D/X9Zsgv7Jmr5KfYiAgkRhiI6M65BfS5+cihyoBD1/yk4I2RQnLIBT5SSVxKVyRWxv5qdmrGBhIidE2IqtDfhJx+HagkTTIIhINQX4urQ9tz3UOV/Q1S35SwEO6DpAitzbykwIeK0to5j5IqE1GcrxCMQdUPdja0/tAqrQg5y4PifzyFQd5SHl+PukmUp5f0TlCkJ+rUsMViJDIKO/vdB0bJxsL9yqZ5jbyAy6C9o0y+yKhNhnJ8QrFHKRVHe++erwUCUrJ0BCRbXFI5EfjBNvvUkjXlX5PwMZ1/XwNbhYhyM9FvC7yk8goT35SY4Ei8gKS2YwU/d7lJyQI5qrwKIuE2mQkxysUc5AvaUsbFpy2yV6vyyJ8mSEI18JCICEbGaDBuBYxkiUSyIpcw/S/Memk37PI8hokJplP41CX2d00+RWZoz75c3nyk8gSydcV8258m1wUkZ8U9HCRbh6ci4BP0fEJtclIjlco5qBOPa9LXCRStokCCyZLClW60PiIS+sDTZu9SL5JgQ+JIXnyg8iaameFuEjsCYuLxwlJG0/YumgTNOFjl7pUuE4+0JEioTYZyfEKxRw0QX5FWl+KsuSVJz8WtqsFUhXxqQsOQX5SsKWq5MkP+BJnkTAmtr8jLvI731GmVlaU/BSNITT5YXJK+y/4pMlkJU9+APM3FAGyyH1yBEOQH3Cdp0gYV1dnZRv5gapNRdFAXe4NF/kBqaefryj5KRpDSPKTNL4s0Ep8tT8b+QEIsO79Qyq+ydGhyK9sDSxmIuTmun4R+aEllyVAzH8Ip+4GRiHy/pT8FI2BgAJF9XUIxLchZx4+BOijleEYL9t8ASlDWCAU+QHMXx/NlbFNzfEq5JdCSu9JJUtqIXZv4wNVtZSPJqa0SCsa14TaZCTHKxSFoHkB0bWivWNTYUESEebYMgveBkxgHNyH5Ey62Clu/n6n0Vx8AaFwriJzDS2P+2aXtSq3HZL8UvABsN0vZmd+j9465AfQOOOxzp2HDwz3n091cgUubC2mXEAD5VmZW0XmMO+H+3BFeLNIqE1GcrxCoVCIgKxcidK25qJtI6E2GcnxCoVCIULK18s3T+0EEmqTkRyvUCgUIlwmL+ZpURCiTSTUJiM5XqFQKJyQErFD1+hWRUJtMpLjFQrFgCCNtJaJxEtRYWkHtjaRUJuM5HiFQjEggPzSPLu0pIya7bzWxnFEYn3Shboh0JEioTYZyfEKhWJAkCW/EFI2vaVpJNQmIzleoVAMCEKSX7cRH0ioTUZyvEKhGBCEID8SoF2t9TuJhNpkJMcrFIoBQR3yS6s+upH0UiTUJiM5XqFQDBjSpqDSxujU61L+t2R7+TrtTiChNhnJ8QqFQtEXSKhNRnK8QqFQ9AUSapORHK9QKBR9gYTaZCTHKxQKxUBByU+hUAwklPwUCsUAIop+DZlEwnq4/7JTAAAAAElFTkSuQmCC;imageBorder=#0066CC;strokeWidth=2;dashed=1;" vertex="1" parent="1">
          <mxGeometry x="35" y="1260" width="148.28" height="66" as="geometry" />
        </mxCell>
        <mxCell id="NnL7JSWlf4hrcEAEEY_L-111" value="" style="shape=image;verticalLabelPosition=bottom;labelBackgroundColor=default;verticalAlign=top;aspect=fixed;imageAspect=0;image=data:image/png,iVBORw0KGgoAAAANSUhEUgAAANsAAADmCAMAAABruQABAAAAeFBMVEX///8AvPIAuvIAuPF91/eG3PhDyfQAvfIhwvNl0PZSzfX8///w+/75/v8Av/Ny1ffl+P7X9P2+7Puv5vre9v3O8fzH7/yo5fqc4fk+xvTz/P/B7fyQ3fja9v226vui5PplzvWl4fl40/aW4fln1PaK2Pdv0faH3fhy5sibAAAOoklEQVR4nO1d2ZaiOhRtEoaAEEAFBWnsLq1b//+HlwwgwQRQw9Brsd+6SwnbJCdnzq9fb8GPkvJcmK5n2wghbDyAq39ntu25/30Xt+s+OebvjbAAAj85Wa6NHAghAMBQovojgABCA9n34hD7S794P/K4LP5kDnllNSUpzepXwNl/5zQKluYgQ7S3PGTAV1l1JhLb4fX30lQE+HsTGb3r75UpNLB7inZLcyIIksI2PpktGT8AMrNceAPmiZkZenk9+GH3EC3GLLGQ5gl7prfI7AVXe6IZ69AL45mZxaEeyTGGHkSnGScv9cZOGT+eqwO60kc4yOuSc73/ZBeegqyZdt7FHn4n8uIORrb79V2cyvRIEHHQf6T7a/H9RdSXUUc9cMwZjr3E62dG5gTb95/D5ZgHg6fULvB/p4fibmOioA2wm3juIrfvN67mCrl/L/4bilPgX/66yOnjB43zhBrZ7uwoxwbVbJnlhz/tcW/ZWM0PoL0eIs+IPdWoAKCw1KMn7aK9mQGoomdOYxAdVMIRojDVOmQQW0gxewAlOkfiMBWDAbuc4LcM0juUT55z1T1W7kpHAs59MrXBt7D054SW3nEC+VYD7qQKUWRJtwEMtVpA0lkD6KJzDBmOtnRgU+MQluznA94Mat5OPnShbYBSvjK0Pb8XVyk5XSvGR7Knu5qePohCRg5rWjPSZYHns4nt6VZN5Ey74geRSo8fLRLalD0aTqEeKOBj2Qto+XFd2a8GZrT0c9l+N2wdj5Zzm/xoe8CXvYCBdBg8cm4znQAEJ6lOpEWYSbkZzmwbLpAuScM4ani2nJuRzeV8ussNEKhjxyu4QXsecjeV1ZhqeLiCmwGyGVxPgakY3QA6/AsqbtWeu00dbtlnSu8COGh4vpqbAbNJjwK1g4ZwO2kYoYcb2XX7icLVu9Tr9clOz80AMLtNoDb7pwEfrwF0+E36uZFRHE9vpMzfu3JXiTCqDoVykBtxdhneTZOGeby6eExYby5udCyI3b+fZVLkx0NIAufjxpuRGxmu4ueZpzR6WbzkUXKwPDQQ71iSGydo4MwLz5d4TLJIEMWXs+lleOx0LcqNE6QBuMx2zeJ6KNNL+pshuaTp/nC4novCvHs2wg6N1b0zxFLc2iRp6pMIyP/zoycvzm06aHHAbtxmx8Zt47Y2bNw2bmvDxm3jtjZs3DZua8PGbeO2NmzcBiBL71gBNm4bt7Vh47ZxWxs2bhu3tWHjtnFbGzZuG7e1YeO2cVsbNm4bt7Vhbdw+zQUSnjULN9IKAmVeBTtT9g4AABqZ9/X1h2TbyetyH1gJNwCyImnnFB7L8PkbkNS2158IUit7en9wv+xrpGOWyvTcoCsrQegUdQG77KYbpm6HnVDZ3JdfPhc3gOTFFUj8kDSTP7UFAmvjBlWVwln7HWxFnnYg1HqujBvwVGUdLW7wrq79OLQorIwbUiZeP74C7n2PLtfKDaoLYpp3A/f+nOVzQ2Jd3JD6K/W7AXsoHbspblsVt26hbnK2ikPc4TZYW5jXBdar4iZWCkcZ60pleKdKLLrs3eC5y+T4u7tH62LSVXETalmD5rAC0HHLkP0LiTUQx3t17mFPLFStq0lXxU2QkrEwar0ixSqukjVSAob43wVcIbf2pORI8jZiP4f94w/CzEXGCrkJb548F3WJnTJazTSALXn+qrh1aseDH9yxXKBQfGe1/grK9l/YolwVt6f66qjosGvr0UJPBFFZu4DVcQNdAd/tzCRMbCy8LW6fe0e8Om5GJvlsZD7MMmFDXoQpBc9Tui5ukokj7Jr3ytqCVOz3INRmB/b6uBmOvML0ytUou72pxI5Gwsm3WyM3A8nJJUxuCJL+pObGmKyNm4HlZk7svMJtnfNGWrRI7dOSSA7BvikFWQLbB9wq9xt9JXyTFQWTlxNkSfJvycl6DHR+Zkc6sQlnwFH4jiCF1ni+tdhZXRuUzIVwdou9moQpXaFeIozjdNsmEutUkKJha1FC4bVWqE92RkKi6ly9sCjo2xaeqGav0A4wRJMNeMKXzqDbDbBoJk50kK3RfgNlKkQsREuUOuc6U2lI7W5rhXY33P8KDnbTjaNjcJLOt7AzeuKRcJYthhCk/hJbLOWfnxs9f39/IxY4y8RJ8shHnG4jKD/ddyVq7X0VuF0Obcg7BE/PrUJ8vnthKX4nomdWZw/KEEn9kyJKeShyDm4y8IZhcKhf0a7ZWctwU7Sj6+P26Bg50Pzssdz+GW6Pgxr3dhF6hDr+GW7t7rO4p9/hT1tX+Te4FcLnHFUoKxCara6Lm6LXXuR2RDYIpUHh6uQXHrcmbsCUBaD8m8TBjG/PFuy5L09haW7kQgTz0jJWdrm/Dx1Fu3oz9UVLIe78BsAMfDlyeU/USbmR50PsefcKLskJQj33UgHoZK5gxEZ258OyNs7yZxE1DCMdvZB6uNUjjcxSEhWzvLsxx6D69bI/Jr3tT0fvywFur6Bj5SmuklB+Gzh28dYtLnNwq8gJUkXaY14BCDR3S9TNzejYC3tZO2/Z10B2nqJ1rlZulZ0neMViWcD1mZn3lOz2a8exIm4GFDOlIumtFZ1vtDXu4Hg5katFMw6b9BV8d7Fq5tZNg1Lc4PJghlrKnX+4k4udRLkMiJCx3urTrZvbUy906cUO9WedopnmYO+pOzlCiM3XO5dq5/akX52Uxzb0GrdEVAzdgAiAfX1R4OjnZhi214arHKKZtMgaI3SqBfyaOJ2CmzHsxzJad0/5VitNgPTtxCz3u9L0EMKgfWNspZi/cLhPwm0EHvfvXNHDbwuxe7scW8pJHsVl4bVa+8IXblJbiFuj58fNKQEMu1DJi7h43LQKvbFnwjLcwI2NvivqVwbYTPpO6l0S4uajfU64xbnxl4s8WL+uxMDtIrLqiwVBOGrXLcGtTtJI+UwAY+QtoFHtYoOq9PaludV+ptpOAKM3ULXxuB8GjLlRZH5u9V7jCouieEKFXcGNC2d4083ODXC1hZuu46VejaQ+5wfJzc2tjknywNw7Pp9a/+6NWSzBjV9Oc+PU3rvegc85GIhHzM2Nnc4nRs159zaVM39av0CZlxuXIwmXB+9fFMPnHfVu1lm58XBkhD6lVscAgd2ny8w7b2xFspDjh1fg/DwnrizJjTfOP9C3kiefvgBWgtF3AdKc3FjRAcvw+vwatpy55ZH6io2ZuNErE5jAZ850DZfX8R9JfUJOyo1cAWFghGzPu4cWW4QpW0o67qThlZHKg2A6bgBgtyjjSAxf7ehKAj8aqHGhpC4enYgbMDK5EU1/637RPR4+daEpb4echBs0wlSxn+h4Q8rSaNAUOaC6VHMCbsAwleoClf/9JbivIKc1y1Axcfq5gbuY6JXn0fEY5VRH3tHhFKUH7+DEdtw83EDWWm/RwbSxQzeF42Bkf9PzVutFzGyNy38s3dzMZp8dz143RM4csVruwKxBHROKM05vbBE3GlAcdivmGsjKmN4GE5VIKnd1coNN2DTuuZdPy5V8D9AacvkxoDOW7/H16N9bzIiyBejtXPX/6bhy9oGEcpNqp/q4NZK9bFZjpZrYrnU+pOnlRO5Kcyp+I1JKXwNlINWYtXEDLpu1IGySnB23FG6Jy2MiXnTcytrGNx1PJp90casXZBPhhkgaCox6vf7vgCrf0k2sixtPLakzEypmU99qW4PWX0s3nCZuXNWI64wSc657pElWNBlQplPq4cb9jJwaQDPe2869lViyTDwt1JgW5SPufJrgKtse0LxoKLE7LoPJLSPA3YTMgQG8ie4gVoH27oGSU3OnoWkcF1KssxNw5xIiNRLKTWYS7t/Ic+yA9d+5MJ5KC38y0KpJeeBjTFlTL1hziB01E0E2n4CsQUto5FGTeHS6rQIZnakz3biOXmVxFBi3v9K/XT8TJ8z3nTNnoV4dfxzo4d1t3lTjxezbDpia+tNn3E8LppioXLD3D8ixh/JKYZ0W9WgwbqqgRxB+sCypW/eg3REyHmy/qQM6fVmO/cioQsA8vG9lcH4MWkHYFzjfD99hLwV75vG5f8R8YOdbX7HEUxXRODC/J3MTfhYsfBsp/Y37swJO6J1dR89qJozmP7Yp6F4fMuf98PUmwlTfCqhOssgB8IvH9eGg7dHne5OC2btsN+soD3oH1EHjjPhgYr/EjjUzTGkEY1aD9AHW/cXxinR4T5Bc9vHzRrcwdVzjbi37TKiLyElC8H4w0pyM33fMtKCno7pB7LS4tPy8RjbsIfQLNI4eMwmpizCb2dyu8S029Bnj0EhDPIIe4/aHfHCw++tE6FRIjstm9i/3wdlbATcPEWDHqQNiI5P7/DLMemsyV8Btl/t5nvt+fKoPsNFWZHC8eo6itX7NzV2SWwsxX5+vHEe75HZHBpRUA0Eq+L+WlCUC6sTK1zykwe+yoFEmYQqZW5DKSbzQGSDiwnurvO5tC6ILiaPhJlTIuFHPrsbsg0/AG4K9a5MEUVLerP88hDHrjU37BmgPrL0J1nIq0+UmPVIroy9Nc05QgTKYhD4WrAXxQmb3E1K9Ljdms88bvlGDGgbaRNtZGZddAletjinmC9KaFPMB4peUk0Gwrq4LWaddUEcw+Nb1uHI5l/kzqCUOvrQ9Tm/O52dg0X19Tm5WRKIpV/dD6ObGsj57vbuzgboU9e23ulpjTKnk5KDBD60/M4stL+URauOiVeki+M2sixWYqCxbTmt0mnXagvMnKnTAHJbaDAEGXtmkun9sLtDAC9RTOdKA99IE2QLJCg/whBnd75CzynKg6GA/C3jDVv3h6Sjj9b/3pewdnxfuT+DgyHmWEQAjWyRoxpGnAt6meHhwb1pbLMDugLk4m+j516YlieNe06OfB3MdCikP2Xc6oOlE8mglAwyMM5uWLYah+WPphhm2UMcNgT3lIXR2RA80mAX1YO60mpFvKqtxJgYwJhEjAqKx0Um9zIA3iyES7EPUqsKZg5nYN3Ba5PH1+8utYHNkqIt3OHQekbFnu64pztn/mn7fFW0xeq8AAAAASUVORK5CYII=;" vertex="1" parent="1">
          <mxGeometry x="54.54" y="1128" width="100.21" height="105.25" as="geometry" />
        </mxCell>
        <mxCell id="NnL7JSWlf4hrcEAEEY_L-112" value="&lt;span style=&quot;font-size: 18px;&quot;&gt;&lt;b&gt;API Database&lt;/b&gt;&lt;/span&gt;" style="text;html=1;align=center;verticalAlign=middle;whiteSpace=wrap;rounded=0;" vertex="1" parent="1">
          <mxGeometry x="35" y="1083.91" width="140" height="48" as="geometry" />
        </mxCell>
      </root>
    </mxGraphModel>
  </diagram>
</mxfile>
